<svg xmlns="http://www.w3.org/2000/svg" xmlns:xlink="http://www.w3.org/1999/xlink" width="500" zoomAndPan="magnify" viewBox="0 0 375 374.999991" height="500" preserveAspectRatio="xMidYMid meet" version="1.0"><defs><g/><clipPath id="2c4fb8ad7a"><path d="M 80.371094 0.414062 L 209.472656 0.414062 L 209.472656 173.144531 L 80.371094 173.144531 Z M 80.371094 0.414062 " clip-rule="nonzero"/></clipPath><clipPath id="14acf5a7a9"><path d="M 156.035156 12 L 253.574219 12 L 253.574219 159 L 156.035156 159 Z M 156.035156 12 " clip-rule="nonzero"/></clipPath><clipPath id="2bd76a5984"><path d="M 60 265 L 280 265 L 280 282.078125 L 60 282.078125 Z M 60 265 " clip-rule="nonzero"/></clipPath><clipPath id="7f7b652f90"><rect x="0" width="220" y="0" height="18"/></clipPath><clipPath id="f4930462a6"><path d="M 0.601562 198 L 348 198 L 348 247 L 0.601562 247 Z M 0.601562 198 " clip-rule="nonzero"/></clipPath><clipPath id="52773f1f5a"><rect x="0" width="348" y="0" height="49"/></clipPath><clipPath id="eded7920bc"><rect x="0" width="348" y="0" height="283"/></clipPath></defs><g transform="matrix(1, 0, 0, 1, 27, 52)"><g clip-path="url(#eded7920bc)"><path fill="#645958" d="M 147.027344 113.816406 C 145.804688 113.382812 143.847656 112.210938 141 113.007812 C 136.945312 114.375 136.09375 118.269531 136.09375 118.269531 C 136.09375 118.269531 139.738281 115.589844 140.472656 116.632812 C 141.207031 117.679688 143.6875 118.359375 147.003906 117.136719 C 150.320312 115.910156 149.265625 113.46875 149.195312 113.75 C 149.121094 114.03125 148.253906 114.253906 147.027344 113.816406 " fill-opacity="1" fill-rule="evenodd"/><g clip-path="url(#2c4fb8ad7a)"><path fill="#645958" d="M 166.972656 0.417969 C 119.144531 0.417969 80.371094 39.1875 80.371094 87.015625 C 80.371094 131.777344 114.332031 168.605469 157.890625 173.144531 L 157.894531 172.988281 C 158.109375 165.878906 159.1875 158.984375 155.304688 155.964844 C 150.566406 152.277344 150.292969 146.019531 150.621094 140.613281 C 150.621094 140.613281 145.074219 142.984375 136.992188 142.550781 C 128.910156 142.121094 126.972656 141.800781 124.171875 142.445312 C 121.371094 143.089844 119.320312 146 116.519531 145.355469 C 113.71875 144.707031 112.535156 144.601562 110.378906 142.015625 C 108.222656 139.429688 106.5 139.214844 106.285156 137.597656 C 106.070312 135.980469 106.5 135.335938 105.640625 133.828125 C 104.777344 132.316406 106.285156 127.792969 109.949219 126.609375 C 113.609375 125.421875 117.164062 122.648438 120.074219 119.066406 C 122.988281 115.484375 129.355469 112.527344 131.28125 109.691406 C 133.285156 106.738281 136.757812 103.292969 139.472656 99.242188 C 141.148438 96.742188 141.050781 95.085938 144.1875 93.824219 C 144.1875 93.824219 144.191406 93.582031 144.191406 93.558594 C 144.554688 75.023438 152.058594 60.566406 171.199219 58.515625 C 175.578125 58.046875 182.027344 59.648438 189.191406 54.960938 C 197.867188 49.28125 203.917969 36.699219 206.511719 26.996094 C 207.808594 22.152344 208.3125 18.09375 208.460938 15.6875 C 208.597656 13.460938 208.820312 12.070312 209.078125 11.332031 C 196.617188 4.378906 182.257812 0.417969 166.972656 0.417969 " fill-opacity="1" fill-rule="evenodd"/></g><g clip-path="url(#14acf5a7a9)"><path fill="#d6852b" d="M 206.445312 47.382812 C 196.101562 72.3125 177.125 62.886719 164.089844 71.550781 C 156.820312 76.382812 156.511719 87.792969 156.535156 92.679688 C 158.8125 92.921875 161.636719 93.488281 163.789062 94.167969 C 166.320312 87.476562 172.367188 80.796875 178.097656 81.734375 C 180.160156 82.066406 182.078125 94.945312 174.324219 102.140625 C 176.15625 104.609375 178.015625 107.8125 179.871094 112.007812 C 187.414062 129.035156 186.980469 137.652344 187.847656 140.882812 C 188.707031 144.113281 190.214844 152.519531 197.113281 156.398438 C 200.933594 158.550781 204.761719 159.042969 207.8125 158.691406 C 213 158.089844 215.636719 157.320312 218.207031 156.835938 C 239.648438 141.074219 253.574219 115.671875 253.574219 87.015625 C 253.574219 54.992188 236.191406 27.03125 210.347656 12.046875 C 210.5625 12.910156 210.722656 14.109375 210.777344 15.476562 C 211.246094 27.21875 211.003906 36.402344 206.445312 47.382812 Z M 181.910156 83.933594 C 184.207031 91.105469 183.410156 100.148438 175.78125 103.121094 C 175.542969 102.78125 175.3125 102.457031 175.078125 102.140625 C 181.078125 96.574219 181.289062 87.605469 180.117188 83.675781 C 180.84375 83.371094 181.679688 83.210938 181.910156 83.933594 " fill-opacity="1" fill-rule="evenodd"/></g><g clip-path="url(#2bd76a5984)"><g transform="matrix(1, 0, 0, 1, 60, 265)"><g clip-path="url(#7f7b652f90)"><g fill="#d6852b" fill-opacity="1"><g transform="translate(2.692246, 13.046434)"><g><path d="M 8.734375 -9.0625 L 11.125 -2.984375 L 13.984375 -11.03125 L 14.78125 -11.03125 L 10.828125 0.15625 L 10.15625 0.15625 L 7.578125 -6.390625 L 5.296875 0.15625 L 4.625 0.15625 L 1.015625 -9.0625 C 0.773438 -9.695312 0.519531 -10.132812 0.25 -10.375 C -0.0078125 -10.625 -0.304688 -10.773438 -0.640625 -10.828125 L -0.640625 -11.15625 C -0.585938 -11.15625 -0.472656 -11.160156 -0.296875 -11.171875 C -0.128906 -11.179688 -0.0078125 -11.1875 0.0625 -11.1875 C 0.457031 -11.1875 0.859375 -11.144531 1.265625 -11.0625 C 1.679688 -10.976562 2.070312 -10.785156 2.4375 -10.484375 C 2.800781 -10.179688 3.113281 -9.707031 3.375 -9.0625 L 5.625 -3.3125 L 7.125 -7.578125 L 6.546875 -9.0625 C 6.285156 -9.695312 6.007812 -10.132812 5.71875 -10.375 C 5.425781 -10.625 5.113281 -10.773438 4.78125 -10.828125 L 4.78125 -11.15625 C 4.820312 -11.15625 4.921875 -11.160156 5.078125 -11.171875 C 5.234375 -11.179688 5.347656 -11.1875 5.421875 -11.1875 C 5.816406 -11.1875 6.21875 -11.140625 6.625 -11.046875 C 7.039062 -10.960938 7.429688 -10.769531 7.796875 -10.46875 C 8.171875 -10.175781 8.484375 -9.707031 8.734375 -9.0625 Z M 8.734375 -9.0625 "/></g></g></g><g fill="#d6852b" fill-opacity="1"><g transform="translate(25.000731, 13.046434)"><g><path d="M 1.3125 -2.171875 L 1.3125 -11.03125 L 3.484375 -11.03125 L 3.484375 -2.171875 C 3.484375 -1.671875 3.550781 -1.265625 3.6875 -0.953125 C 3.832031 -0.648438 4.15625 -0.5 4.65625 -0.5 L 4.828125 -0.5 L 4.828125 0 L 2.828125 0 C 2.242188 0 1.84375 -0.148438 1.625 -0.453125 C 1.414062 -0.753906 1.3125 -1.328125 1.3125 -2.171875 Z M 1.3125 -2.171875 "/></g></g></g><g fill="#d6852b" fill-opacity="1"><g transform="translate(37.261741, 13.046434)"><g><path d="M 3.765625 -0.75 L 9.515625 -0.75 L 9.515625 0 L 1.59375 0 L 1.59375 -8.859375 C 1.59375 -9.359375 1.519531 -9.757812 1.375 -10.0625 C 1.238281 -10.363281 0.921875 -10.515625 0.421875 -10.515625 L 0.25 -10.515625 L 0.25 -11.03125 L 2.25 -11.03125 C 2.84375 -11.03125 3.242188 -10.875 3.453125 -10.5625 C 3.660156 -10.25 3.765625 -9.679688 3.765625 -8.859375 Z M 3.765625 -0.75 "/></g></g></g><g fill="#d6852b" fill-opacity="1"><g transform="translate(53.96233, 13.046434)"><g><path d="M 5.140625 -10.359375 C 4.867188 -10.359375 4.625 -10.347656 4.40625 -10.328125 C 4.1875 -10.304688 3.972656 -10.273438 3.765625 -10.234375 L 3.765625 -0.78125 C 3.953125 -0.757812 4.144531 -0.734375 4.34375 -0.703125 C 4.550781 -0.679688 4.828125 -0.671875 5.171875 -0.671875 C 5.953125 -0.671875 6.644531 -0.863281 7.25 -1.25 C 7.851562 -1.644531 8.328125 -2.203125 8.671875 -2.921875 C 9.015625 -3.648438 9.1875 -4.515625 9.1875 -5.515625 C 9.1875 -6.492188 9.015625 -7.34375 8.671875 -8.0625 C 8.335938 -8.789062 7.863281 -9.351562 7.25 -9.75 C 6.644531 -10.15625 5.941406 -10.359375 5.140625 -10.359375 Z M 0.25 -11.03125 L 4.796875 -11.03125 C 7.085938 -11.03125 8.804688 -10.546875 9.953125 -9.578125 C 11.109375 -8.609375 11.6875 -7.273438 11.6875 -5.578125 C 11.6875 -4.472656 11.4375 -3.503906 10.9375 -2.671875 C 10.445312 -1.835938 9.722656 -1.179688 8.765625 -0.703125 C 7.804688 -0.234375 6.628906 0 5.234375 0 L 1.59375 0 L 1.59375 -8.859375 C 1.59375 -9.359375 1.519531 -9.757812 1.375 -10.0625 C 1.238281 -10.363281 0.921875 -10.515625 0.421875 -10.515625 L 0.25 -10.515625 Z M 0.25 -11.03125 "/></g></g></g><g fill="#d6852b" fill-opacity="1"><g transform="translate(73.433502, 13.046434)"><g><path d="M 3.765625 -0.75 L 9.515625 -0.75 L 9.515625 0 L 1.59375 0 L 1.59375 -8.859375 C 1.59375 -9.359375 1.519531 -9.757812 1.375 -10.0625 C 1.238281 -10.363281 0.921875 -10.515625 0.421875 -10.515625 L 0.25 -10.515625 L 0.25 -11.03125 L 2.25 -11.03125 C 2.84375 -11.03125 3.242188 -10.875 3.453125 -10.5625 C 3.660156 -10.25 3.765625 -9.679688 3.765625 -8.859375 Z M 3.765625 -0.75 "/></g></g></g><g fill="#d6852b" fill-opacity="1"><g transform="translate(90.134091, 13.046434)"><g><path d="M 1.3125 -2.171875 L 1.3125 -11.03125 L 3.484375 -11.03125 L 3.484375 -2.171875 C 3.484375 -1.671875 3.550781 -1.265625 3.6875 -0.953125 C 3.832031 -0.648438 4.15625 -0.5 4.65625 -0.5 L 4.828125 -0.5 L 4.828125 0 L 2.828125 0 C 2.242188 0 1.84375 -0.148438 1.625 -0.453125 C 1.414062 -0.753906 1.3125 -1.328125 1.3125 -2.171875 Z M 1.3125 -2.171875 "/></g></g></g><g fill="#d6852b" fill-opacity="1"><g transform="translate(102.3951, 13.046434)"><g><path d="M 0.25 -11.03125 L 7.25 -11.03125 C 7.632812 -11.03125 7.925781 -10.960938 8.125 -10.828125 C 8.332031 -10.703125 8.472656 -10.535156 8.546875 -10.328125 C 8.628906 -10.117188 8.671875 -9.90625 8.671875 -9.6875 L 8.671875 -8.265625 L 8.171875 -8.265625 C 8.171875 -8.992188 7.988281 -9.507812 7.625 -9.8125 C 7.257812 -10.113281 6.742188 -10.265625 6.078125 -10.265625 L 3.765625 -10.265625 L 3.765625 -6.015625 L 7.4375 -6.015625 L 7.4375 -5.265625 L 3.765625 -5.265625 L 3.765625 0 L 1.59375 0 L 1.59375 -8.859375 C 1.59375 -9.359375 1.519531 -9.757812 1.375 -10.0625 C 1.238281 -10.363281 0.921875 -10.515625 0.421875 -10.515625 L 0.25 -10.515625 Z M 0.25 -11.03125 "/></g></g></g><g fill="#d6852b" fill-opacity="1"><g transform="translate(118.578303, 13.046434)"><g><path d="M 0.25 -11.03125 L 7.609375 -11.03125 C 8.003906 -11.03125 8.300781 -10.960938 8.5 -10.828125 C 8.695312 -10.703125 8.832031 -10.535156 8.90625 -10.328125 C 8.988281 -10.117188 9.03125 -9.90625 9.03125 -9.6875 L 9.03125 -8.265625 L 8.53125 -8.265625 C 8.53125 -8.984375 8.347656 -9.492188 7.984375 -9.796875 C 7.628906 -10.109375 7.117188 -10.265625 6.453125 -10.265625 L 3.765625 -10.265625 L 3.765625 -6.09375 L 8.09375 -6.09375 L 8.09375 -5.34375 L 3.765625 -5.34375 L 3.765625 -0.75 L 6.609375 -0.75 C 7.222656 -0.75 7.742188 -0.882812 8.171875 -1.15625 C 8.597656 -1.425781 8.957031 -1.925781 9.25 -2.65625 L 9.703125 -2.484375 L 9.21875 -1.171875 C 9.09375 -0.816406 8.929688 -0.53125 8.734375 -0.3125 C 8.546875 -0.101562 8.222656 0 7.765625 0 L 1.59375 0 L 1.59375 -8.859375 C 1.59375 -9.359375 1.519531 -9.757812 1.375 -10.0625 C 1.238281 -10.363281 0.921875 -10.515625 0.421875 -10.515625 L 0.25 -10.515625 Z M 0.25 -11.03125 "/></g></g></g><g fill="#d6852b" fill-opacity="1"><g transform="translate(135.779611, 13.046434)"><g/></g></g><g fill="#d6852b" fill-opacity="1"><g transform="translate(147.13935, 13.046434)"><g><path d="M 5.140625 -10.359375 C 4.867188 -10.359375 4.625 -10.347656 4.40625 -10.328125 C 4.1875 -10.304688 3.972656 -10.273438 3.765625 -10.234375 L 3.765625 -0.78125 C 3.953125 -0.757812 4.144531 -0.734375 4.34375 -0.703125 C 4.550781 -0.679688 4.828125 -0.671875 5.171875 -0.671875 C 5.953125 -0.671875 6.644531 -0.863281 7.25 -1.25 C 7.851562 -1.644531 8.328125 -2.203125 8.671875 -2.921875 C 9.015625 -3.648438 9.1875 -4.515625 9.1875 -5.515625 C 9.1875 -6.492188 9.015625 -7.34375 8.671875 -8.0625 C 8.335938 -8.789062 7.863281 -9.351562 7.25 -9.75 C 6.644531 -10.15625 5.941406 -10.359375 5.140625 -10.359375 Z M 0.25 -11.03125 L 4.796875 -11.03125 C 7.085938 -11.03125 8.804688 -10.546875 9.953125 -9.578125 C 11.109375 -8.609375 11.6875 -7.273438 11.6875 -5.578125 C 11.6875 -4.472656 11.4375 -3.503906 10.9375 -2.671875 C 10.445312 -1.835938 9.722656 -1.179688 8.765625 -0.703125 C 7.804688 -0.234375 6.628906 0 5.234375 0 L 1.59375 0 L 1.59375 -8.859375 C 1.59375 -9.359375 1.519531 -9.757812 1.375 -10.0625 C 1.238281 -10.363281 0.921875 -10.515625 0.421875 -10.515625 L 0.25 -10.515625 Z M 0.25 -11.03125 "/></g></g></g><g fill="#d6852b" fill-opacity="1"><g transform="translate(166.610522, 13.046434)"><g><path d="M 0.25 -11.03125 L 7.609375 -11.03125 C 8.003906 -11.03125 8.300781 -10.960938 8.5 -10.828125 C 8.695312 -10.703125 8.832031 -10.535156 8.90625 -10.328125 C 8.988281 -10.117188 9.03125 -9.90625 9.03125 -9.6875 L 9.03125 -8.265625 L 8.53125 -8.265625 C 8.53125 -8.984375 8.347656 -9.492188 7.984375 -9.796875 C 7.628906 -10.109375 7.117188 -10.265625 6.453125 -10.265625 L 3.765625 -10.265625 L 3.765625 -6.09375 L 8.09375 -6.09375 L 8.09375 -5.34375 L 3.765625 -5.34375 L 3.765625 -0.75 L 6.609375 -0.75 C 7.222656 -0.75 7.742188 -0.882812 8.171875 -1.15625 C 8.597656 -1.425781 8.957031 -1.925781 9.25 -2.65625 L 9.703125 -2.484375 L 9.21875 -1.171875 C 9.09375 -0.816406 8.929688 -0.53125 8.734375 -0.3125 C 8.546875 -0.101562 8.222656 0 7.765625 0 L 1.59375 0 L 1.59375 -8.859375 C 1.59375 -9.359375 1.519531 -9.757812 1.375 -10.0625 C 1.238281 -10.363281 0.921875 -10.515625 0.421875 -10.515625 L 0.25 -10.515625 Z M 0.25 -11.03125 "/></g></g></g><g fill="#d6852b" fill-opacity="1"><g transform="translate(183.81183, 13.046434)"><g><path d="M 0.25 -11.03125 L 7.609375 -11.03125 C 8.003906 -11.03125 8.300781 -10.960938 8.5 -10.828125 C 8.695312 -10.703125 8.832031 -10.535156 8.90625 -10.328125 C 8.988281 -10.117188 9.03125 -9.90625 9.03125 -9.6875 L 9.03125 -8.265625 L 8.53125 -8.265625 C 8.53125 -8.984375 8.347656 -9.492188 7.984375 -9.796875 C 7.628906 -10.109375 7.117188 -10.265625 6.453125 -10.265625 L 3.765625 -10.265625 L 3.765625 -6.09375 L 8.09375 -6.09375 L 8.09375 -5.34375 L 3.765625 -5.34375 L 3.765625 -0.75 L 6.609375 -0.75 C 7.222656 -0.75 7.742188 -0.882812 8.171875 -1.15625 C 8.597656 -1.425781 8.957031 -1.925781 9.25 -2.65625 L 9.703125 -2.484375 L 9.21875 -1.171875 C 9.09375 -0.816406 8.929688 -0.53125 8.734375 -0.3125 C 8.546875 -0.101562 8.222656 0 7.765625 0 L 1.59375 0 L 1.59375 -8.859375 C 1.59375 -9.359375 1.519531 -9.757812 1.375 -10.0625 C 1.238281 -10.363281 0.921875 -10.515625 0.421875 -10.515625 L 0.25 -10.515625 Z M 0.25 -11.03125 "/></g></g></g><g fill="#d6852b" fill-opacity="1"><g transform="translate(201.013138, 13.046434)"><g><path d="M 4.859375 -10.359375 C 4.484375 -10.359375 4.125 -10.316406 3.78125 -10.234375 L 3.78125 -5.71875 L 4.78125 -5.71875 C 5.132812 -5.71875 5.484375 -5.785156 5.828125 -5.921875 C 6.171875 -6.066406 6.457031 -6.3125 6.6875 -6.65625 C 6.914062 -7 7.03125 -7.457031 7.03125 -8.03125 C 7.03125 -8.613281 6.914062 -9.070312 6.6875 -9.40625 C 6.46875 -9.75 6.191406 -9.992188 5.859375 -10.140625 C 5.523438 -10.285156 5.191406 -10.359375 4.859375 -10.359375 Z M 6.109375 -2.25 L 4.4375 -5.046875 L 3.78125 -5.046875 L 3.78125 0 L 1.59375 0 L 1.59375 -8.859375 C 1.59375 -9.359375 1.519531 -9.757812 1.375 -10.0625 C 1.238281 -10.363281 0.921875 -10.515625 0.421875 -10.515625 L 0.25 -10.515625 L 0.25 -11.03125 L 4.859375 -11.03125 C 5.171875 -11.03125 5.523438 -11.007812 5.921875 -10.96875 C 6.328125 -10.925781 6.726562 -10.847656 7.125 -10.734375 C 7.53125 -10.617188 7.898438 -10.445312 8.234375 -10.21875 C 8.578125 -9.988281 8.851562 -9.6875 9.0625 -9.3125 C 9.269531 -8.945312 9.375 -8.492188 9.375 -7.953125 C 9.375 -7.367188 9.234375 -6.890625 8.953125 -6.515625 C 8.679688 -6.148438 8.335938 -5.863281 7.921875 -5.65625 C 7.503906 -5.445312 7.085938 -5.285156 6.671875 -5.171875 L 8.421875 -2.25 C 8.835938 -1.539062 9.222656 -1.066406 9.578125 -0.828125 C 9.941406 -0.597656 10.242188 -0.460938 10.484375 -0.421875 L 10.484375 0 C 10.398438 0.0390625 10.242188 0.078125 10.015625 0.109375 C 9.785156 0.148438 9.566406 0.171875 9.359375 0.171875 C 8.765625 0.171875 8.210938 -0.00390625 7.703125 -0.359375 C 7.203125 -0.710938 6.671875 -1.34375 6.109375 -2.25 Z M 6.109375 -2.25 "/></g></g></g></g></g></g><g clip-path="url(#f4930462a6)"><g transform="matrix(1, 0, 0, 1, 0.000000000000003553, 198)"><g clip-path="url(#52773f1f5a)"><g fill="#645958" fill-opacity="1"><g transform="translate(1.613918, 38.024775)"><g><path d="M 18.765625 -35.59375 L 30.84375 -6.796875 C 31.488281 -5.210938 32.28125 -3.953125 33.21875 -3.015625 C 34.15625 -2.085938 35.234375 -1.550781 36.453125 -1.40625 L 36.453125 -0.046875 C 36.160156 0.015625 35.753906 0.0703125 35.234375 0.125 C 34.710938 0.1875 34.253906 0.21875 33.859375 0.21875 C 32.671875 0.21875 31.421875 0.0664062 30.109375 -0.234375 C 28.796875 -0.546875 27.535156 -1.203125 26.328125 -2.203125 C 25.128906 -3.210938 24.097656 -4.742188 23.234375 -6.796875 L 22 -9.8125 L 7.65625 -9.8125 L 3.234375 0 L 0.4375 0 L 16.34375 -35.59375 Z M 15.046875 -26.3125 L 8.796875 -12.234375 L 20.96875 -12.234375 Z M 15.046875 -26.3125 "/></g></g></g><g fill="#645958" fill-opacity="1"><g transform="translate(54.564825, 38.024775)"><g><path d="M 0.8125 -35.59375 L 23.40625 -35.59375 C 24.664062 -35.59375 25.617188 -35.382812 26.265625 -34.96875 C 26.910156 -34.550781 27.359375 -34.007812 27.609375 -33.34375 C 27.859375 -32.6875 27.984375 -32 27.984375 -31.28125 L 27.984375 -26.6875 L 26.375 -26.6875 C 26.375 -29.03125 25.785156 -30.691406 24.609375 -31.671875 C 23.441406 -32.660156 21.78125 -33.15625 19.625 -33.15625 L 12.125 -33.15625 L 12.125 -19.40625 L 24 -19.40625 L 24 -16.984375 L 12.125 -16.984375 L 12.125 0 L 5.125 0 L 5.125 -28.578125 C 5.125 -30.191406 4.898438 -31.492188 4.453125 -32.484375 C 4.003906 -33.472656 2.96875 -33.96875 1.34375 -33.96875 L 0.8125 -33.96875 Z M 0.8125 -35.59375 "/></g></g></g><g fill="#645958" fill-opacity="1"><g transform="translate(101.692613, 38.024775)"><g><path d="M 15.6875 -33.4375 C 14.46875 -33.4375 13.300781 -33.304688 12.1875 -33.046875 L 12.1875 -18.4375 L 15.421875 -18.4375 C 16.566406 -18.4375 17.695312 -18.671875 18.8125 -19.140625 C 19.925781 -19.609375 20.851562 -20.390625 21.59375 -21.484375 C 22.332031 -22.578125 22.703125 -24.0625 22.703125 -25.9375 C 22.703125 -27.800781 22.34375 -29.28125 21.625 -30.375 C 20.90625 -31.476562 20.003906 -32.265625 18.921875 -32.734375 C 17.847656 -33.203125 16.769531 -33.4375 15.6875 -33.4375 Z M 19.734375 -7.28125 L 14.34375 -16.28125 L 12.1875 -16.28125 L 12.1875 0 L 5.125 0 L 5.125 -28.578125 C 5.125 -30.191406 4.898438 -31.492188 4.453125 -32.484375 C 4.003906 -33.472656 2.96875 -33.96875 1.34375 -33.96875 L 0.8125 -33.96875 L 0.8125 -35.59375 L 15.6875 -35.59375 C 16.695312 -35.59375 17.847656 -35.53125 19.140625 -35.40625 C 20.429688 -35.28125 21.722656 -35.023438 23.015625 -34.640625 C 24.316406 -34.265625 25.515625 -33.707031 26.609375 -32.96875 C 27.703125 -32.238281 28.582031 -31.28125 29.25 -30.09375 C 29.914062 -28.90625 30.25 -27.429688 30.25 -25.671875 C 30.25 -23.796875 29.804688 -22.253906 28.921875 -21.046875 C 28.046875 -19.847656 26.929688 -18.914062 25.578125 -18.25 C 24.234375 -17.582031 22.878906 -17.070312 21.515625 -16.71875 L 27.171875 -7.28125 C 28.535156 -4.976562 29.789062 -3.445312 30.9375 -2.6875 C 32.09375 -1.9375 33.066406 -1.488281 33.859375 -1.34375 L 33.859375 0 C 33.578125 0.144531 33.066406 0.269531 32.328125 0.375 C 31.585938 0.488281 30.878906 0.546875 30.203125 0.546875 C 28.296875 0.546875 26.523438 -0.0195312 24.890625 -1.15625 C 23.253906 -2.289062 21.535156 -4.332031 19.734375 -7.28125 Z M 19.734375 -7.28125 "/></g></g></g><g fill="#645958" fill-opacity="1"><g transform="translate(152.972075, 38.024775)"><g><path d="M 4.265625 -7.015625 L 4.265625 -35.59375 L 11.265625 -35.59375 L 11.265625 -7.015625 C 11.265625 -5.390625 11.488281 -4.082031 11.9375 -3.09375 C 12.394531 -2.113281 13.429688 -1.625 15.046875 -1.625 L 15.578125 -1.625 L 15.578125 0 L 9.109375 0 C 7.242188 0 5.96875 -0.484375 5.28125 -1.453125 C 4.601562 -2.421875 4.265625 -4.273438 4.265625 -7.015625 Z M 4.265625 -7.015625 "/></g></g></g><g fill="#645958" fill-opacity="1"><g transform="translate(187.429228, 38.024775)"><g><path d="M 33.96875 -24.109375 L 32.359375 -24.109375 C 31.671875 -27.378906 30.414062 -29.882812 28.59375 -31.625 C 26.78125 -33.363281 24.382812 -34.234375 21.40625 -34.234375 C 19.21875 -34.234375 17.222656 -33.726562 15.421875 -32.71875 C 13.617188 -31.71875 12.1875 -29.984375 11.125 -27.515625 C 10.070312 -25.054688 9.546875 -21.632812 9.546875 -17.25 C 9.546875 -15.207031 9.757812 -13.234375 10.1875 -11.328125 C 10.625 -9.421875 11.316406 -7.710938 12.265625 -6.203125 C 13.222656 -4.691406 14.445312 -3.503906 15.9375 -2.640625 C 17.425781 -1.773438 19.25 -1.34375 21.40625 -1.34375 C 23.882812 -1.34375 26.179688 -2 28.296875 -3.3125 C 30.421875 -4.625 32.132812 -6.539062 33.4375 -9.0625 L 35.3125 -7.609375 C 33.625 -4.617188 31.554688 -2.421875 29.109375 -1.015625 C 26.671875 0.378906 23.566406 1.078125 19.796875 1.078125 C 16.015625 1.078125 12.789062 0.269531 10.125 -1.34375 C 7.46875 -2.96875 5.445312 -5.160156 4.0625 -7.921875 C 2.6875 -10.691406 2 -13.800781 2 -17.25 C 2 -19.988281 2.4375 -22.535156 3.3125 -24.890625 C 4.195312 -27.242188 5.445312 -29.300781 7.0625 -31.0625 C 8.675781 -32.820312 10.5625 -34.195312 12.71875 -35.1875 C 14.875 -36.175781 17.234375 -36.671875 19.796875 -36.671875 C 23.171875 -36.671875 25.890625 -36.226562 27.953125 -35.34375 C 30.023438 -34.46875 31.5625 -33.453125 32.5625 -32.296875 C 33.28125 -31.359375 33.691406 -30.148438 33.796875 -28.671875 C 33.910156 -27.203125 33.96875 -25.679688 33.96875 -24.109375 Z M 33.96875 -24.109375 "/></g></g></g><g fill="#645958" fill-opacity="1"><g transform="translate(242.105499, 38.024775)"><g><path d="M 18.765625 -35.59375 L 30.84375 -6.796875 C 31.488281 -5.210938 32.28125 -3.953125 33.21875 -3.015625 C 34.15625 -2.085938 35.234375 -1.550781 36.453125 -1.40625 L 36.453125 -0.046875 C 36.160156 0.015625 35.753906 0.0703125 35.234375 0.125 C 34.710938 0.1875 34.253906 0.21875 33.859375 0.21875 C 32.671875 0.21875 31.421875 0.0664062 30.109375 -0.234375 C 28.796875 -0.546875 27.535156 -1.203125 26.328125 -2.203125 C 25.128906 -3.210938 24.097656 -4.742188 23.234375 -6.796875 L 22 -9.8125 L 7.65625 -9.8125 L 3.234375 0 L 0.4375 0 L 16.34375 -35.59375 Z M 15.046875 -26.3125 L 8.796875 -12.234375 L 20.96875 -12.234375 Z M 15.046875 -26.3125 "/></g></g></g><g fill="#645958" fill-opacity="1"><g transform="translate(295.056406, 38.024775)"><g><path d="M 12.078125 -32.359375 L 30.625 -10.78125 L 30.625 -35.59375 L 33.328125 -35.59375 L 33.328125 0.15625 L 30.84375 0.15625 L 7.984375 -26.6875 L 7.984375 0 L 5.28125 0 L 5.28125 -29.125 C 5.28125 -30.488281 4.945312 -31.632812 4.28125 -32.5625 C 3.625 -33.5 2.34375 -33.96875 0.4375 -33.96875 L 0.15625 -33.96875 L 0.15625 -35.59375 L 3.9375 -35.59375 C 5.988281 -35.59375 7.648438 -35.320312 8.921875 -34.78125 C 10.203125 -34.238281 11.253906 -33.429688 12.078125 -32.359375 Z M 12.078125 -32.359375 "/></g></g></g></g></g></g></g></g></svg>