<svg xmlns="http://www.w3.org/2000/svg" xmlns:xlink="http://www.w3.org/1999/xlink" width="1344" zoomAndPan="magnify" viewBox="0 0 1008 1295.99994" height="1728" preserveAspectRatio="xMidYMid meet" version="1.0"><defs><g/><clipPath id="b849696364"><path d="M 0.441406 0.0390625 L 981.800781 0.0390625 L 981.800781 501 L 0.441406 501 Z M 0.441406 0.0390625 " clip-rule="nonzero"/></clipPath><clipPath id="b0224055e3"><rect x="0" width="982" y="0" height="501"/></clipPath><clipPath id="4bec341b83"><path d="M 5 589 L 977 589 L 977 994.839844 L 5 994.839844 Z M 5 589 " clip-rule="nonzero"/></clipPath><clipPath id="a3958e17b7"><rect x="0" width="972" y="0" height="406"/></clipPath><clipPath id="d51c3e95ed"><path d="M 220.730469 173.042969 L 760.699219 173.042969 L 760.699219 839.921875 L 220.730469 839.921875 Z M 220.730469 173.042969 " clip-rule="nonzero"/></clipPath><clipPath id="9d42a96805"><path d="M 1.335938 1.644531 L 522.140625 1.644531 L 522.140625 666.902344 L 1.335938 666.902344 Z M 1.335938 1.644531 " clip-rule="nonzero"/></clipPath><clipPath id="9203d59db8"><rect x="0" width="541" y="0" height="667"/></clipPath><clipPath id="c0a47318d9"><rect x="0" width="982" y="0" height="995"/></clipPath></defs><g transform="matrix(1, 0, 0, 1, 13, 119)"><g clip-path="url(#c0a47318d9)"><g clip-path="url(#b849696364)"><g transform="matrix(1, 0, 0, 1, -0.000000000000003553, 0.000000000000113687)"><g clip-path="url(#b0224055e3)"><g fill="#0097b2" fill-opacity="1"><g transform="translate(102.532324, 496.439422)"><g><path d="M -58.953125 -11.203125 L -94.796875 -15.421875 L -84.28125 -104.875 L -66.125 -103.03125 L -12.828125 -46.15625 L -9.84375 -71.5 L -27.28125 -73.5625 L -24.4375 -97.703125 L 11 -93.53125 L 0.40625 -3.40625 L -17.3125 -5.484375 L -70.9375 -62.125 L -73.953125 -36.484375 L -56.234375 -34.390625 Z M -58.953125 -11.203125 "/></g></g></g><g fill="#0097b2" fill-opacity="1"><g transform="translate(115.883028, 390.97302)"><g><path d="M -87.75 -38.875 L -70.9375 -79.15625 L -54.59375 -72.34375 L -57.453125 -65.5 L -30.09375 -54.0625 C -23.332031 -51.238281 -17.957031 -49.5625 -13.96875 -49.03125 C -9.976562 -48.507812 -6.945312 -48.9375 -4.875 -50.3125 C -2.8125 -51.6875 -1.21875 -53.722656 -0.09375 -56.421875 C 1 -59.035156 1.390625 -61.519531 1.078125 -63.875 C 0.773438 -66.238281 -0.925781 -68.6875 -4.03125 -71.21875 C -7.132812 -73.75 -12.316406 -76.535156 -19.578125 -79.578125 L -46.4375 -90.78125 L -49.296875 -83.953125 L -66.015625 -90.9375 L -50.359375 -128.421875 L -34.015625 -121.609375 L -36.875 -114.78125 L -6.09375 -101.921875 C 8.9375 -95.640625 18.664062 -87.953125 23.09375 -78.859375 C 27.53125 -69.773438 27.265625 -59.28125 22.296875 -47.375 C 16.554688 -34.800781 8.820312 -26.597656 -0.90625 -22.765625 C -10.632812 -18.941406 -22.679688 -20.03125 -37.046875 -26.03125 L -68.328125 -39.09375 L -71.28125 -32 Z M -87.75 -38.875 "/></g></g></g><g fill="#0097b2" fill-opacity="1"><g transform="translate(160.266101, 290.567811)"><g><path d="M -73.890625 -61.3125 L -47.390625 -95.65625 L -33.046875 -84.609375 L -37.5 -78.84375 L 9.671875 -42.453125 L 20.5 -56.484375 L 6.703125 -67.125 L 20.78125 -85.390625 L 49.046875 -63.59375 L 2.09375 -2.71875 L -12.375 -13.875 L -7.765625 -19.859375 L -54.9375 -56.25 L -59.546875 -50.265625 Z M -73.890625 -61.3125 "/></g></g></g><g fill="#0097b2" fill-opacity="1"><g transform="translate(216.844208, 217.244156)"><g><path d="M -56.609375 -77.5 L -21.921875 -104 L -11.171875 -89.9375 L -17.0625 -85.4375 L 0.9375 -61.859375 C 5.382812 -56.046875 9.203125 -51.914062 12.390625 -49.46875 C 15.585938 -47.019531 18.421875 -45.875 20.890625 -46.03125 C 23.367188 -46.1875 25.769531 -47.15625 28.09375 -48.9375 C 30.34375 -50.65625 31.925781 -52.609375 32.84375 -54.796875 C 33.769531 -56.992188 33.515625 -59.96875 32.078125 -63.71875 C 30.648438 -67.46875 27.550781 -72.46875 22.78125 -78.71875 L 5.109375 -101.859375 L -0.78125 -97.359375 L -11.78125 -111.75 L 20.5 -136.421875 L 31.25 -122.359375 L 25.375 -117.859375 L 45.625 -91.34375 C 55.507812 -78.394531 60.097656 -66.875 59.390625 -56.78125 C 58.691406 -46.695312 53.21875 -37.738281 42.96875 -29.90625 C 31.71875 -21.882812 20.925781 -18.644531 10.59375 -20.1875 C 0.257812 -21.726562 -9.628906 -28.679688 -19.078125 -41.046875 L -39.671875 -67.984375 L -45.78125 -63.3125 Z M -56.609375 -77.5 "/></g></g></g><g fill="#0097b2" fill-opacity="1"><g transform="translate(307.963547, 153.196607)"><g/></g></g><g fill="#0097b2" fill-opacity="1"><g transform="translate(345.484665, 129.180452)"><g><path d="M 36.828125 -39.21875 L 37.484375 -39.34375 C 37.378906 -40.34375 37.285156 -42.046875 37.203125 -44.453125 C 37.128906 -46.867188 37.097656 -49.757812 37.109375 -53.125 C 37.128906 -56.5 37.164062 -59.988281 37.21875 -63.59375 C 37.28125 -67.195312 37.289062 -70.679688 37.25 -74.046875 L 37.78125 -105.671875 L 65.765625 -111.390625 L 81.828125 -76.015625 C 83.710938 -71.828125 85.492188 -67.335938 87.171875 -62.546875 C 88.859375 -57.753906 90.234375 -53.691406 91.296875 -50.359375 L 91.96875 -50.5 C 91.707031 -52.59375 91.484375 -55.347656 91.296875 -58.765625 C 91.117188 -62.179688 90.988281 -65.582031 90.90625 -68.96875 C 90.820312 -72.363281 90.757812 -75.046875 90.71875 -77.015625 L 91.125 -98.375 L 83.734375 -96.859375 L 80.15625 -114.34375 L 118.625 -122.21875 L 122.203125 -104.734375 L 114.796875 -103.21875 L 110.421875 -22.59375 L 78.546875 -16.078125 L 63.921875 -46.4375 C 62.816406 -48.644531 61.601562 -51.363281 60.28125 -54.59375 C 58.96875 -57.820312 57.921875 -60.429688 57.140625 -62.421875 L 56.609375 -62.3125 C 56.703125 -60.925781 56.757812 -59.160156 56.78125 -57.015625 C 56.800781 -54.867188 56.816406 -52.722656 56.828125 -50.578125 C 56.847656 -48.441406 56.816406 -46.664062 56.734375 -45.25 L 55.140625 -11.28125 L 23.9375 -4.90625 L -9.46875 -77.78125 L -17 -76.234375 L -20.578125 -93.71875 L 23.8125 -102.8125 L 27.390625 -85.328125 L 19.578125 -83.734375 L 27.09375 -64.8125 C 27.789062 -63.269531 28.617188 -61.269531 29.578125 -58.8125 C 30.546875 -56.351562 31.507812 -53.796875 32.46875 -51.140625 C 33.4375 -48.492188 34.332031 -46.082031 35.15625 -43.90625 C 35.976562 -41.738281 36.535156 -40.175781 36.828125 -39.21875 Z M 36.828125 -39.21875 "/></g></g></g><g fill="#0097b2" fill-opacity="1"><g transform="translate(488.831984, 103.276163)"><g><path d="M 109.84375 15.46875 L 55.328125 7.796875 L 57.84375 -10.015625 L 70.765625 -8.203125 L 69.203125 -17.828125 L 41.328125 -21.765625 L 37.171875 -12.921875 L 47.78125 -11.4375 L 45.265625 6.375 L 2.046875 0.28125 L 4.5625 -17.53125 L 13.796875 -16.21875 L 40.546875 -73.3125 L 34.984375 -74.09375 L 37.453125 -91.625 L 89.65625 -84.265625 L 102.84375 -3.671875 L 112.359375 -2.34375 Z M 48.65625 -37.375 L 66.46875 -34.875 L 61.640625 -65.5 Z M 48.65625 -37.375 "/></g></g></g><g fill="#0097b2" fill-opacity="1"><g transform="translate(608.008718, 122.110406)"><g><path d="M 43.65625 -85.515625 L 84.09375 -66.671875 C 91.300781 -63.304688 96.859375 -59.90625 100.765625 -56.46875 C 104.671875 -53.03125 107.296875 -49.554688 108.640625 -46.046875 C 109.992188 -42.546875 110.410156 -39.046875 109.890625 -35.546875 C 109.367188 -32.054688 108.273438 -28.523438 106.609375 -24.953125 C 104.367188 -20.148438 100.773438 -16.929688 95.828125 -15.296875 C 90.878906 -13.671875 85.65625 -13.6875 80.15625 -15.34375 C 82.875 -13.582031 85.066406 -11.296875 86.734375 -8.484375 C 88.410156 -5.679688 89.421875 -2.660156 89.765625 0.578125 C 90.117188 3.828125 89.601562 6.945312 88.21875 9.9375 C 86.976562 12.582031 86.234375 14.757812 85.984375 16.46875 C 85.742188 18.1875 86.171875 19.296875 87.265625 19.796875 C 89.171875 20.691406 90.742188 19.804688 91.984375 17.140625 L 93.90625 13.03125 L 102.234375 16.90625 L 99.03125 23.765625 C 97.445312 27.160156 95.378906 30.128906 92.828125 32.671875 C 90.285156 35.222656 87.273438 36.820312 83.796875 37.46875 C 80.316406 38.113281 76.253906 37.351562 71.609375 35.1875 C 63.472656 31.394531 58.359375 26.539062 56.265625 20.625 C 54.179688 14.707031 54.84375 8.097656 58.25 0.796875 C 60.03125 -3.015625 61.113281 -6.039062 61.5 -8.28125 C 61.882812 -10.519531 61.390625 -12.441406 60.015625 -14.046875 C 58.648438 -15.648438 56.101562 -17.320312 52.375 -19.0625 L 43.375 0.234375 L 50.96875 3.765625 L 43.3125 20.1875 L 3.109375 1.453125 L 10.765625 -14.96875 L 17.734375 -11.71875 L 43.03125 -65.96875 L 36.0625 -69.21875 Z M 68.71875 -54.140625 L 58.875 -33 L 64.46875 -30.390625 C 68.125 -28.691406 71.421875 -28.1875 74.359375 -28.875 C 77.304688 -29.570312 79.550781 -31.578125 81.09375 -34.890625 C 82.800781 -38.546875 83.109375 -41.757812 82.015625 -44.53125 C 80.929688 -47.3125 78.570312 -49.550781 74.9375 -51.25 Z M 68.71875 -54.140625 "/></g></g></g><g fill="#0097b2" fill-opacity="1"><g transform="translate(706.610369, 169.361742)"><g><path d="M 65.75 -69.96875 L 99.328125 -40.609375 C 105.316406 -35.367188 109.707031 -30.550781 112.5 -26.15625 C 115.289062 -21.769531 116.847656 -17.707031 117.171875 -13.96875 C 117.492188 -10.226562 116.914062 -6.753906 115.4375 -3.546875 C 113.96875 -0.335938 111.9375 2.75 109.34375 5.71875 C 105.851562 9.707031 101.503906 11.796875 96.296875 11.984375 C 91.085938 12.179688 86.078125 10.71875 81.265625 7.59375 C 83.367188 10.039062 84.832031 12.84375 85.65625 16 C 86.488281 19.15625 86.617188 22.34375 86.046875 25.5625 C 85.484375 28.78125 84.117188 31.625 81.953125 34.09375 C 80.023438 36.300781 78.707031 38.191406 78 39.765625 C 77.300781 41.347656 77.398438 42.53125 78.296875 43.3125 C 79.878906 44.695312 81.632812 44.28125 83.5625 42.0625 L 86.546875 38.65625 L 93.46875 44.703125 L 88.5 50.390625 C 86.03125 53.210938 83.21875 55.492188 80.0625 57.234375 C 76.90625 58.972656 73.5625 59.664062 70.03125 59.3125 C 66.507812 58.96875 62.820312 57.109375 58.96875 53.734375 C 52.21875 47.835938 48.660156 41.753906 48.296875 35.484375 C 47.941406 29.210938 50.410156 23.046875 55.703125 16.984375 C 58.472656 13.816406 60.359375 11.207031 61.359375 9.15625 C 62.367188 7.113281 62.4375 5.128906 61.5625 3.203125 C 60.6875 1.285156 58.703125 -1.023438 55.609375 -3.734375 L 41.609375 12.296875 L 47.90625 17.8125 L 35.96875 31.453125 L 2.59375 2.265625 L 14.53125 -11.375 L 20.3125 -6.3125 L 59.703125 -51.359375 L 53.921875 -56.421875 Z M 81.09375 -32.859375 L 65.734375 -15.296875 L 70.375 -11.234375 C 73.40625 -8.578125 76.429688 -7.171875 79.453125 -7.015625 C 82.472656 -6.867188 85.1875 -8.171875 87.59375 -10.921875 C 90.25 -13.960938 91.445312 -16.960938 91.1875 -19.921875 C 90.925781 -22.890625 89.28125 -25.695312 86.25 -28.34375 Z M 81.09375 -32.859375 "/></g></g></g><g fill="#0097b2" fill-opacity="1"><g transform="translate(787.412856, 245.085716)"><g><path d="M 79.65625 -53.609375 L 106.4375 -16.734375 L 91.78125 -6.09375 L 86.78125 -12.984375 L 38.578125 22.03125 L 43.578125 28.921875 L 28.796875 39.65625 L 2.015625 2.78125 L 16.796875 -7.953125 L 21.875 -0.96875 L 70.078125 -35.984375 L 65 -42.96875 Z M 79.65625 -53.609375 "/></g></g></g><g fill="#0097b2" fill-opacity="1"><g transform="translate(825.486268, 294.725981)"><g><path d="M 17.84375 48.0625 C 14.101562 39.300781 12.476562 30.78125 12.96875 22.5 C 13.46875 14.226562 16.363281 6.675781 21.65625 -0.15625 C 26.945312 -6.988281 34.851562 -12.648438 45.375 -17.140625 C 54.46875 -21.015625 63.285156 -22.5625 71.828125 -21.78125 C 80.367188 -21 88 -18.085938 94.71875 -13.046875 C 101.445312 -8.015625 106.664062 -1.160156 110.375 7.515625 C 114.789062 17.859375 116.488281 27.203125 115.46875 35.546875 C 114.457031 43.890625 111.128906 51.179688 105.484375 57.421875 C 99.847656 63.660156 92.273438 68.8125 82.765625 72.875 C 73.253906 76.9375 64.332031 78.707031 56 78.1875 C 47.664062 77.664062 40.238281 74.890625 33.71875 69.859375 C 27.195312 64.835938 21.90625 57.570312 17.84375 48.0625 Z M 37.65625 39.609375 C 39.34375 43.566406 43.078125 45.675781 48.859375 45.9375 C 54.648438 46.195312 61.460938 44.65625 69.296875 41.3125 C 74.429688 39.125 78.851562 36.664062 82.5625 33.9375 C 86.269531 31.207031 88.929688 28.300781 90.546875 25.21875 C 92.171875 22.144531 92.28125 18.960938 90.875 15.671875 C 89.882812 13.117188 87.828125 11.335938 84.703125 10.328125 C 81.585938 9.316406 77.773438 9.125 73.265625 9.75 C 68.765625 10.382812 63.90625 11.816406 58.6875 14.046875 C 50.4375 17.566406 44.4375 21.695312 40.6875 26.4375 C 36.9375 31.175781 35.925781 35.566406 37.65625 39.609375 Z M 37.65625 39.609375 "/></g></g></g><g fill="#0097b2" fill-opacity="1"><g transform="translate(867.482174, 396.104994)"><g><path d="M 95.671875 -8.15625 L 101.046875 36.140625 C 102.003906 44.035156 102.054688 50.546875 101.203125 55.671875 C 100.347656 60.804688 98.789062 64.867188 96.53125 67.859375 C 94.269531 70.859375 91.519531 73.0625 88.28125 74.46875 C 85.039062 75.875 81.460938 76.816406 77.546875 77.296875 C 72.285156 77.929688 67.65625 76.578125 63.65625 73.234375 C 59.65625 69.898438 56.90625 65.460938 55.40625 59.921875 C 55.332031 63.160156 54.550781 66.226562 53.0625 69.125 C 51.570312 72.03125 49.539062 74.492188 46.96875 76.515625 C 44.394531 78.535156 41.476562 79.742188 38.21875 80.140625 C 35.3125 80.492188 33.066406 81.015625 31.484375 81.703125 C 29.910156 82.398438 29.195312 83.34375 29.34375 84.53125 C 29.59375 86.625 31.175781 87.492188 34.09375 87.140625 L 38.59375 86.59375 L 39.703125 95.703125 L 32.203125 96.609375 C 28.472656 97.066406 24.851562 96.882812 21.34375 96.0625 C 17.832031 95.25 14.882812 93.535156 12.5 90.921875 C 10.113281 88.316406 8.609375 84.472656 7.984375 79.390625 C 6.898438 70.484375 8.316406 63.578125 12.234375 58.671875 C 16.160156 53.765625 22.125 50.828125 30.125 49.859375 C 34.300781 49.347656 37.441406 48.664062 39.546875 47.8125 C 41.660156 46.957031 43.035156 45.523438 43.671875 43.515625 C 44.304688 41.503906 44.375 38.457031 43.875 34.375 L 22.75 36.9375 L 23.765625 45.25 L 5.765625 47.4375 L 0.421875 3.40625 L 18.421875 1.21875 L 19.34375 8.859375 L 78.75 1.65625 L 77.828125 -5.984375 Z M 82.296875 29.71875 L 59.125 32.515625 L 59.875 38.640625 C 60.351562 42.640625 61.664062 45.707031 63.8125 47.84375 C 65.96875 49.976562 68.859375 50.828125 72.484375 50.390625 C 76.484375 49.898438 79.375 48.460938 81.15625 46.078125 C 82.945312 43.703125 83.601562 40.515625 83.125 36.515625 Z M 82.296875 29.71875 "/></g></g></g></g></g></g><g clip-path="url(#4bec341b83)"><g transform="matrix(1, 0, 0, 1, 5, 589)"><g clip-path="url(#a3958e17b7)"><g fill="#0097b2" fill-opacity="1"><g transform="translate(25.349573, 38.59489)"><g><path d="M 30.078125 75.34375 L 21.671875 54.265625 L 30.75 46.140625 L 20.03125 19.296875 L 7.8125 19.546875 L -0.296875 -0.75 L 77.546875 1.046875 L 85.65625 21.359375 Z M 61.625 18.5 L 36.640625 19.03125 L 43.078125 35.171875 Z M 61.625 18.5 "/></g></g></g><g fill="#0097b2" fill-opacity="1"><g transform="translate(66.202007, 132.736057)"><g><path d="M 3.28125 5.0625 L 63.359375 -33.9375 L 93.625 12.671875 L 79.90625 21.5625 L 61.21875 -7.234375 L 49.21875 0.5625 L 66.578125 27.296875 L 52.875 36.203125 L 35.515625 9.46875 L 14.859375 22.875 Z M 3.28125 5.0625 "/></g></g></g><g fill="#0097b2" fill-opacity="1"><g transform="translate(114.028388, 203.486582)"><g><path d="M 49.953125 52.046875 L 33.25 34.640625 L 40.609375 14.40625 L 32.828125 6.3125 L 18.890625 19.6875 L 4.171875 4.34375 L 55.84375 -45.25 L 78.984375 -21.140625 C 85.628906 -14.210938 89.179688 -7.304688 89.640625 -0.421875 C 90.109375 6.453125 87.421875 12.691406 81.578125 18.296875 C 77.785156 21.929688 73.78125 24.332031 69.5625 25.5 C 65.351562 26.664062 61.09375 26.625 56.78125 25.375 Z M 58.78125 -18.59375 L 44.609375 -5 L 53.03125 3.765625 C 55.238281 6.078125 57.554688 7.269531 59.984375 7.34375 C 62.421875 7.425781 64.796875 6.359375 67.109375 4.140625 C 69.367188 1.972656 70.5 -0.316406 70.5 -2.734375 C 70.507812 -5.148438 69.410156 -7.515625 67.203125 -9.828125 Z M 58.78125 -18.59375 "/></g></g></g><g fill="#0097b2" fill-opacity="1"><g transform="translate(181.976307, 269.670076)"><g><path d="M 4.796875 3.65625 L 48.1875 -53.328125 L 65.09375 -40.453125 L 21.703125 16.53125 Z M 4.796875 3.65625 "/></g></g></g><g fill="#0097b2" fill-opacity="1"><g transform="translate(225.137201, 302.320783)"><g><path d="M 72.59375 -12.296875 C 72.050781 -16.015625 70.835938 -19.378906 68.953125 -22.390625 C 67.066406 -25.398438 64.835938 -27.601562 62.265625 -29 C 59.460938 -30.53125 56.53125 -31.195312 53.46875 -31 C 50.40625 -30.800781 47.523438 -29.789062 44.828125 -27.96875 C 42.128906 -26.144531 39.914062 -23.644531 38.1875 -20.46875 C 36.457031 -17.3125 35.554688 -14.101562 35.484375 -10.84375 C 35.410156 -7.582031 36.109375 -4.597656 37.578125 -1.890625 C 39.054688 0.804688 41.195312 2.921875 44 4.453125 C 46.394531 5.753906 49.3125 6.488281 52.75 6.65625 C 56.195312 6.832031 59.613281 6.375 63 5.28125 L 67.5 22.625 C 62.0625 24.476562 56.332031 25.195312 50.3125 24.78125 C 44.289062 24.375 38.921875 22.878906 34.203125 20.296875 C 27.921875 16.867188 23.03125 12.351562 19.53125 6.75 C 16.03125 1.15625 14.210938 -4.929688 14.078125 -11.515625 C 13.953125 -18.109375 15.582031 -24.515625 18.96875 -30.734375 C 22.300781 -36.835938 26.78125 -41.554688 32.40625 -44.890625 C 38.03125 -48.222656 44.175781 -49.890625 50.84375 -49.890625 C 57.519531 -49.898438 64.054688 -48.160156 70.453125 -44.671875 C 75.179688 -42.085938 79.347656 -38.488281 82.953125 -33.875 C 86.566406 -29.269531 89.03125 -24.390625 90.34375 -19.234375 Z M 72.59375 -12.296875 "/></g></g></g><g fill="#0097b2" fill-opacity="1"><g transform="translate(307.833528, 345.363769)"><g><path d="M 77.609375 23.609375 L 55.90625 17.015625 L 55.234375 4.859375 L 27.578125 -3.5625 L 20.140625 6.125 L -0.78125 -0.234375 L 49.296875 -59.859375 L 70.203125 -53.5 Z M 52.96875 -36.53125 L 37.75 -16.703125 L 54.375 -11.640625 Z M 52.96875 -36.53125 "/></g></g></g><g fill="#0097b2" fill-opacity="1"><g transform="translate(407.455927, 373.058818)"><g><path d="M 56.9375 -27.171875 L 60.15625 -67 L 79.5 -65.4375 L 73.734375 5.953125 L 55.703125 4.5 L 28.671875 -37.65625 L 25.46875 2.0625 L 6.015625 0.484375 L 11.78125 -70.90625 L 29.90625 -69.4375 Z M 56.9375 -27.171875 "/></g></g></g><g fill="#0097b2" fill-opacity="1"><g transform="translate(508.122126, 377.520505)"><g/></g></g><g fill="#0097b2" fill-opacity="1"><g transform="translate(555.608595, 373.657528)"><g><path d="M 5.90625 -1.234375 L -8.765625 -71.34375 L 12.03125 -75.703125 L 23.0625 -23 L 52.453125 -29.15625 L 56.09375 -11.75 Z M 5.90625 -1.234375 "/></g></g></g><g fill="#0097b2" fill-opacity="1"><g transform="translate(634.015112, 355.755345)"><g><path d="M 5.59375 -2.265625 L -21.328125 -68.640625 L 32.921875 -90.640625 L 39.0625 -75.5 L 4.5 -61.484375 L 8.734375 -51.046875 L 40.0625 -63.765625 L 46.203125 -48.625 L 14.875 -35.90625 L 19.140625 -25.390625 L 54.640625 -39.796875 L 60.78125 -24.65625 Z M 5.59375 -2.265625 "/></g></g></g><g fill="#0097b2" fill-opacity="1"><g transform="translate(719.033844, 319.351814)"><g><path d="M 67.46875 -45.046875 L 48.59375 -32.453125 L 38.78125 -39.640625 L 14.734375 -23.59375 L 17.5 -11.6875 L -0.671875 0.453125 L -15.03125 -76.078125 L 3.140625 -88.203125 Z M 5.34375 -64.125 L 11.03125 -39.78125 L 25.484375 -49.421875 Z M 5.34375 -64.125 "/></g></g></g><g fill="#0097b2" fill-opacity="1"><g transform="translate(803.488384, 259.871015)"><g><path d="M -25.421875 -76.6875 C -20.097656 -82.175781 -14.34375 -85.976562 -8.15625 -88.09375 C -1.976562 -90.21875 4.164062 -90.539062 10.28125 -89.0625 C 16.394531 -87.582031 21.992188 -84.378906 27.078125 -79.453125 C 32.160156 -74.523438 35.519531 -68.992188 37.15625 -62.859375 C 38.800781 -56.722656 38.625 -50.492188 36.625 -44.171875 C 34.632812 -37.859375 30.9375 -31.914062 25.53125 -26.34375 L 4.203125 -4.328125 L -47.234375 -54.171875 Z M 14.5 -38.890625 C 17.863281 -42.359375 19.335938 -46.375 18.921875 -50.9375 C 18.515625 -55.507812 16.253906 -59.785156 12.140625 -63.765625 C 8.035156 -67.742188 3.601562 -69.816406 -1.15625 -69.984375 C -5.925781 -70.148438 -10.09375 -68.398438 -13.65625 -64.734375 L -20.40625 -57.765625 L 7.03125 -31.1875 Z M 14.5 -38.890625 "/></g></g></g><g fill="#0097b2" fill-opacity="1"><g transform="translate(871.404623, 185.960786)"><g><path d="M 3.25 -5.078125 L -57.078125 -43.6875 L -25.515625 -93 L -11.75 -84.1875 L -31.859375 -52.78125 L -22.390625 -46.71875 L -4.171875 -75.1875 L 9.59375 -66.375 L -8.625 -37.90625 L 0.9375 -31.796875 L 21.59375 -64.0625 L 35.359375 -55.25 Z M 3.25 -5.078125 "/></g></g></g><g fill="#0097b2" fill-opacity="1"><g transform="translate(919.402129, 107.248406)"><g><path d="M 26.28125 -67.1875 L 17.5 -44.71875 L -3.953125 -42.90625 L -8.046875 -32.4375 L 9.9375 -25.40625 L 2.203125 -5.609375 L -64.5 -31.703125 L -52.328125 -62.8125 C -48.835938 -71.757812 -44.066406 -77.882812 -38.015625 -81.1875 C -31.960938 -84.488281 -25.164062 -84.664062 -17.625 -81.71875 C -12.726562 -79.800781 -8.867188 -77.175781 -6.046875 -73.84375 C -3.222656 -70.507812 -1.46875 -66.617188 -0.78125 -62.171875 Z M -41.546875 -45.546875 L -23.265625 -38.390625 L -18.828125 -49.703125 C -17.671875 -52.679688 -17.566406 -55.289062 -18.515625 -57.53125 C -19.472656 -59.78125 -21.441406 -61.484375 -24.421875 -62.640625 C -27.335938 -63.785156 -29.890625 -63.851562 -32.078125 -62.84375 C -34.273438 -61.832031 -35.953125 -59.835938 -37.109375 -56.859375 Z M -41.546875 -45.546875 "/></g></g></g></g></g></g><g clip-path="url(#d51c3e95ed)"><g transform="matrix(1, 0, 0, 1, 220, 173)"><g clip-path="url(#9203d59db8)"><g clip-path="url(#9d42a96805)"><path fill="#6fc83c" d="M 431.117188 153.578125 C 431.019531 153.496094 430.925781 153.414062 430.832031 153.328125 C 430.875 153.324219 430.921875 153.316406 430.964844 153.308594 C 431.015625 153.398438 431.066406 153.488281 431.117188 153.578125 Z M 209.140625 661.816406 C 216.574219 656.980469 222.785156 652.941406 228.222656 647.21875 C 234.242188 656.273438 241.371094 661.375 249.769531 662.703125 L 262.3125 664.683594 L 261.292969 652 C 261.144531 650.125 261.578125 646.96875 263.730469 641.695312 C 265.554688 644.144531 267.492188 647.320312 269.71875 651.792969 L 274.457031 661.316406 L 283.660156 656 C 292.167969 651.085938 295.761719 642.027344 297.8125 632.371094 C 307.03125 639.472656 314.417969 642.753906 320.867188 642.753906 C 322.875 642.753906 324.8125 642.4375 326.621094 641.8125 L 333.617188 639.398438 L 333.359375 631.992188 C 333.101562 624.484375 332.457031 618.25 331.882812 613.105469 C 335.890625 615.910156 340.15625 619.320312 344.65625 623.332031 L 359.550781 636.605469 L 361.261719 616.703125 C 362.21875 605.511719 361.148438 596.230469 359.089844 588.105469 C 363.792969 589.742188 369.210938 592.28125 375.488281 596.238281 L 392.480469 606.941406 L 390.773438 586.90625 C 389.398438 570.773438 387.808594 560.082031 385.191406 552.261719 C 385.796875 552.3125 386.414062 552.363281 387.03125 552.414062 C 390.289062 552.6875 393.652344 552.972656 397.144531 552.972656 C 403.480469 552.972656 412.949219 552.144531 421.984375 545.003906 L 428.210938 540.082031 L 424.84375 532.886719 C 419.121094 520.652344 408.328125 509.359375 395.394531 501.34375 C 399.894531 499.980469 404.433594 499.015625 409.101562 498.398438 L 426.484375 496.109375 L 415.667969 482.285156 C 408.359375 472.945312 394.570312 466.628906 378.558594 465.003906 C 378.929688 464.710938 388.953125 456.871094 388.953125 456.871094 L 380.074219 448.878906 C 372.480469 442.042969 356.796875 441.511719 352.171875 441.511719 C 340.8125 441.511719 329.523438 443.933594 319.613281 448.425781 C 319.253906 447.046875 318.878906 445.359375 318.515625 443.65625 C 332.105469 425.878906 341.824219 399.304688 337.308594 380.320312 C 340.171875 375.804688 342.667969 370.183594 344.8125 363.394531 C 348.28125 374.902344 351.078125 391.445312 349.84375 408.769531 L 348.472656 428.019531 L 364.976562 418.0625 C 365.941406 417.480469 366.894531 416.84375 367.832031 416.136719 C 368.929688 429.03125 372.148438 438.347656 377.519531 444.320312 C 382.011719 449.3125 387.941406 451.953125 394.660156 451.953125 C 399.0625 451.953125 403.683594 450.847656 408.664062 448.585938 C 414.054688 451.703125 420.320312 453.371094 426.882812 453.371094 C 439.089844 453.371094 450.203125 447.660156 456.605469 438.089844 C 461.285156 431.097656 463.109375 422.578125 462.0625 413.273438 C 470.707031 412.007812 479.40625 407.539062 484.089844 400.585938 C 496.464844 398.546875 503.484375 391.5 507.3125 385.484375 C 516.976562 370.292969 515.191406 348.042969 508.867188 331.039062 C 523.242188 301.363281 525.957031 274.664062 516.9375 251.621094 C 503.660156 217.703125 467.867188 198.65625 438.191406 186.960938 C 440.316406 180.820312 441.519531 173.171875 439.003906 165.484375 C 438.585938 164.199219 438.023438 162.8125 437.269531 161.382812 C 441.804688 165.4375 447.441406 167.707031 453.699219 167.707031 C 464.15625 167.707031 475.089844 161.566406 486.199219 149.460938 C 499.15625 135.335938 505.628906 120.191406 504.917969 105.667969 C 504.550781 98.144531 502.242188 90.980469 498.140625 84.449219 L 507.449219 80.472656 L 504.972656 71.941406 C 497.15625 45.042969 475.195312 26.246094 446.019531 20.484375 L 452.089844 9.539062 L 437.828125 7.394531 C 412.46875 3.582031 388.988281 1.648438 368.042969 1.648438 C 334.09375 1.648438 305.523438 6.550781 280.695312 16.625 C 261.980469 24.222656 245.492188 34.632812 229.308594 49.140625 C 227.257812 48.136719 225.175781 47.332031 222.980469 46.65625 L 248.304688 23.402344 L 230.640625 18.707031 C 211.425781 13.601562 193.085938 11.011719 176.125 11.011719 C 126.578125 11.011719 86.839844 32.632812 57.773438 75.347656 L 51.457031 63.070312 L 41.78125 74.292969 C 16.011719 104.203125 10.089844 129.164062 12.28125 151.34375 L 9.070312 148.867188 L 5.808594 164.492188 C 4.257812 171.953125 4.195312 180.003906 5.535156 188.089844 L 1.332031 186.1875 L 2.25 202.660156 C 4.714844 246.929688 22.753906 264.28125 35.648438 271.054688 C 34.839844 281.996094 36.054688 291.839844 36.675781 295.894531 C 35.195312 304.671875 31.011719 336.515625 43.980469 356.4375 C 33.957031 370.820312 28.988281 392.023438 38.457031 412.410156 C 38.160156 413.839844 37.753906 415.390625 37.332031 416.996094 C 35.644531 423.417969 33.277344 432.429688 36.890625 441.898438 C 33.835938 446.472656 32.109375 452.300781 32.050781 458.699219 C 31.984375 466.082031 34.148438 472.910156 38.089844 478.265625 C 34.859375 483.851562 31.949219 491.664062 33.320312 503.539062 C 35.253906 520.234375 48.289062 537.085938 73.050781 537.085938 C 75.695312 537.085938 78.472656 536.894531 81.328125 536.523438 L 84.273438 537 C 87.816406 537.578125 91.390625 538.167969 94.90625 538.707031 C 83.789062 545.695312 76.917969 556.175781 70.914062 565.320312 C 69.039062 568.183594 67.261719 570.886719 65.429688 573.394531 L 57.160156 584.710938 L 70.523438 588.882812 C 75.644531 590.476562 81.824219 591.289062 88.890625 591.289062 C 90.398438 591.289062 91.953125 591.253906 93.550781 591.179688 C 91.101562 596.808594 89.820312 602.765625 89.710938 609.019531 L 89.464844 623.09375 L 102.816406 618.714844 C 108.320312 616.910156 112.746094 615.175781 116.390625 613.625 C 115.84375 622.957031 116.785156 632.367188 120.164062 638.976562 L 124.953125 648.328125 L 134.050781 643.085938 C 139.355469 640.03125 144.171875 637.484375 148.535156 635.222656 C 149.6875 644.277344 151.71875 649.839844 155.074219 653.890625 L 159.777344 659.578125 L 166.589844 656.753906 C 174.777344 653.367188 181.640625 649.824219 187.773438 644.691406 C 189.574219 649.652344 192.074219 654.601562 195.707031 659.433594 L 201.316406 666.902344 L 209.140625 661.816406 " fill-opacity="1" fill-rule="evenodd"/></g><path fill="#100f0d" d="M 15.597656 166.542969 L 28.566406 176.546875 C 18.976562 149.515625 15.039062 120.65625 49.351562 80.839844 L 56.980469 95.65625 C 93.0625 31.273438 149.65625 7.546875 228.078125 28.386719 L 201.515625 52.78125 C 216.070312 54.882812 222.804688 55.828125 230.558594 61.632812 C 269.015625 24.75 321.226562 0 436.347656 17.300781 L 430.027344 28.710938 C 461.609375 29.84375 487.171875 46.511719 495.371094 74.742188 L 481.785156 80.550781 C 500.785156 97.574219 498.773438 120.945312 478.835938 142.679688 C 455.90625 167.675781 439.910156 157.890625 436.5625 139.15625 C 429.746094 147.328125 414.757812 144.484375 416.230469 129.015625 C 405.015625 135.078125 392.597656 125.089844 390.402344 110.964844 C 387.679688 114.367188 376.5 122.191406 368.394531 115.976562 C 352.210938 103.570312 350.253906 100.730469 337.265625 107.53125 C 349.367188 119.421875 376.617188 117.796875 381.730469 135.359375 C 400.976562 134.0625 419.285156 131.777344 416.425781 156.378906 C 436.257812 163.976562 431.121094 182.113281 424.441406 192.488281 C 476.777344 211.378906 541.261719 246.613281 497.898438 330.605469 C 508.226562 353.835938 508.1875 390.621094 477.425781 391.140625 C 475.570312 400.699219 459.125 406.773438 448.792969 401.90625 C 464.046875 439.121094 426.75 452.667969 409.476562 436.847656 C 380.75 454.035156 374.359375 425.445312 378.597656 384.570312 C 374.09375 394.175781 367.921875 404.59375 359.820312 409.480469 C 362.230469 375.601562 350.265625 338.960938 340.230469 338.640625 C 337.128906 357.597656 332.542969 371.222656 326.210938 378.558594 C 332.929688 393.488281 323.480469 422.851562 307.769531 441.019531 C 310.78125 456.023438 311.472656 457.875 317.355469 460.921875 C 339.898438 447.171875 367.644531 451.160156 373.398438 456.332031 C 365.828125 462.257812 358.5 468.214844 359.414062 475.394531 C 382.253906 472.140625 400.796875 479.511719 407.796875 488.464844 C 396.746094 489.921875 384.742188 493.296875 370.480469 501.269531 C 389.355469 506.261719 408.175781 520.867188 415.789062 537.140625 C 400.925781 548.890625 383.542969 538.308594 368.074219 543.402344 C 374.996094 549.753906 378.210938 557.261719 380.808594 587.753906 C 365.890625 578.355469 354.285156 575.542969 343.921875 575.1875 C 348.804688 586.335938 352.796875 598.375 351.296875 615.847656 C 339.71875 605.53125 329.699219 599.027344 321.046875 595.890625 C 319.894531 604.425781 322.746094 614.492188 323.367188 632.339844 C 316.949219 634.550781 305.746094 627.363281 290.796875 612.886719 C 288.664062 626.261719 287.847656 642.019531 278.667969 647.320312 C 271.667969 633.265625 266.304688 629.4375 260.859375 625.105469 C 252.953125 638.988281 250.871094 647.144531 251.328125 652.804688 C 242.5 651.410156 235.335938 642.609375 229.5625 627.671875 C 223.167969 640.585938 216.078125 645.359375 203.699219 653.414062 C 196.855469 644.304688 194.722656 634.484375 193.15625 622.886719 C 184.527344 636.945312 175.472656 642.242188 162.769531 647.496094 C 159.394531 643.417969 157.914062 634.617188 157.429688 619.167969 C 150.917969 622.984375 141.175781 627.417969 129.0625 634.40625 C 125.316406 627.089844 125.265625 611.300781 129.0625 597.636719 C 122.585938 598.863281 116.722656 603.609375 99.707031 609.195312 C 99.921875 596.78125 105.945312 586.679688 115.941406 578.148438 C 99.609375 581.453125 83.964844 582.582031 73.496094 579.316406 C 85.589844 562.78125 94.078125 540.160156 125.992188 540.828125 L 121.101562 530.835938 C 112.253906 531.660156 96.210938 528.777344 81.429688 526.386719 C 52.453125 530.863281 44.386719 512.148438 43.253906 502.382812 C 41.652344 488.546875 47.058594 482.769531 51.011719 476.875 C 39.027344 469.347656 39.699219 449.289062 49.214844 443.554688 C 40.414062 432.109375 47.863281 421.09375 48.820312 410.761719 C 37.683594 390.191406 45.59375 367.871094 56.980469 356.382812 C 38.359375 339.925781 46.824219 295.957031 46.824219 295.957031 C 46.824219 295.957031 43.804688 280.121094 46.484375 264.6875 C 30.257812 260.054688 14.449219 241.925781 12.230469 202.105469 L 22.21875 206.617188 C 15.25 193.335938 13.089844 178.570312 15.597656 166.542969 " fill-opacity="1" fill-rule="evenodd"/><path fill="#f9ab0e" d="M 327.964844 319.421875 C 328.175781 339.714844 325.257812 356.140625 317.453125 366.546875 C 306.886719 348.925781 282.859375 341.929688 258.097656 337.933594 C 171.285156 272.761719 120.96875 279.140625 56.980469 282.277344 C 56.285156 276.5625 57.898438 267.796875 65.382812 251.25 C 88.730469 223.523438 260.539062 229.761719 327.964844 319.421875 " fill-opacity="1" fill-rule="evenodd"/><path fill="#b6811c" d="M 327.964844 319.421875 C 328.117188 333.742188 326.703125 346.132812 323.117188 355.847656 C 268.105469 258.449219 157.519531 249.390625 60.621094 262.820312 C 61.835938 259.449219 63.40625 255.617188 65.382812 251.25 C 88.730469 223.523438 260.539062 229.761719 327.964844 319.421875 " fill-opacity="1" fill-rule="evenodd"/><path fill="#c86f27" d="M 68.164062 466.15625 C 56.230469 469.035156 55.457031 457.335938 57.085938 451.757812 C 60.203125 441.066406 72.300781 443.199219 78.824219 445.132812 C 100.582031 441.410156 112.535156 453.699219 133.105469 453.59375 C 144.179688 457.515625 148.429688 458.738281 150.429688 458.394531 C 146.964844 454.421875 145.097656 451.289062 148.945312 446.574219 L 133.09375 446.566406 C 118.542969 445.4375 104.441406 438.753906 91.035156 423.652344 L 77.390625 429.933594 L 66.320312 424.023438 C 72.089844 418.859375 74.847656 412.789062 74.8125 407.042969 C 49.800781 403.226562 58.542969 378.957031 76.652344 370.796875 C 79.359375 361.824219 84.789062 352.839844 95.09375 343.816406 C 87.871094 343.117188 85.898438 337.820312 88.457031 334.449219 C 84.949219 329.757812 89.773438 313.921875 84.398438 304.636719 C 83.480469 315.492188 76.855469 319.722656 82.554688 334.605469 C 72.339844 335.332031 66.941406 331.789062 64.84375 325.335938 C 62.730469 318.792969 67.054688 312.878906 70.746094 297.242188 C 70.746094 297.242188 94.378906 287.761719 98.785156 294.65625 C 96.472656 298.902344 94.726562 304.492188 96.9375 319.421875 C 104.9375 296.613281 111.878906 293.503906 118.707031 292.441406 C 175.59375 303.167969 189.484375 306.644531 210.253906 323.800781 C 220.007812 347.871094 224.59375 391.738281 172.9375 401.84375 C 216.851562 420.902344 211.875 449.347656 202.078125 478.722656 C 219.558594 469.226562 231.429688 451.550781 223.84375 405.539062 C 251.304688 396.027344 257.617188 373.441406 263.3125 350.464844 C 280.226562 350.179688 296.214844 358.285156 308.320312 375.234375 C 315.105469 397.386719 310.054688 430.410156 278.03125 447.527344 C 274.320312 437.886719 265.484375 431.585938 258.097656 426.757812 C 267.511719 449.714844 267.027344 460.398438 258.097656 468.742188 C 194.359375 517.984375 136.015625 518.300781 85.105469 512.375 C 46.410156 518.113281 54.953125 490.027344 67.425781 482.785156 C 80.03125 469.0625 107.976562 471.089844 140.164062 487.617188 C 137.984375 479.40625 129.269531 472.640625 133.433594 466.183594 C 94.808594 469.746094 89.824219 453.8125 68.164062 466.15625 " fill-opacity="1" fill-rule="evenodd"/><path fill="#8a511c" d="M 260.804688 360.152344 C 261.695312 356.953125 262.507812 353.714844 263.3125 350.464844 C 280.226562 350.179688 296.214844 358.285156 308.320312 375.234375 C 315.105469 397.386719 310.054688 430.410156 278.03125 447.527344 C 276.601562 443.808594 274.40625 440.582031 271.824219 437.75 C 279.15625 428.421875 309.390625 424.691406 300.050781 378.28125 C 296.941406 362.804688 270.953125 360.527344 260.804688 360.152344 " fill-opacity="1" fill-rule="evenodd"/><path fill="#c86f27" d="M 241.179688 501.636719 C 251.484375 501.910156 263.148438 510.800781 276.460938 530.097656 C 278.695312 520.402344 276.683594 504.191406 270.324219 481.3125 C 282.210938 475.394531 295.699219 481.011719 311.679688 504.59375 C 309.050781 506.234375 307.296875 509.378906 311.679688 523.078125 C 301.472656 522.28125 293.839844 528.679688 288.402344 541.1875 C 282.105469 540.320312 275.890625 540.398438 270.691406 551.90625 C 263.59375 548.644531 256.984375 549.519531 251.328125 558.558594 C 239.292969 550.40625 227.898438 552.671875 216.832031 560.40625 C 213.324219 531.683594 225.613281 515.371094 241.179688 501.636719 " fill-opacity="1" fill-rule="evenodd"/><path fill="#7cd4e7" d="M 42.589844 230.261719 C 34.542969 218.339844 28.917969 198.109375 25.835938 186.363281 L 41.328125 196.898438 C 28.566406 141.464844 33.269531 115.984375 45.753906 101.539062 L 48.089844 125.101562 C 104.816406 32.609375 167.917969 30.550781 201.800781 36.671875 C 190.605469 43.265625 180.007812 49.960938 176.027344 57.742188 C 195.242188 60.953125 211.738281 65.085938 216.230469 73.265625 C 208.292969 75.988281 199.546875 78.554688 180.242188 91.777344 C 166.722656 75.617188 159.570312 78.710938 148.675781 79.917969 C 161.539062 86.515625 168.21875 91.578125 164.257812 102.199219 C 149.199219 94.851562 139.003906 98.390625 125.4375 103.203125 C 135.328125 105.773438 144.058594 106.695312 142.171875 116.613281 C 128.902344 113.21875 114.628906 116.109375 96.109375 128.152344 L 115.925781 130.847656 C 80.460938 152.722656 60.476562 190.757812 69.921875 230.5 C 63.695312 232.839844 52.140625 237.4375 50.734375 250.675781 C 39.0625 251.585938 30.789062 239.507812 25.28125 216.855469 C 32.960938 227.046875 39.074219 232.546875 42.589844 230.261719 " fill-opacity="1" fill-rule="evenodd"/><path fill="#ee272f" d="M 232.167969 75.929688 C 275.066406 26.597656 378.277344 19.460938 413.179688 26.695312 L 405.984375 34.632812 C 445.878906 39.253906 469.824219 50.179688 478.476562 67.164062 L 457.449219 73.820312 C 485.152344 95.289062 488.121094 113.730469 471.835938 129.8125 C 453.15625 152.738281 444.402344 144.730469 441.953125 117.0625 C 434.484375 133.574219 427.496094 130.570312 420.929688 110.410156 C 410.058594 123.296875 400.601562 115.214844 391.601562 100.429688 C 385.09375 106.296875 377.726562 108.746094 367.808594 100.984375 C 358.351562 86.597656 335.339844 87.429688 313.882812 100.429688 C 293.160156 92.773438 273.464844 100.707031 244.960938 113.734375 C 256.621094 124.054688 285.132812 105.472656 289.304688 117.253906 C 270.234375 133.347656 230.148438 127.714844 202.355469 142.679688 C 229.4375 137.925781 230.46875 147.074219 246.070312 142.679688 C 207.003906 153.679688 208.773438 164.8125 179.476562 166.472656 C 183.824219 169.75 190.324219 172.945312 205.117188 175.828125 C 187.007812 184.179688 158.8125 197.390625 132.277344 193.296875 C 117.25 199.503906 115.804688 215.027344 113.265625 223.523438 C 106.980469 221.664062 96.847656 222.335938 81.722656 226.28125 C 73.28125 151.210938 232.167969 75.929688 232.167969 75.929688 " fill-opacity="1" fill-rule="evenodd"/><path fill="#3179af" d="M 141.222656 203.863281 C 174.601562 212.625 206.570312 183.914062 239.175781 176.09375 L 209.546875 166.957031 C 233.265625 156.585938 245.144531 152.046875 272.988281 151.175781 L 258.097656 142.679688 C 310.890625 126.132812 326.753906 103.449219 345.9375 136.921875 C 365.890625 120.015625 379.023438 148.167969 379.023438 148.167969 C 399.453125 140.199219 408.078125 146.660156 405.75 165.300781 C 405.75 165.300781 426.605469 171.449219 408.199219 194.128906 C 399.414062 215.285156 387.699219 220.324219 372.234375 204.65625 C 384.765625 190.246094 383.8125 179.832031 370.574219 173.058594 C 372.722656 197.683594 358.746094 220.789062 329.421875 215.597656 C 339.191406 204.871094 340.683594 187.308594 336.820312 178.046875 C 328.675781 206.253906 308.132812 220.601562 285.738281 214.464844 C 297.722656 210.765625 302.511719 192.832031 293.101562 175.828125 C 290.390625 198.894531 264.425781 190.144531 235.554688 211.550781 L 237.765625 191.910156 C 224.65625 218.644531 205.382812 208.179688 183.964844 223.328125 C 168.21875 224.925781 153.078125 216.179688 125.992188 219.628906 C 125.859375 211.820312 129.449219 205.835938 141.222656 203.863281 " fill-opacity="1" fill-rule="evenodd"/><path fill="#3eb7a4" d="M 226.148438 216.855469 L 223.890625 230.5 C 244.167969 214.921875 260.066406 213.882812 278.03125 207.078125 L 258.203125 223.523438 C 275.5625 227.667969 298.238281 231.328125 315.875 223.523438 C 330.050781 234.566406 351.84375 230.179688 361.851562 217.613281 C 386.734375 236.296875 407.109375 223.886719 417.054688 204.65625 C 503.378906 228.425781 502.15625 284.9375 481.785156 326.703125 C 494.65625 339.691406 496.984375 386.109375 468.691406 372.253906 C 467.640625 389.949219 454.867188 392.234375 440.847656 390.941406 C 451.789062 353.351562 441.210938 338.632812 427.570312 327.183594 C 430.917969 344.402344 435.222656 363.71875 415.949219 364.328125 C 373.050781 359.527344 419.023438 291.289062 371.128906 266.199219 C 374.554688 284.933594 373.6875 298.886719 363.378906 302.316406 C 359.324219 266.015625 348.054688 263.019531 337.371094 257.328125 C 341.691406 266.382812 344.457031 275.023438 337.925781 281.167969 C 317.457031 247.699219 310.207031 247.542969 301.402344 243.46875 C 311.628906 253.097656 315.355469 260.765625 311.679688 266.199219 C 282.285156 244.792969 255.351562 250.722656 255.351562 250.722656 C 242.484375 241.515625 215.878906 233.402344 201.800781 234.042969 C 205.804688 226.910156 214.046875 221.230469 226.148438 216.855469 " fill-opacity="1" fill-rule="evenodd"/><path fill="#5e1441" d="M 347.523438 308.613281 L 347.523438 288.5625 C 355.671875 299.132812 356.175781 309.550781 364.835938 332.238281 C 374.253906 328.417969 377.609375 310.445312 379.269531 296.792969 C 379.589844 293.605469 380.097656 302.476562 381.523438 340.222656 C 382.996094 379.183594 429.585938 391.988281 427.082031 373.210938 C 430.695312 375.160156 435.132812 375.429688 432.914062 401.90625 C 447.9375 421.269531 429.496094 432.660156 418.960938 427.4375 C 419.511719 415.492188 416.207031 410.023438 410.585938 408.457031 C 408.964844 418.714844 405.75 426.609375 397.761719 427.4375 C 376.316406 410.359375 409.167969 390.617188 376.921875 361.019531 L 371.089844 376.21875 C 370.058594 328.773438 353.957031 332.742188 344.765625 320.789062 C 333.042969 292.011719 308.601562 278.421875 293.117188 270.625 C 320.511719 280.21875 327.199219 272.722656 347.523438 308.613281 " fill-opacity="1" fill-rule="evenodd"/><path fill="#f4e290" d="M 299.5625 544.132812 C 314.832031 531.746094 333.921875 579.402344 342.589844 597.226562 C 318.835938 584.023438 292.773438 549.640625 299.5625 544.132812 " fill-opacity="1" fill-rule="evenodd"/><path fill="#f4e290" d="M 280.933594 554.90625 C 303.945312 544.398438 309.304688 591.746094 312.710938 619.167969 C 288.488281 592.460938 272.515625 560.816406 280.933594 554.90625 " fill-opacity="1" fill-rule="evenodd"/><path fill="#f4e290" d="M 320.523438 533.355469 C 340.914062 525.351562 363.953125 552.769531 369.679688 572.277344 C 340.316406 558.058594 312.210938 539.65625 320.523438 533.355469 " fill-opacity="1" fill-rule="evenodd"/><path fill="#f4e290" d="M 320.523438 511.804688 C 325.617188 494.375 396.808594 520.578125 399.15625 531.933594 C 370.695312 528.796875 318.351562 519.261719 320.523438 511.804688 " fill-opacity="1" fill-rule="evenodd"/><path fill="#f4e290" d="M 263.710938 567.019531 C 279.386719 558.28125 285.820312 595.015625 276.859375 628.746094 C 261.445312 598.976562 255.03125 571.859375 263.710938 567.019531 " fill-opacity="1" fill-rule="evenodd"/><path fill="#f4e290" d="M 359.808594 496.640625 C 347.75 498.359375 339.046875 496.074219 332.628906 491.046875 C 348.289062 483.269531 365.125 480.425781 383.617188 484.664062 C 374.96875 486.265625 366.175781 487.402344 359.808594 496.640625 " fill-opacity="1" fill-rule="evenodd"/><path fill="#f4e290" d="M 338.261719 479.03125 C 328.582031 482 321.183594 479.019531 320.792969 472.78125 C 322.328125 469.148438 337.414062 461.632812 354.867188 460.921875 C 346.636719 467.558594 343.441406 469.242188 338.261719 479.03125 " fill-opacity="1" fill-rule="evenodd"/><path fill="#f4e290" d="M 160.9375 576.0625 C 174.5625 569.753906 178.371094 573.511719 179.257812 576.859375 C 168.761719 595.683594 156.03125 610.257812 139.710938 617.972656 C 140.625 605.835938 141.300781 592.875 160.9375 576.0625 " fill-opacity="1" fill-rule="evenodd"/><path fill="#f4e290" d="M 239.808594 572.652344 C 258.214844 567.542969 256.472656 616.199219 247.339844 636.726562 C 233.34375 620.472656 231.761719 579.105469 239.808594 572.652344 " fill-opacity="1" fill-rule="evenodd"/><path fill="#f4e290" d="M 127.074219 549.324219 C 136.769531 551.046875 140.886719 554.644531 139.425781 560.09375 C 125.296875 564.628906 109.722656 564.625 89.628906 572.46875 C 95.707031 561.648438 104.9375 552.351562 127.074219 549.324219 " fill-opacity="1" fill-rule="evenodd"/><path fill="#f4e290" d="M 143.007812 567.28125 C 150.730469 566.246094 154.125 568.300781 154.5625 572.46875 C 133.019531 581.421875 117.429688 590.457031 109.546875 599.609375 C 113.699219 587.125 121.855469 575.617188 143.007812 567.28125 " fill-opacity="1" fill-rule="evenodd"/><path fill="#f4e290" d="M 188.820312 577.65625 C 197.867188 569.96875 205.144531 575.859375 202.363281 583.3125 C 196.21875 599.804688 188.246094 616.246094 168.503906 632.339844 C 166.261719 613.855469 173.601562 590.601562 188.820312 577.65625 " fill-opacity="1" fill-rule="evenodd"/><path fill="#f4e290" d="M 224.839844 609.050781 C 223.34375 618.839844 217.660156 628.019531 208.738281 636.726562 C 200.207031 625.175781 202.277344 594.242188 216.703125 574.472656 C 225.792969 569.894531 237.09375 565.421875 224.839844 609.050781 " fill-opacity="1" fill-rule="evenodd"/><path fill="#c9b867" d="M 263.710938 567.019531 C 268.082031 564.585938 271.730469 565.675781 274.535156 569.261719 C 273.308594 569.363281 272.011719 569.78125 270.644531 570.542969 C 263.023438 574.792969 267.03125 596.195312 278.546875 621.492188 C 278.058594 623.910156 277.5 626.335938 276.859375 628.746094 C 261.445312 598.976562 255.03125 571.859375 263.710938 567.019531 " fill-opacity="1" fill-rule="evenodd"/><path fill="#c9b867" d="M 299.5625 544.132812 C 303.773438 540.71875 308.269531 541.863281 312.761719 545.691406 C 310.628906 545.425781 308.527344 546.007812 306.5 547.660156 C 300.425781 552.582031 320.628906 580.609375 341.960938 595.921875 C 342.171875 596.375 342.386719 596.808594 342.589844 597.226562 C 318.835938 584.023438 292.773438 549.640625 299.5625 544.132812 " fill-opacity="1" fill-rule="evenodd"/><path fill="#c9b867" d="M 366.792969 570.863281 C 338.507812 556.863281 312.480469 539.449219 320.523438 533.355469 C 328.226562 530.332031 336.308594 532.363281 343.6875 537.109375 C 338.335938 535.117188 332.808594 534.78125 327.460938 536.882812 C 320.078125 542.472656 341.378906 557.589844 366.792969 570.863281 " fill-opacity="1" fill-rule="evenodd"/><path fill="#c9b867" d="M 327.460938 515.332031 C 327.207031 516.199219 327.691406 517.085938 328.785156 517.996094 C 323.1875 515.890625 319.953125 513.773438 320.523438 511.804688 C 324.4375 498.414062 367.386719 510.78125 388.128906 522.382812 C 366.007812 512.066406 330.976562 503.296875 327.460938 515.332031 " fill-opacity="1" fill-rule="evenodd"/><path fill="#c9b867" d="M 327.726562 476.304688 C 327.816406 477.742188 328.277344 479.011719 329.058594 480.066406 C 324.222656 479.480469 321.046875 476.808594 320.792969 472.78125 C 322.328125 469.148438 337.414062 461.632812 354.867188 460.921875 C 352.125 463.132812 349.945312 464.785156 348.0625 466.382812 C 337.023438 469.027344 328.835938 473.679688 327.726562 476.304688 " fill-opacity="1" fill-rule="evenodd"/><path fill="#c9b867" d="M 339.5625 494.574219 C 339.9375 494.871094 340.320312 495.152344 340.710938 495.421875 C 337.667969 494.386719 334.992188 492.902344 332.628906 491.046875 C 348.289062 483.269531 365.125 480.425781 383.617188 484.664062 C 380.960938 485.15625 378.285156 485.601562 375.679688 486.257812 C 362.898438 485.890625 350.921875 488.925781 339.5625 494.574219 " fill-opacity="1" fill-rule="evenodd"/><path fill="#c9b867" d="M 280.933594 554.90625 C 286.894531 552.191406 291.664062 553.34375 295.527344 557.03125 C 293.21875 556.734375 290.671875 557.152344 287.871094 558.433594 C 280.363281 563.699219 292.230469 589.402344 312.046875 613.835938 C 312.277344 615.675781 312.5 617.457031 312.710938 619.167969 C 300.992188 606.25 291.207031 592.175781 285.183594 580.421875 C 284.292969 577.601562 283.199219 575.214844 281.910156 573.382812 C 278.148438 564.25 277.441406 557.359375 280.933594 554.90625 " fill-opacity="1" fill-rule="evenodd"/><path fill="#c9b867" d="M 143.007812 567.28125 C 149.429688 566.417969 152.859375 567.695312 154.082031 570.550781 C 152.871094 570.511719 151.492188 570.597656 149.941406 570.808594 C 138.496094 575.3125 130.859375 580.753906 125.597656 586.773438 C 118.667969 591.023438 113.257812 595.304688 109.546875 599.609375 C 113.699219 587.125 121.855469 575.617188 143.007812 567.28125 " fill-opacity="1" fill-rule="evenodd"/><path fill="#c9b867" d="M 160.558594 576.386719 L 161.492188 576 L 161.476562 575.820312 C 173.789062 570.246094 177.847656 573.097656 179.042969 576.203125 C 176.367188 576.359375 172.75 577.328125 167.871094 579.585938 C 152.371094 592.855469 148.679688 603.730469 147.371094 613.6875 C 144.910156 615.289062 142.359375 616.71875 139.710938 617.972656 C 140.621094 605.917969 141.296875 593.039062 160.558594 576.386719 " fill-opacity="1" fill-rule="evenodd"/><path fill="#c9b867" d="M 127.074219 549.324219 C 132.277344 550.25 135.875 551.714844 137.863281 553.71875 C 136.695312 553.386719 135.40625 553.09375 134.011719 552.847656 C 117.242188 555.140625 107.875 561.035156 101.679688 568.460938 C 97.839844 569.53125 93.832031 570.828125 89.628906 572.46875 C 95.707031 561.648438 104.9375 552.351562 127.074219 549.324219 " fill-opacity="1" fill-rule="evenodd"/><path fill="#c9b867" d="M 229.597656 575.523438 C 227.683594 576.023438 225.609375 577.003906 223.640625 578 C 211.601562 594.480469 208.167969 618.722656 212.304688 633.03125 C 211.179688 634.269531 209.988281 635.503906 208.738281 636.726562 C 200.207031 625.175781 202.277344 594.242188 216.703125 574.472656 C 221.855469 571.878906 227.71875 569.316406 229.597656 575.523438 " fill-opacity="1" fill-rule="evenodd"/><path fill="#c9b867" d="M 186.191406 580.390625 C 186.171875 580.304688 186.148438 580.222656 186.121094 580.144531 C 186.992188 579.277344 187.894531 578.445312 188.820312 577.65625 C 195.335938 572.117188 200.941406 573.628906 202.523438 577.6875 C 200.5 578.027344 198.191406 579.109375 195.757812 581.1875 C 183 592.03125 175.785156 610.109375 175.097656 626.558594 C 173.054688 628.484375 170.863281 630.410156 168.503906 632.339844 C 167.253906 622.042969 168.980469 610.269531 173.382812 599.617188 C 176.511719 590.128906 181.285156 585.003906 186.191406 580.390625 " fill-opacity="1" fill-rule="evenodd"/><path fill="#c9b867" d="M 236.488281 578.914062 C 237.292969 575.972656 238.402344 573.78125 239.808594 572.652344 C 243.6875 571.578125 246.671875 572.882812 248.882812 575.820312 C 248.199219 575.851562 247.488281 575.972656 246.746094 576.179688 C 239.820312 581.730469 240.023438 613.09375 249.117188 632.113281 C 248.5625 633.765625 247.972656 635.316406 247.339844 636.726562 C 240.003906 628.203125 236.074219 612.773438 235.160156 599.097656 C 234.097656 582.832031 236.691406 580.8125 236.488281 578.914062 " fill-opacity="1" fill-rule="evenodd"/><path fill="#100f0d" d="M 176.808594 455.722656 L 175.167969 452.921875 L 175 452.542969 C 176.511719 453.683594 178.257812 454.703125 180.242188 455.574219 C 179.066406 455.703125 177.925781 455.753906 176.808594 455.722656 " fill-opacity="1" fill-rule="evenodd"/><path fill="#d99f5d" d="M 59.457031 447.261719 C 64.25 441.804688 73.4375 443.542969 78.824219 445.132812 C 100.582031 441.410156 112.535156 453.699219 133.105469 453.59375 C 140.570312 456.234375 144.925781 457.648438 147.585938 458.183594 L 131.578125 456.589844 C 97.1875 446.414062 86.671875 443.710938 76.832031 449.429688 C 72.269531 445.234375 64.589844 445.089844 56.753906 453.15625 C 56.800781 452.921875 56.847656 452.6875 56.902344 452.464844 L 59.457031 447.261719 " fill-opacity="1" fill-rule="evenodd"/><path fill="#d99f5d" d="M 147.585938 458.183594 L 150.082031 458.433594 C 149.46875 458.480469 148.660156 458.402344 147.585938 458.183594 " fill-opacity="1" fill-rule="evenodd"/><path fill="#8a511c" d="M 79.632812 501.820312 C 97.132812 507.652344 113.785156 513.136719 135.703125 509.652344 C 130.050781 509.15625 125.878906 508.777344 127.523438 499.960938 C 145.21875 513.808594 226.613281 483.972656 251.328125 466.050781 C 260.867188 459.128906 262.238281 445.113281 262.308594 438.285156 C 267.042969 453.585938 265.375 461.941406 258.097656 468.742188 C 194.359375 517.984375 136.015625 518.300781 85.105469 512.375 C 54.308594 516.941406 53.433594 500.085938 60.652344 489.359375 C 60.957031 500.992188 64.378906 511.554688 79.632812 501.820312 " fill-opacity="1" fill-rule="evenodd"/><path fill="#8a511c" d="M 69.253906 421.019531 L 75.386719 424.46875 C 82.433594 425.738281 87.53125 423.171875 92.296875 419.980469 C 106.570312 436.597656 125.332031 445.144531 149.367188 446.28125 C 149.128906 446.382812 148.894531 446.480469 148.652344 446.574219 L 133.09375 446.566406 C 118.542969 445.4375 104.441406 438.753906 91.035156 423.652344 L 77.390625 429.933594 L 66.320312 424.023438 C 67.402344 423.046875 68.382812 422.046875 69.253906 421.019531 " fill-opacity="1" fill-rule="evenodd"/><path fill="#8a511c" d="M 176.824219 455.742188 L 176.789062 455.71875 L 176.808594 455.722656 Z M 176.824219 455.742188 " fill-opacity="1" fill-rule="evenodd"/><path fill="#8a511c" d="M 144.023438 394.230469 C 168.21875 405.707031 167.5 437.15625 175 452.542969 C 156.617188 439.042969 166.046875 408.3125 137.820312 396.4375 C 137.617188 382.765625 129.390625 378.300781 120.304688 378.28125 C 128.632812 375.320312 135.949219 377.597656 144.023438 394.230469 " fill-opacity="1" fill-rule="evenodd"/><path fill="#8a511c" d="M 118.707031 292.441406 C 175.59375 303.167969 189.484375 306.644531 210.253906 323.800781 C 217.441406 341.546875 221.828125 370.058594 202.925781 387.863281 C 198.550781 391.984375 189.859375 398.0625 178.539062 400.558594 C 185.730469 393.75 201.105469 375.203125 197.867188 343.308594 C 195.785156 322.734375 146.726562 308.316406 124.683594 305.816406 C 109.421875 304.082031 102.535156 308.949219 99.742188 312.097656 C 106.582031 295.902344 112.6875 293.375 118.707031 292.441406 " fill-opacity="1" fill-rule="evenodd"/><path fill="#8a511c" d="M 98.785156 294.65625 C 97 297.933594 95.554688 302.003906 96.003906 310.550781 L 91.835938 302.480469 C 82.335938 298.9375 74.066406 304.15625 66.261719 312.648438 C 67.511719 308.734375 69.183594 303.855469 70.746094 297.242188 C 70.746094 297.242188 94.378906 287.761719 98.785156 294.65625 " fill-opacity="1" fill-rule="evenodd"/><path fill="#8a511c" d="M 73.523438 393.835938 C 81.289062 392.367188 83.390625 388.792969 90.519531 389.003906 C 97.652344 389.214844 108.566406 398.046875 118.851562 398.046875 C 129.125 398.046875 129.0625 386.0625 129.0625 386.0625 L 136.265625 400.558594 L 160.601562 448.078125 C 160.601562 448.078125 135.632812 410.660156 107.097656 415.703125 C 94.683594 417.898438 82.984375 412.128906 82.984375 412.128906 C 84.539062 417.828125 83.296875 422.9375 76.71875 429.578125 L 66.320312 424.023438 C 72.089844 418.859375 74.847656 412.789062 74.8125 407.042969 C 62.355469 405.140625 58.273438 398.171875 59.542969 390.640625 C 62.929688 392.441406 68.546875 394.785156 73.523438 393.835938 " fill-opacity="1" fill-rule="evenodd"/><path fill="#100f0d" d="M 85.0625 397.558594 C 97.128906 388.453125 115.871094 411.234375 124.167969 401.90625 C 141.089844 382.886719 104.617188 382.023438 104.617188 382.023438 C 116.636719 376.253906 137.496094 374.566406 137.820312 396.4375 C 168.429688 409.3125 154.761719 444.363281 180.242188 455.574219 C 146.800781 459.203125 144.847656 402.296875 119.742188 410.484375 C 83.503906 413.65625 79.410156 401.824219 85.0625 397.558594 " fill-opacity="1" fill-rule="evenodd"/><path fill="#d99f5d" d="M 131.613281 356.382812 L 188.378906 346.355469 C 183.726562 365.882812 156.097656 355.4375 144.636719 360.582031 L 141.335938 360.84375 C 142.324219 366.089844 147.214844 369.738281 155.808594 371.867188 C 141.539062 376.292969 129.796875 373.507812 121.433594 361.121094 C 113.3125 362.8125 108.71875 365.90625 101.632812 369.664062 L 121.433594 352.304688 L 131.613281 356.382812 " fill-opacity="1" fill-rule="evenodd"/><path fill="#100f0d" d="M 113.84375 309.582031 C 109.019531 321.367188 105.992188 332.785156 119.371094 338.410156 C 145 335.085938 148.800781 314.820312 193.15625 326.585938 C 176.417969 329.417969 159.152344 332.433594 156.261719 339.515625 C 168.617188 341.25 177.378906 338.175781 192.402344 342.847656 C 178.582031 364.136719 153.851562 351.574219 145.28125 359.898438 C 144.253906 366.332031 147.90625 367.949219 158.109375 372.042969 C 142.1875 373.109375 132.871094 370.355469 124.167969 359.710938 C 117.597656 358.617188 108.074219 362.34375 100.558594 371.675781 C 100.5625 365.472656 106.320312 357.679688 113.472656 349.5 C 97.300781 325.707031 104.304688 317.15625 113.84375 309.582031 " fill-opacity="1" fill-rule="evenodd"/><path fill="#ffffff" d="M 167.253906 345.71875 C 151.703125 352.644531 134.34375 357.09375 129.0625 349.035156 C 138.671875 349.324219 149.820312 342.292969 167.253906 345.71875 " fill-opacity="1" fill-rule="evenodd"/><path fill="#c03e21" d="M 274.902344 293.453125 C 282 290.421875 286.390625 292.152344 285.605469 298.210938 C 284.824219 304.273438 292.867188 306.003906 297.132812 315.960938 C 301.394531 325.917969 289.847656 321.589844 274.902344 322.453125 C 259.964844 323.320312 261.328125 314.230469 264.785156 302.539062 C 268.242188 290.855469 274.902344 293.453125 274.902344 293.453125 " fill-opacity="1" fill-rule="evenodd"/><path fill="#c03f21" d="M 186.890625 250.722656 C 186.730469 246.972656 185.265625 244.066406 183.511719 241.910156 C 192.441406 243.53125 201.503906 245.558594 210.550781 248 C 210.160156 249.652344 209.96875 251.574219 210.21875 253.714844 C 211.085938 261.074219 214.542969 259.777344 211.085938 270.625 C 207.628906 281.476562 198.558594 279.253906 187.324219 270.625 C 176.089844 261.992188 187.324219 260.640625 186.890625 250.722656 " fill-opacity="1" fill-rule="evenodd"/><path fill="#c03e21" d="M 147.796875 260.585938 C 153.722656 257.058594 152.117188 259.933594 158.601562 260.585938 C 165.082031 261.234375 172.863281 268.996094 170.269531 270.738281 C 167.671875 272.484375 171.566406 269.949219 165.082031 273.820312 C 158.601562 277.683594 148.664062 280.769531 145.640625 273.820312 C 142.617188 266.859375 140.886719 264.699219 147.796875 260.585938 " fill-opacity="1" fill-rule="evenodd"/><path fill="#c03e21" d="M 218.109375 281.769531 C 224.160156 277.902344 233.097656 275.59375 235.824219 281.769531 C 239.28125 289.589844 243.171875 295.59375 241.070312 302.085938 C 238.964844 308.578125 234.53125 306.847656 226.324219 307.308594 C 218.109375 307.765625 219.839844 301.652344 212.0625 291.964844 C 204.289062 282.28125 212.0625 285.632812 218.109375 281.769531 " fill-opacity="1" fill-rule="evenodd"/><path fill="#c03f21" d="M 326.667969 317.726562 C 327.105469 318.292969 327.535156 318.851562 327.964844 319.421875 C 328.097656 331.988281 327.027344 343.070312 324.339844 352.160156 C 319.265625 345.820312 310.914062 333.511719 313.054688 323.40625 C 314.597656 316.101562 320.890625 316.039062 326.667969 317.726562 " fill-opacity="1" fill-rule="evenodd"/><path fill="#c03f21" d="M 260.34375 321.675781 C 271.574219 324.273438 275.03125 333.351562 275.03125 336.601562 C 275.03125 337.878906 274.832031 339.582031 274.589844 341.183594 C 269.226562 339.890625 263.679688 338.835938 258.097656 337.933594 C 252.542969 333.765625 247.140625 329.890625 241.871094 326.285156 C 246.855469 323.3125 253.984375 320.207031 260.34375 321.675781 " fill-opacity="1" fill-rule="evenodd"/><path fill="#c03f21" d="M 129.992188 236.6875 C 129.570312 239.527344 129.234375 243.03125 129.429688 246.355469 C 129.859375 253.714844 132.457031 250.683594 131.589844 261.503906 C 130.726562 272.328125 123.378906 265.832031 113.011719 263.238281 C 102.644531 260.640625 105.667969 257.609375 101.777344 252.417969 C 99.53125 249.414062 91.511719 244.679688 85.144531 241.214844 C 96.785156 238.152344 112.289062 236.535156 129.992188 236.6875 " fill-opacity="1" fill-rule="evenodd"/><path fill="#c03f21" d="M 70.492188 253.683594 L 70.632812 253.683594 C 76.03125 253.675781 80.734375 255.0625 79.746094 260.207031 C 77.582031 271.460938 76.71875 270.597656 73.265625 274.0625 C 71.785156 275.539062 70.625 278.601562 69.777344 281.621094 C 65.5625 281.835938 61.304688 282.0625 56.980469 282.277344 C 56.324219 276.910156 57.703125 268.863281 64.070312 254.222656 C 66.101562 253.925781 68.355469 253.699219 70.492188 253.683594 " fill-opacity="1" fill-rule="evenodd"/><path fill="#c03f21" d="M 118.628906 270.597656 C 124.234375 273.625 126.394531 278.535156 127.691406 281.480469 C 117.789062 280.59375 108.03125 280.382812 98.207031 280.527344 C 102.109375 276.804688 106.636719 272.9375 109.558594 271.894531 C 115.609375 269.734375 113.011719 267.566406 118.628906 270.597656 " fill-opacity="1" fill-rule="evenodd"/><path fill="#100f0d" d="M 262.523438 294.417969 C 262.523438 294.417969 262.523438 294.421875 262.519531 294.421875 C 262.304688 294.476562 262.523438 294.417969 262.523438 294.417969 " fill-opacity="1" fill-rule="evenodd"/><path fill="#100f0d" d="M 262.519531 294.421875 C 262.910156 294.328125 264.769531 293.863281 272.148438 291.992188 C 283.550781 289.105469 286.507812 286.878906 286.925781 292.644531 C 287.351562 298.410156 289.457031 301.429688 284.8125 301.609375 C 280.167969 301.789062 280.59375 302.699219 276.792969 301.609375 C 272.992188 300.523438 270.460938 301.609375 270.460938 301.609375 L 262.523438 304.332031 C 262.523438 304.332031 255.023438 301.429688 262.519531 294.421875 " fill-opacity="1" fill-rule="evenodd"/><path fill="#100f0d" d="M 294.097656 307.332031 C 294.097656 307.332031 297.308594 312.785156 298.027344 317.019531 C 298.746094 321.25 306.597656 324.085938 298.027344 322.671875 C 289.457031 321.25 288.613281 322.519531 287.769531 318.292969 C 286.925781 314.058594 287.769531 307.332031 287.769531 307.332031 C 287.769531 307.332031 289.882812 304.414062 294.097656 307.332031 " fill-opacity="1" fill-rule="evenodd"/><path fill="#100f0d" d="M 318.167969 314.902344 C 318.605469 315.078125 319.335938 315.410156 320.144531 315.839844 C 320.25 316.332031 320.324219 316.855469 320.3125 317.441406 L 318.167969 314.902344 " fill-opacity="1" fill-rule="evenodd"/><path fill="#100f0d" d="M 320.144531 315.839844 C 319.335938 315.410156 318.605469 315.078125 318.167969 314.902344 L 320.3125 317.441406 C 320.324219 316.855469 320.25 316.332031 320.144531 315.839844 C 322.726562 317.214844 326.035156 319.644531 322.527344 321.464844 C 319.1875 323.195312 314.789062 319.839844 314.316406 325.511719 C 314.261719 326.203125 314.417969 326.929688 314.527344 327.609375 C 315.566406 334.128906 320.820312 339.335938 322.296875 345.84375 C 322.785156 347.988281 323.484375 352.269531 320.238281 352.574219 C 316.902344 352.886719 314.429688 347.8125 312.917969 345.480469 C 308.238281 338.234375 303.800781 323.773438 308.386719 315.542969 C 311.226562 310.441406 318.960938 310.386719 320.144531 315.839844 " fill-opacity="1" fill-rule="evenodd"/><path fill="#100f0d" d="M 247.820312 322.886719 C 248.171875 322.65625 248.574219 322.453125 249.03125 322.3125 L 247.820312 322.886719 " fill-opacity="1" fill-rule="evenodd"/><path fill="#100f0d" d="M 247.820312 322.886719 C 247.636719 323.007812 247.46875 323.136719 247.320312 323.269531 C 247.152344 323.300781 246.988281 323.335938 246.820312 323.363281 L 247.820312 322.886719 " fill-opacity="1" fill-rule="evenodd"/><path fill="#100f0d" d="M 247.320312 323.269531 C 256.242188 321.605469 266.121094 315.335938 272.058594 325.699219 C 273.132812 327.578125 274.628906 331.429688 273.613281 333.613281 C 272.820312 335.304688 270.605469 334.824219 269.367188 334.085938 C 266.339844 332.289062 266.035156 327.617188 262.691406 326.3125 C 258.152344 324.542969 253.703125 328.195312 248.929688 327.292969 C 245.9375 326.734375 245.808594 324.640625 247.320312 323.269531 " fill-opacity="1" fill-rule="evenodd"/><path fill="#100f0d" d="M 277.855469 308.894531 C 277.523438 308.730469 277.207031 308.601562 276.894531 308.496094 C 276.855469 308.378906 276.820312 308.257812 276.792969 308.132812 L 277.855469 308.894531 " fill-opacity="1" fill-rule="evenodd"/><path fill="#100f0d" d="M 276.894531 308.496094 C 277.617188 310.671875 280.597656 311.613281 281.453125 313.808594 C 283.410156 318.859375 277.113281 319.304688 274.023438 317.574219 C 268.558594 314.503906 270.96875 306.484375 276.894531 308.496094 " fill-opacity="1" fill-rule="evenodd"/><path fill="#100f0d" d="M 221.5 281.289062 L 217.6875 281.492188 C 222.460938 279.695312 232.722656 274.199219 237.859375 277.820312 C 241.300781 280.234375 241.246094 287.046875 241.296875 290.792969 C 241.324219 292.644531 243.394531 297.171875 242.300781 298.644531 C 240.664062 300.859375 238.75 299.589844 237.023438 298.09375 C 234.007812 295.46875 234.800781 289.179688 231.691406 287.3125 C 229.523438 286.015625 227.347656 287.929688 225.4375 288.910156 C 222.230469 290.546875 218.859375 291.019531 215.710938 288.902344 C 210.867188 285.632812 219.253906 281.527344 221.5 281.289062 " fill-opacity="1" fill-rule="evenodd"/><path fill="#100f0d" d="M 216.246094 298.6875 C 221.085938 294.132812 223.503906 302.089844 227.570312 303.5 C 228.613281 303.863281 236.125 304.054688 235.65625 305.613281 C 235.066406 307.566406 232.507812 307.746094 230.765625 307.910156 C 227.066406 308.25 220.882812 306.648438 217.753906 304.664062 C 216.140625 303.628906 214.609375 301.441406 215.527344 299.476562 L 214.734375 300.945312 C 214.890625 300.160156 215.671875 299.230469 216.246094 298.6875 " fill-opacity="1" fill-rule="evenodd"/><path fill="#100f0d" d="M 212.199219 256.109375 C 212.140625 256.109375 212.085938 256.113281 212.03125 256.113281 C 211.679688 256.023438 211.3125 255.949219 210.921875 255.90625 L 212.199219 256.109375 " fill-opacity="1" fill-rule="evenodd"/><path fill="#100f0d" d="M 212.03125 256.113281 C 221.558594 258.632812 216.847656 279.542969 207.578125 279.074219 C 198.171875 278.601562 207.3125 271.453125 207.820312 267.972656 C 208.503906 263.257812 204.820312 256.226562 212.03125 256.113281 " fill-opacity="1" fill-rule="evenodd"/><path fill="#100f0d" d="M 185.867188 247.414062 C 185.859375 247.417969 185.855469 247.425781 185.847656 247.429688 C 185.484375 247.367188 185.125 247.300781 184.757812 247.230469 L 185.867188 247.414062 " fill-opacity="1" fill-rule="evenodd"/><path fill="#100f0d" d="M 185.847656 247.429688 C 186.773438 247.589844 187.6875 247.742188 188.617188 247.996094 C 196.613281 250.175781 187.980469 258.980469 186.597656 261.859375 C 185.328125 264.492188 188.773438 269.238281 185.15625 269.742188 C 182.191406 270.15625 181.429688 266.316406 181.195312 264.132812 C 180.824219 260.644531 182.363281 249.417969 185.847656 247.429688 " fill-opacity="1" fill-rule="evenodd"/><path fill="#100f0d" d="M 198.496094 268.542969 L 198.269531 267.109375 C 201.824219 268.53125 201.738281 278.273438 196.578125 277.539062 C 188.28125 276.367188 193.648438 263.488281 198.496094 268.542969 " fill-opacity="1" fill-rule="evenodd"/><path fill="#100f0d" d="M 160.613281 259.191406 C 163.277344 260.789062 166.625 263.191406 166.035156 266.699219 C 165.769531 268.296875 163.519531 268.398438 162.371094 268.199219 C 159.550781 267.71875 157.40625 265.695312 154.714844 265.117188 C 152.789062 264.703125 151.160156 265.625 149.296875 265.5 C 148.28125 265.4375 147.605469 264.136719 147.484375 263.28125 L 145.074219 262.878906 C 148.609375 256.976562 154.652344 255.601562 160.613281 259.191406 " fill-opacity="1" fill-rule="evenodd"/><path fill="#100f0d" d="M 159.433594 276.132812 C 160.5625 276.027344 164.226562 274.199219 165.089844 275.152344 C 166.046875 276.207031 165.800781 277.261719 165.109375 278.378906 C 161.851562 283.597656 143.261719 282.855469 147.195312 273.703125 L 145.5 274.296875 C 148.957031 270.832031 154.980469 276.554688 159.433594 276.132812 " fill-opacity="1" fill-rule="evenodd"/><path fill="#100f0d" d="M 129.484375 242.996094 L 129.03125 242.148438 C 127.84375 248.109375 135.886719 255.609375 131.175781 260.789062 C 129.578125 262.546875 127.914062 261.425781 127.054688 259.671875 C 125.949219 257.40625 125.738281 254.867188 124.726562 252.582031 C 123.496094 249.792969 120.503906 246.226562 121.425781 242.957031 C 122.726562 238.34375 129.582031 236.519531 129.484375 242.996094 " fill-opacity="1" fill-rule="evenodd"/><path fill="#100f0d" d="M 104.875 250.40625 C 106.113281 252.699219 110.082031 255.285156 107.5 258.226562 C 102.902344 263.464844 97.109375 254.234375 94.867188 251.433594 C 93.738281 250.023438 91.710938 247.851562 92.207031 245.894531 L 89.773438 245.539062 C 97.050781 241.160156 101.257812 243.71875 104.875 250.40625 " fill-opacity="1" fill-rule="evenodd"/><path fill="#100f0d" d="M 115.476562 246.769531 C 120.242188 245.707031 122.445312 256.367188 119.242188 258.964844 C 117.121094 260.691406 114.859375 258.785156 113.742188 256.753906 C 112.101562 253.785156 112.066406 250.601562 113.835938 247.648438 L 115.476562 246.769531 " fill-opacity="1" fill-rule="evenodd"/><path fill="#100f0d" d="M 117.265625 267.078125 C 120.671875 268.078125 124.300781 269.914062 125.410156 273.566406 C 125.617188 274.25 126.332031 276.253906 125.648438 276.832031 C 124.199219 278.070312 120.058594 276.140625 118.453125 275.902344 C 115.699219 275.496094 105.203125 279.421875 108.292969 272.828125 L 106.238281 273.453125 C 108.90625 270.777344 112.789062 265.765625 117.265625 267.078125 " fill-opacity="1" fill-rule="evenodd"/><path fill="#100f0d" d="M 68.890625 252.835938 L 69.082031 254.417969 C 72.949219 253.648438 79.488281 253.660156 81.863281 257.71875 C 84.367188 262.007812 78.644531 272.828125 74.023438 274.003906 C 72.507812 274.386719 72.082031 272.378906 72.066406 271.339844 C 72.042969 269.234375 75.125 264.792969 74.492188 262.851562 C 73.960938 261.21875 62.574219 256.050781 68.890625 252.835938 " fill-opacity="1" fill-rule="evenodd"/><path fill="#100f0d" d="M 63.640625 269.246094 L 64.4375 268.375 C 65.691406 269.382812 66.472656 270.195312 66.859375 271.832031 C 67.082031 272.761719 67.25 273.773438 67.167969 274.730469 C 66.519531 282.320312 56.316406 270.8125 63.640625 269.246094 " fill-opacity="1" fill-rule="evenodd"/><path fill="#f25759" d="M 232.167969 75.929688 C 275.066406 26.597656 378.277344 19.460938 413.179688 26.695312 L 405.984375 34.632812 C 445.878906 39.253906 469.824219 50.179688 478.476562 67.164062 L 457.449219 73.820312 C 485.152344 95.289062 488.121094 113.730469 471.835938 129.8125 C 468.875 133.449219 466.164062 136.304688 463.6875 138.429688 C 479.503906 105.878906 474.75 89.347656 441.261719 75.132812 L 463.09375 61.277344 C 441.632812 44.136719 414.660156 41.945312 383.785156 50.34375 L 400.519531 31.386719 C 338.425781 25.492188 277.613281 42.46875 236.078125 88.980469 C 132.035156 121.039062 89.609375 189.511719 87.222656 224.941406 C 85.464844 225.335938 83.632812 225.78125 81.722656 226.28125 C 73.28125 151.210938 232.167969 75.929688 232.167969 75.929688 " fill-opacity="1" fill-rule="evenodd"/><path fill="#c1ebf3" d="M 42.589844 230.261719 C 34.542969 218.339844 28.917969 198.109375 25.835938 186.363281 L 41.328125 196.898438 C 28.566406 141.464844 33.269531 115.984375 45.753906 101.539062 L 48.089844 125.101562 C 104.816406 32.609375 167.917969 30.550781 201.800781 36.671875 C 190.605469 43.265625 180.007812 49.960938 176.027344 57.742188 C 195.242188 60.953125 211.738281 65.085938 216.230469 73.265625 C 211.691406 74.824219 206.890625 76.328125 200.003906 79.800781 C 181.492188 58.070312 156.683594 63.441406 130.089844 76.488281 L 134.597656 59.9375 C 127.28125 58.671875 120.453125 58.722656 94.035156 98.0625 L 93.535156 82.011719 C 86.410156 88.03125 79.453125 98.023438 73.003906 119.671875 L 70 107.59375 C 63.386719 111.195312 60.113281 122.703125 60.621094 143.21875 L 55.476562 132.683594 C 52.078125 135.492188 51.484375 148.738281 53.476562 171.597656 L 44.960938 154.757812 C 40.894531 173.351562 44.449219 190.253906 53.476562 205.933594 L 39.953125 203.925781 L 51.972656 223.523438 C 47.433594 230.511719 48.097656 233.421875 53.292969 242.546875 C 52 244.816406 51.074219 247.496094 50.734375 250.675781 C 39.0625 251.585938 30.789062 239.507812 25.28125 216.855469 C 32.960938 227.046875 39.074219 232.546875 42.589844 230.261719 " fill-opacity="1" fill-rule="evenodd"/><path fill="#204d70" d="M 385.503906 213.378906 C 394.648438 215.675781 402.125 208.75 408.199219 194.128906 C 426.605469 171.449219 405.75 165.300781 405.75 165.300781 C 408.078125 146.660156 399.453125 140.199219 379.023438 148.167969 C 379.023438 148.167969 365.890625 120.015625 345.9375 136.921875 C 326.753906 103.449219 310.890625 126.132812 258.097656 142.679688 L 272.988281 151.175781 C 245.144531 152.046875 233.265625 156.585938 209.546875 166.957031 L 239.175781 176.09375 C 206.570312 183.914062 174.601562 212.625 141.222656 203.863281 C 129.449219 205.835938 125.859375 211.820312 125.992188 219.628906 C 131.917969 218.875 137.269531 218.707031 142.183594 218.878906 C 145.515625 215.972656 150.789062 213.324219 158.925781 213.324219 C 176.910156 213.324219 239.382812 197.160156 241.996094 182.621094 C 244.429688 169.101562 266.179688 167.992188 270.890625 171.597656 L 262.851562 161.265625 C 287.730469 152.757812 299.632812 153.277344 308.820312 160.597656 L 298.160156 142.679688 C 311.070312 136.707031 324.027344 133.140625 337.464844 153.921875 C 357.21875 141.292969 368.234375 145.035156 375.441406 155.921875 C 391.917969 152.976562 397.429688 159.160156 395.425781 171.597656 C 402.578125 187.738281 396.257812 201.027344 385.503906 213.378906 " fill-opacity="1" fill-rule="evenodd"/><path fill="#2d847d" d="M 226.148438 216.855469 L 223.890625 230.5 C 244.167969 214.921875 260.066406 213.882812 278.03125 207.078125 L 258.203125 223.523438 C 275.5625 227.667969 298.238281 231.328125 315.875 223.523438 C 330.050781 234.566406 351.84375 230.179688 361.851562 217.613281 C 386.734375 236.296875 407.109375 223.886719 417.054688 204.65625 C 503.378906 228.425781 502.15625 284.9375 481.785156 326.703125 C 494.65625 339.691406 496.984375 386.109375 468.691406 372.253906 C 467.707031 388.804688 456.476562 391.871094 443.558594 391.144531 C 452.898438 384.34375 460.671875 374.648438 463.792969 356.382812 C 483.605469 348.296875 476.261719 336.316406 463.792969 323.605469 C 481.300781 279.121094 467.429688 245.484375 431.027344 219.628906 C 418.441406 242.117188 397.5 250.039062 364.339844 236.675781 C 351.371094 255.429688 336.109375 250.089844 320.074219 236.675781 C 305.726562 238.941406 282.679688 238.902344 251.328125 236.675781 L 244.765625 230.296875 C 239.257812 224.539062 229.792969 229.441406 219.644531 236.164062 C 212.929688 234.632812 206.628906 233.828125 201.800781 234.042969 C 205.804688 226.910156 214.046875 221.230469 226.148438 216.855469 " fill-opacity="1" fill-rule="evenodd"/><path fill="#d99f5d" d="M 268.34375 383.699219 C 274 375.398438 279.347656 371.035156 284.027344 375.316406 L 284.808594 382.910156 C 284.808594 382.910156 283.503906 395.480469 283.765625 398.355469 C 284.027344 401.238281 275.925781 418.257812 275.925781 418.257812 C 275.925781 418.257812 268.34375 417.996094 266.515625 413.285156 C 264.6875 408.570312 272.527344 390.503906 273.832031 385.265625 C 275.144531 380.027344 268.34375 383.699219 268.34375 383.699219 " fill-opacity="1" fill-rule="evenodd"/><path fill="#100f0d" d="M 263.4375 388.464844 C 299.011719 324.1875 303.738281 437.785156 268.308594 417.015625 C 268.351562 399.050781 289.199219 366.988281 263.4375 388.464844 " fill-opacity="1" fill-rule="evenodd"/><path fill="#8a511c" d="M 251.328125 551.09375 C 255.496094 542.671875 260.496094 540.8125 266.242188 544.925781 C 270.5625 535.417969 276.8125 532.53125 284.808594 535.664062 C 283.046875 519.613281 290.976562 516.628906 299.597656 514.578125 C 299.046875 504.398438 299.15625 496.085938 300.042969 490.070312 C 303.773438 493.832031 307.648438 498.644531 311.679688 504.59375 C 309.050781 506.234375 307.296875 509.378906 311.679688 523.078125 C 301.472656 522.28125 293.839844 528.679688 288.402344 541.1875 C 282.105469 540.320312 275.890625 540.398438 270.691406 551.90625 C 263.59375 548.644531 256.984375 549.519531 251.328125 558.558594 C 239.292969 550.40625 227.898438 552.671875 216.832031 560.40625 C 216.589844 558.417969 216.421875 556.488281 216.324219 554.617188 C 226.125 549.101562 237.3125 546.816406 251.328125 551.09375 " fill-opacity="1" fill-rule="evenodd"/><path fill="#8a511c" d="M 73.382812 458.449219 C 95.957031 452.539062 105.292969 462.019531 132.246094 466.289062 C 94.703125 469.414062 89.597656 453.9375 68.164062 466.15625 C 60.777344 467.941406 57.664062 464.128906 56.753906 459.648438 L 56.753906 458.882812 C 60.992188 462.136719 65.609375 464.40625 73.382812 458.449219 " fill-opacity="1" fill-rule="evenodd"/><path fill="#8a511c" d="M 56.753906 458.882812 L 56.617188 458.847656 C 56.597656 458.714844 56.578125 458.578125 56.566406 458.449219 L 56.753906 458.449219 L 56.753906 458.882812 " fill-opacity="1" fill-rule="evenodd"/><path fill="#100f0d" d="M 324.121094 330.253906 L 323.105469 328.101562 C 326.757812 331.242188 323.710938 340.695312 318.609375 335.445312 C 315.070312 331.804688 320.363281 325.546875 324.121094 330.253906 " fill-opacity="1" fill-rule="evenodd"/><path fill="#100f0d" d="M 258.890625 331.035156 L 258.886719 331.847656 C 261.03125 330.992188 262.960938 331.554688 264.460938 333.257812 C 265.734375 334.695312 265.90625 336.667969 263.871094 337.355469 C 261.601562 338.125 258.339844 337.515625 256.777344 335.578125 C 255.160156 333.574219 256.5 331.242188 258.890625 331.035156 " fill-opacity="1" fill-rule="evenodd"/><path fill="#100f0d" d="M 225.5 291.988281 L 225.785156 292.316406 C 227.898438 292.316406 230.070312 292.613281 231.804688 293.953125 C 233.945312 295.605469 230.867188 297.667969 229.269531 297.789062 C 227.445312 297.921875 225.296875 296.84375 224.40625 295.257812 C 223.824219 294.230469 224.128906 292.261719 225.5 291.988281 " fill-opacity="1" fill-rule="evenodd"/><path fill="#100f0d" d="M 204.039062 250.539062 C 203.863281 253.335938 201 258.007812 198.210938 253.980469 C 197.027344 252.269531 197.460938 249.621094 197.460938 247.675781 L 195.738281 247.585938 C 197.8125 244.140625 204.277344 246.667969 204.039062 250.539062 " fill-opacity="1" fill-rule="evenodd"/><path fill="#100f0d" d="M 69.347656 277.160156 L 68.257812 279.242188 C 68.542969 278.53125 68.941406 277.820312 69.347656 277.160156 " fill-opacity="1" fill-rule="evenodd"/><path fill="#100f0d" d="M 69.566406 276.742188 L 69.347656 277.160156 C 68.941406 277.820312 68.542969 278.53125 68.257812 279.242188 L 69.347656 277.160156 C 69.355469 277.144531 69.363281 277.128906 69.375 277.117188 C 70.859375 274.691406 73.492188 274.699219 74.214844 277.695312 C 74.722656 279.808594 73.957031 281.929688 72.492188 283.464844 C 70.71875 285.3125 67.199219 284.1875 66.773438 281.734375 C 66.4375 279.78125 68.203125 277.863281 69.566406 276.742188 " fill-opacity="1" fill-rule="evenodd"/><path fill="#100f0d" d="M 101.640625 233.324219 C 104.578125 232.59375 108.242188 232.253906 110.941406 233.910156 C 115.035156 236.414062 111.585938 243.539062 107.417969 243.285156 C 104.738281 243.128906 103.835938 240.898438 101.984375 239.390625 C 101.382812 238.90625 100.730469 238.457031 100.0625 238.019531 C 98.484375 236.351562 99.09375 233.964844 101.640625 233.324219 " fill-opacity="1" fill-rule="evenodd"/><path fill="#100f0d" d="M 100.441406 238.378906 L 96.261719 235.878906 C 97.527344 236.511719 98.832031 237.226562 100.0625 238.019531 C 100.175781 238.144531 100.300781 238.265625 100.441406 238.378906 " fill-opacity="1" fill-rule="evenodd"/><path fill="#100f0d" d="M 215.707031 246.394531 C 215.957031 249.078125 213.28125 252.753906 210.554688 253.035156 C 209.570312 253.140625 208.074219 251.292969 207.480469 250.6875 C 206.589844 249.789062 206.292969 248.585938 205.953125 247.414062 C 205.535156 245.972656 205.417969 244.386719 205.417969 242.890625 L 206.660156 243.808594 C 208.683594 242.1875 215.402344 243.148438 215.707031 246.394531 " fill-opacity="1" fill-rule="evenodd"/><path fill="#100f0d" d="M 278.652344 322.019531 C 280.710938 320.457031 285.109375 320.527344 287.527344 321.011719 L 288.480469 320.113281 C 292.613281 320.265625 296.617188 321.484375 295.847656 326.410156 C 295.71875 327.246094 295.519531 328.40625 294.828125 328.960938 C 291.976562 331.234375 285.582031 331.050781 282.128906 330.6875 C 277.886719 330.246094 274.40625 325.246094 278.652344 322.019531 " fill-opacity="1" fill-rule="evenodd"/></g></g></g></g></g></svg>