<svg xmlns="http://www.w3.org/2000/svg" xmlns:xlink="http://www.w3.org/1999/xlink" width="500" zoomAndPan="magnify" viewBox="0 0 375 374.999991" height="500" preserveAspectRatio="xMidYMid meet" version="1.0"><defs><g/><clipPath id="aa6d95dde3"><path d="M 0.535156 0.285156 L 109 0.285156 L 109 165.625 L 0.535156 165.625 Z M 0.535156 0.285156 " clip-rule="nonzero"/></clipPath><clipPath id="8227642245"><path d="M 102 46 L 281.71875 46 L 281.71875 93 L 102 93 Z M 102 46 " clip-rule="nonzero"/></clipPath><clipPath id="6b553c710c"><path d="M 0.199219 5 L 16 5 L 16 17 L 0.199219 17 Z M 0.199219 5 " clip-rule="nonzero"/></clipPath><clipPath id="03d4e2f873"><rect x="0" width="180" y="0" height="47"/></clipPath><clipPath id="c932ec9e36"><rect x="0" width="282" y="0" height="166"/></clipPath></defs><g transform="matrix(1, 0, 0, 1, 13, 83)"><g clip-path="url(#c932ec9e36)"><path fill="#d08a2b" d="M 34.761719 35.628906 C 37.234375 35.628906 39.246094 33.609375 39.246094 31.128906 C 39.246094 28.648438 37.234375 26.628906 34.761719 26.628906 C 32.285156 26.628906 30.273438 28.648438 30.273438 31.128906 C 30.273438 33.609375 32.285156 35.628906 34.761719 35.628906 Z M 34.761719 29.582031 C 35.609375 29.582031 36.300781 30.277344 36.300781 31.128906 C 36.300781 31.980469 35.609375 32.675781 34.761719 32.675781 C 33.910156 32.675781 33.21875 31.980469 33.21875 31.128906 C 33.21875 30.277344 33.910156 29.582031 34.761719 29.582031 Z M 34.761719 29.582031 " fill-opacity="1" fill-rule="nonzero"/><g clip-path="url(#aa6d95dde3)"><path fill="#d08a2b" d="M 107.8125 155.6875 C 100.890625 139.980469 40.171875 2.207031 39.738281 1.335938 C 39.375 0.617188 38.503906 0.328125 37.777344 0.675781 C 37.578125 0.773438 37.417969 0.914062 37.289062 1.078125 C 37.261719 1.101562 37.226562 1.109375 37.199219 1.132812 C 36.417969 1.863281 18.019531 19.082031 15.34375 24.664062 C 14.734375 25.9375 14.332031 27.074219 14.027344 28.203125 C 8.601562 28.835938 2.972656 29.527344 1.851562 29.664062 C 1.128906 29.75 0.582031 30.351562 0.558594 31.082031 C 0.535156 31.808594 1.042969 32.445312 1.757812 32.582031 L 13.664062 34.832031 C 13.871094 36.230469 14.234375 37.703125 14.78125 39.285156 C 14.910156 39.832031 15.050781 41.925781 15.195312 44.15625 C 15.945312 55.550781 17.507812 79.261719 26.675781 91.984375 C 28.390625 94.367188 31.101562 97.972656 34.378906 102.269531 L 24.820312 112.035156 C 24.742188 112.113281 24.703125 112.210938 24.648438 112.296875 L 15.855469 112.296875 C 15.039062 112.296875 14.382812 112.957031 14.382812 113.777344 C 14.382812 114.59375 15.039062 115.253906 15.855469 115.253906 L 34.15625 115.253906 C 34.972656 115.253906 35.628906 114.59375 35.628906 113.777344 C 35.628906 112.957031 34.972656 112.296875 34.15625 112.296875 L 28.691406 112.296875 L 36.195312 104.636719 C 39.753906 109.277344 43.847656 114.558594 48.054688 119.953125 C 45.601562 122.488281 43.261719 125.175781 41.113281 127.960938 C 40.988281 128.121094 40.902344 128.296875 40.855469 128.484375 L 31.960938 128.484375 C 31.148438 128.484375 30.488281 129.144531 30.488281 129.960938 C 30.488281 130.777344 31.148438 131.4375 31.960938 131.4375 L 50.261719 131.4375 C 51.078125 131.4375 51.738281 130.777344 51.738281 129.960938 C 51.738281 129.144531 51.078125 128.484375 50.261719 128.484375 L 44.496094 128.484375 C 46.207031 126.351562 48.003906 124.28125 49.894531 122.3125 C 63.265625 139.421875 77.101562 156.785156 77.894531 157.316406 C 81.199219 159.535156 90.871094 165.585938 97.882812 165.585938 C 99.554688 165.585938 101.070312 165.242188 102.316406 164.425781 C 109.417969 159.761719 107.988281 156.070312 107.8125 155.6875 Z M 34.332031 23.109375 C 38.742188 23.109375 42.332031 26.707031 42.332031 31.128906 C 42.332031 35.550781 38.742188 39.148438 34.332031 39.148438 C 29.917969 39.148438 26.328125 35.550781 26.328125 31.128906 C 26.328125 26.707031 29.917969 23.109375 34.332031 23.109375 Z M 34.332031 42.101562 C 40.367188 42.101562 45.277344 37.179688 45.277344 31.128906 C 45.277344 25.078125 40.367188 20.15625 34.332031 20.15625 C 29.714844 20.15625 25.777344 23.042969 24.167969 27.101562 C 23.972656 27.117188 23.761719 27.136719 23.503906 27.160156 C 23.902344 26.121094 25.203125 23.761719 29.527344 19.691406 C 33.480469 15.96875 38.105469 11.800781 40.285156 9.847656 C 42.617188 15.121094 46.082031 22.980469 50.222656 32.363281 C 47.742188 35.175781 37.34375 48.953125 46.511719 73.722656 C 47.949219 77.597656 49.957031 82.238281 52.34375 87.34375 L 28.652344 46.921875 L 33.707031 42.039062 C 33.917969 42.050781 34.117188 42.101562 34.332031 42.101562 Z M 18 25.941406 C 19.875 22.03125 32.003906 10.109375 37.921875 4.503906 C 38.21875 5.175781 38.589844 6.011719 39.03125 7.007812 C 37.324219 8.53125 31.992188 13.3125 27.507812 17.535156 C 21.652344 23.046875 20.523438 26.117188 20.378906 27.480469 C 19.402344 27.585938 18.335938 27.703125 17.199219 27.832031 C 17.417969 27.234375 17.679688 26.613281 18 25.941406 Z M 23.484375 30.121094 C 23.453125 30.460938 23.382812 30.785156 23.382812 31.128906 C 23.382812 32.027344 23.519531 32.890625 23.726562 33.730469 L 11.6875 31.453125 C 16.589844 30.871094 21.214844 30.339844 23.484375 30.121094 Z M 24.582031 36.898438 C 24.675781 36.914062 24.765625 36.921875 24.855469 36.921875 C 24.925781 36.921875 24.984375 36.898438 25.050781 36.886719 C 26.269531 38.851562 28.070312 40.410156 30.234375 41.289062 L 25.769531 45.601562 C 25.277344 46.078125 25.175781 46.824219 25.519531 47.414062 L 92.398438 161.515625 C 90.191406 160.765625 87.808594 159.691406 85.445312 158.433594 C 85.414062 158.335938 85.402344 158.234375 85.351562 158.144531 C 84.804688 157.175781 30.554688 61.300781 22.667969 48.476562 C 19.4375 43.230469 17.492188 38.9375 16.753906 35.414062 Z M 29.066406 90.253906 C 21.140625 79.253906 19.144531 58.289062 18.339844 46.929688 C 18.898438 47.929688 19.492188 48.953125 20.15625 50.03125 C 27.082031 61.285156 69.96875 136.964844 80.460938 155.488281 C 80.207031 155.324219 79.945312 155.160156 79.699219 154.996094 C 78.082031 153.320312 40.253906 105.777344 29.066406 90.253906 Z M 96.273438 162.492188 C 96.242188 162.328125 96.195312 162.164062 96.105469 162.007812 L 95.109375 160.308594 C 89.140625 150.097656 58.117188 96.574219 49.277344 72.695312 C 41.542969 51.804688 48.511719 39.453125 51.558594 35.394531 C 53.46875 39.726562 55.503906 44.339844 57.621094 49.144531 C 57.363281 49.382812 57.207031 49.71875 57.207031 50.121094 C 57.175781 50.253906 57.097656 50.488281 56.996094 50.820312 C 51.921875 67.023438 55.550781 80.148438 59.484375 88.308594 C 68.269531 106.515625 96.550781 155.390625 100.433594 162.085938 C 99.40625 162.636719 97.96875 162.738281 96.273438 162.492188 Z M 102.832031 160.335938 C 98.472656 152.816406 70.78125 104.933594 62.140625 87.023438 C 58.558594 79.59375 55.269531 67.769531 59.394531 53.164062 C 79.070312 97.777344 104.6875 155.90625 105.082031 156.800781 C 105.195312 157.222656 104.886719 158.527344 102.832031 160.335938 Z M 102.832031 160.335938 " fill-opacity="1" fill-rule="nonzero"/></g><g clip-path="url(#8227642245)"><g transform="matrix(1, 0, 0, 1, 102, 46)"><g clip-path="url(#03d4e2f873)"><g clip-path="url(#6b553c710c)"><g fill="#7b3911" fill-opacity="1"><g transform="translate(0.213144, 16.456142)"><g><path d="M 3.703125 0 L 0.5625 -11.03125 L 2.015625 -11.03125 L 4.625 -1.9375 L 7.375 -11.03125 L 8.625 -11.03125 L 11.375 -1.9375 L 14 -11.03125 L 15.453125 -11.03125 L 12.296875 0 L 10.640625 0 L 8 -8.484375 L 5.359375 0 Z M 3.703125 0 "/></g></g></g></g><g fill="#7b3911" fill-opacity="1"><g transform="translate(27.873558, 16.456142)"><g><path d="M 6.453125 0.15625 C 5.671875 0.15625 4.945312 0.0234375 4.28125 -0.234375 C 3.625 -0.492188 3.046875 -0.867188 2.546875 -1.359375 C 2.046875 -1.847656 1.65625 -2.441406 1.375 -3.140625 C 1.101562 -3.847656 0.96875 -4.644531 0.96875 -5.53125 C 0.96875 -6.40625 1.101562 -7.191406 1.375 -7.890625 C 1.65625 -8.585938 2.046875 -9.179688 2.546875 -9.671875 C 3.046875 -10.160156 3.625 -10.535156 4.28125 -10.796875 C 4.945312 -11.054688 5.671875 -11.1875 6.453125 -11.1875 C 7.222656 -11.1875 7.941406 -11.054688 8.609375 -10.796875 C 9.273438 -10.535156 9.851562 -10.160156 10.34375 -9.671875 C 10.84375 -9.179688 11.234375 -8.585938 11.515625 -7.890625 C 11.796875 -7.191406 11.9375 -6.40625 11.9375 -5.53125 C 11.9375 -4.644531 11.796875 -3.847656 11.515625 -3.140625 C 11.234375 -2.441406 10.84375 -1.847656 10.34375 -1.359375 C 9.851562 -0.867188 9.273438 -0.492188 8.609375 -0.234375 C 7.941406 0.0234375 7.222656 0.15625 6.453125 0.15625 Z M 6.453125 -1.171875 C 7.023438 -1.171875 7.554688 -1.265625 8.046875 -1.453125 C 8.546875 -1.648438 8.976562 -1.929688 9.34375 -2.296875 C 9.71875 -2.671875 10.007812 -3.128906 10.21875 -3.671875 C 10.425781 -4.210938 10.53125 -4.832031 10.53125 -5.53125 C 10.53125 -6.21875 10.425781 -6.828125 10.21875 -7.359375 C 10.007812 -7.890625 9.71875 -8.335938 9.34375 -8.703125 C 8.976562 -9.078125 8.546875 -9.359375 8.046875 -9.546875 C 7.554688 -9.742188 7.023438 -9.84375 6.453125 -9.84375 C 5.890625 -9.84375 5.359375 -9.742188 4.859375 -9.546875 C 4.359375 -9.359375 3.921875 -9.078125 3.546875 -8.703125 C 3.171875 -8.335938 2.878906 -7.890625 2.671875 -7.359375 C 2.460938 -6.828125 2.359375 -6.21875 2.359375 -5.53125 C 2.359375 -4.832031 2.460938 -4.210938 2.671875 -3.671875 C 2.878906 -3.128906 3.171875 -2.671875 3.546875 -2.296875 C 3.921875 -1.929688 4.359375 -1.648438 4.859375 -1.453125 C 5.359375 -1.265625 5.890625 -1.171875 6.453125 -1.171875 Z M 6.453125 -1.171875 "/></g></g></g><g fill="#7b3911" fill-opacity="1"><g transform="translate(52.430583, 16.456142)"><g><path d="M 6.453125 0.15625 C 5.671875 0.15625 4.945312 0.0234375 4.28125 -0.234375 C 3.625 -0.492188 3.046875 -0.867188 2.546875 -1.359375 C 2.046875 -1.847656 1.65625 -2.441406 1.375 -3.140625 C 1.101562 -3.847656 0.96875 -4.644531 0.96875 -5.53125 C 0.96875 -6.40625 1.101562 -7.191406 1.375 -7.890625 C 1.65625 -8.585938 2.046875 -9.179688 2.546875 -9.671875 C 3.046875 -10.160156 3.625 -10.535156 4.28125 -10.796875 C 4.945312 -11.054688 5.671875 -11.1875 6.453125 -11.1875 C 7.222656 -11.1875 7.941406 -11.054688 8.609375 -10.796875 C 9.273438 -10.535156 9.851562 -10.160156 10.34375 -9.671875 C 10.84375 -9.179688 11.234375 -8.585938 11.515625 -7.890625 C 11.796875 -7.191406 11.9375 -6.40625 11.9375 -5.53125 C 11.9375 -4.644531 11.796875 -3.847656 11.515625 -3.140625 C 11.234375 -2.441406 10.84375 -1.847656 10.34375 -1.359375 C 9.851562 -0.867188 9.273438 -0.492188 8.609375 -0.234375 C 7.941406 0.0234375 7.222656 0.15625 6.453125 0.15625 Z M 6.453125 -1.171875 C 7.023438 -1.171875 7.554688 -1.265625 8.046875 -1.453125 C 8.546875 -1.648438 8.976562 -1.929688 9.34375 -2.296875 C 9.71875 -2.671875 10.007812 -3.128906 10.21875 -3.671875 C 10.425781 -4.210938 10.53125 -4.832031 10.53125 -5.53125 C 10.53125 -6.21875 10.425781 -6.828125 10.21875 -7.359375 C 10.007812 -7.890625 9.71875 -8.335938 9.34375 -8.703125 C 8.976562 -9.078125 8.546875 -9.359375 8.046875 -9.546875 C 7.554688 -9.742188 7.023438 -9.84375 6.453125 -9.84375 C 5.890625 -9.84375 5.359375 -9.742188 4.859375 -9.546875 C 4.359375 -9.359375 3.921875 -9.078125 3.546875 -8.703125 C 3.171875 -8.335938 2.878906 -7.890625 2.671875 -7.359375 C 2.460938 -6.828125 2.359375 -6.21875 2.359375 -5.53125 C 2.359375 -4.832031 2.460938 -4.210938 2.671875 -3.671875 C 2.878906 -3.128906 3.171875 -2.671875 3.546875 -2.296875 C 3.921875 -1.929688 4.359375 -1.648438 4.859375 -1.453125 C 5.359375 -1.265625 5.890625 -1.171875 6.453125 -1.171875 Z M 6.453125 -1.171875 "/></g></g></g><g fill="#7b3911" fill-opacity="1"><g transform="translate(76.987609, 16.456142)"><g><path d="M 1.734375 0 L 1.734375 -11.03125 L 5.28125 -11.03125 C 6.125 -11.03125 6.863281 -10.894531 7.5 -10.625 C 8.144531 -10.351562 8.675781 -9.972656 9.09375 -9.484375 C 9.519531 -8.992188 9.835938 -8.410156 10.046875 -7.734375 C 10.265625 -7.066406 10.375 -6.332031 10.375 -5.53125 C 10.375 -4.71875 10.265625 -3.972656 10.046875 -3.296875 C 9.835938 -2.617188 9.519531 -2.035156 9.09375 -1.546875 C 8.675781 -1.054688 8.144531 -0.675781 7.5 -0.40625 C 6.863281 -0.132812 6.125 0 5.28125 0 Z M 3.140625 -1.28125 L 5.234375 -1.28125 C 6.066406 -1.28125 6.753906 -1.453125 7.296875 -1.796875 C 7.847656 -2.148438 8.253906 -2.644531 8.515625 -3.28125 C 8.785156 -3.914062 8.921875 -4.664062 8.921875 -5.53125 C 8.921875 -6.375 8.785156 -7.113281 8.515625 -7.75 C 8.253906 -8.382812 7.847656 -8.875 7.296875 -9.21875 C 6.753906 -9.570312 6.066406 -9.75 5.234375 -9.75 L 3.140625 -9.75 Z M 3.140625 -1.28125 "/></g></g></g><g fill="#7b3911" fill-opacity="1"><g transform="translate(0.213144, 41.540159)"><g><path d="M 7.90625 -10.375 C 8.695312 -9.863281 9.09375 -9.015625 9.09375 -7.828125 C 9.09375 -7.234375 9 -6.703125 8.8125 -6.234375 C 8.632812 -5.773438 8.351562 -5.398438 7.96875 -5.109375 C 7.34375 -4.554688 6.394531 -4.28125 5.125 -4.28125 L 3.140625 -4.28125 L 3.140625 0 L 1.734375 0 L 1.734375 -11.03125 L 5.125 -11.03125 C 6.351562 -11.03125 7.28125 -10.8125 7.90625 -10.375 Z M 7.09375 -6.109375 C 7.28125 -6.285156 7.421875 -6.507812 7.515625 -6.78125 C 7.609375 -7.050781 7.65625 -7.378906 7.65625 -7.765625 C 7.65625 -8.148438 7.601562 -8.46875 7.5 -8.71875 C 7.394531 -8.976562 7.253906 -9.179688 7.078125 -9.328125 C 6.835938 -9.523438 6.539062 -9.65625 6.1875 -9.71875 C 5.84375 -9.78125 5.425781 -9.8125 4.9375 -9.8125 L 3.140625 -9.8125 L 3.140625 -5.515625 L 4.9375 -5.515625 C 5.4375 -5.515625 5.863281 -5.554688 6.21875 -5.640625 C 6.582031 -5.734375 6.875 -5.890625 7.09375 -6.109375 Z M 7.09375 -6.109375 "/></g></g></g><g fill="#7b3911" fill-opacity="1"><g transform="translate(21.721647, 41.540159)"><g><path d="M 9.34375 0 L 7.703125 0 L 5.21875 -4.28125 L 3.140625 -4.28125 L 3.140625 0 L 1.734375 0 L 1.734375 -11.03125 L 5.125 -11.03125 C 6.351562 -11.03125 7.28125 -10.8125 7.90625 -10.375 C 8.695312 -9.863281 9.09375 -9.015625 9.09375 -7.828125 C 9.09375 -7.234375 9 -6.703125 8.8125 -6.234375 C 8.632812 -5.773438 8.351562 -5.398438 7.96875 -5.109375 C 7.789062 -4.953125 7.585938 -4.816406 7.359375 -4.703125 C 7.128906 -4.585938 6.875 -4.5 6.59375 -4.4375 Z M 3.140625 -9.8125 L 3.140625 -5.515625 L 4.9375 -5.515625 C 5.4375 -5.515625 5.863281 -5.554688 6.21875 -5.640625 C 6.582031 -5.734375 6.875 -5.890625 7.09375 -6.109375 C 7.28125 -6.285156 7.421875 -6.507812 7.515625 -6.78125 C 7.609375 -7.050781 7.65625 -7.378906 7.65625 -7.765625 C 7.65625 -8.148438 7.601562 -8.46875 7.5 -8.71875 C 7.394531 -8.976562 7.253906 -9.179688 7.078125 -9.328125 C 6.835938 -9.523438 6.539062 -9.65625 6.1875 -9.71875 C 5.84375 -9.78125 5.425781 -9.8125 4.9375 -9.8125 Z M 3.140625 -9.8125 "/></g></g></g><g fill="#7b3911" fill-opacity="1"><g transform="translate(43.590646, 41.540159)"><g><path d="M 6.453125 0.15625 C 5.671875 0.15625 4.945312 0.0234375 4.28125 -0.234375 C 3.625 -0.492188 3.046875 -0.867188 2.546875 -1.359375 C 2.046875 -1.847656 1.65625 -2.441406 1.375 -3.140625 C 1.101562 -3.847656 0.96875 -4.644531 0.96875 -5.53125 C 0.96875 -6.40625 1.101562 -7.191406 1.375 -7.890625 C 1.65625 -8.585938 2.046875 -9.179688 2.546875 -9.671875 C 3.046875 -10.160156 3.625 -10.535156 4.28125 -10.796875 C 4.945312 -11.054688 5.671875 -11.1875 6.453125 -11.1875 C 7.222656 -11.1875 7.941406 -11.054688 8.609375 -10.796875 C 9.273438 -10.535156 9.851562 -10.160156 10.34375 -9.671875 C 10.84375 -9.179688 11.234375 -8.585938 11.515625 -7.890625 C 11.796875 -7.191406 11.9375 -6.40625 11.9375 -5.53125 C 11.9375 -4.644531 11.796875 -3.847656 11.515625 -3.140625 C 11.234375 -2.441406 10.84375 -1.847656 10.34375 -1.359375 C 9.851562 -0.867188 9.273438 -0.492188 8.609375 -0.234375 C 7.941406 0.0234375 7.222656 0.15625 6.453125 0.15625 Z M 6.453125 -1.171875 C 7.023438 -1.171875 7.554688 -1.265625 8.046875 -1.453125 C 8.546875 -1.648438 8.976562 -1.929688 9.34375 -2.296875 C 9.71875 -2.671875 10.007812 -3.128906 10.21875 -3.671875 C 10.425781 -4.210938 10.53125 -4.832031 10.53125 -5.53125 C 10.53125 -6.21875 10.425781 -6.828125 10.21875 -7.359375 C 10.007812 -7.890625 9.71875 -8.335938 9.34375 -8.703125 C 8.976562 -9.078125 8.546875 -9.359375 8.046875 -9.546875 C 7.554688 -9.742188 7.023438 -9.84375 6.453125 -9.84375 C 5.890625 -9.84375 5.359375 -9.742188 4.859375 -9.546875 C 4.359375 -9.359375 3.921875 -9.078125 3.546875 -8.703125 C 3.171875 -8.335938 2.878906 -7.890625 2.671875 -7.359375 C 2.460938 -6.828125 2.359375 -6.21875 2.359375 -5.53125 C 2.359375 -4.832031 2.460938 -4.210938 2.671875 -3.671875 C 2.878906 -3.128906 3.171875 -2.671875 3.546875 -2.296875 C 3.921875 -1.929688 4.359375 -1.648438 4.859375 -1.453125 C 5.359375 -1.265625 5.890625 -1.171875 6.453125 -1.171875 Z M 6.453125 -1.171875 "/></g></g></g><g fill="#7b3911" fill-opacity="1"><g transform="translate(68.147671, 41.540159)"><g><path d="M 1.734375 0 L 1.734375 -11.03125 L 5.28125 -11.03125 C 6.125 -11.03125 6.863281 -10.894531 7.5 -10.625 C 8.144531 -10.351562 8.675781 -9.972656 9.09375 -9.484375 C 9.519531 -8.992188 9.835938 -8.410156 10.046875 -7.734375 C 10.265625 -7.066406 10.375 -6.332031 10.375 -5.53125 C 10.375 -4.71875 10.265625 -3.972656 10.046875 -3.296875 C 9.835938 -2.617188 9.519531 -2.035156 9.09375 -1.546875 C 8.675781 -1.054688 8.144531 -0.675781 7.5 -0.40625 C 6.863281 -0.132812 6.125 0 5.28125 0 Z M 3.140625 -1.28125 L 5.234375 -1.28125 C 6.066406 -1.28125 6.753906 -1.453125 7.296875 -1.796875 C 7.847656 -2.148438 8.253906 -2.644531 8.515625 -3.28125 C 8.785156 -3.914062 8.921875 -4.664062 8.921875 -5.53125 C 8.921875 -6.375 8.785156 -7.113281 8.515625 -7.75 C 8.253906 -8.382812 7.847656 -8.875 7.296875 -9.21875 C 6.753906 -9.570312 6.066406 -9.75 5.234375 -9.75 L 3.140625 -9.75 Z M 3.140625 -1.28125 "/></g></g></g><g fill="#7b3911" fill-opacity="1"><g transform="translate(91.18435, 41.540159)"><g><path d="M 5.515625 0.15625 C 4.941406 0.15625 4.410156 0.0703125 3.921875 -0.09375 C 3.441406 -0.269531 3.019531 -0.519531 2.65625 -0.84375 C 2.289062 -1.164062 2.003906 -1.5625 1.796875 -2.03125 C 1.597656 -2.507812 1.5 -3.050781 1.5 -3.65625 L 1.5 -11.03125 L 2.90625 -11.03125 L 2.90625 -3.859375 C 2.90625 -3.242188 3.019531 -2.734375 3.25 -2.328125 C 3.476562 -1.921875 3.789062 -1.617188 4.1875 -1.421875 C 4.582031 -1.222656 5.023438 -1.125 5.515625 -1.125 C 6.003906 -1.125 6.441406 -1.222656 6.828125 -1.421875 C 7.222656 -1.628906 7.539062 -1.929688 7.78125 -2.328125 C 8.019531 -2.734375 8.140625 -3.242188 8.140625 -3.859375 L 8.140625 -11.03125 L 9.53125 -11.03125 L 9.53125 -3.65625 C 9.53125 -3.050781 9.425781 -2.507812 9.21875 -2.03125 C 9.019531 -1.5625 8.738281 -1.164062 8.375 -0.84375 C 8.007812 -0.519531 7.582031 -0.269531 7.09375 -0.09375 C 6.601562 0.0703125 6.078125 0.15625 5.515625 0.15625 Z M 5.515625 0.15625 "/></g></g></g><g fill="#7b3911" fill-opacity="1"><g transform="translate(113.884053, 41.540159)"><g><path d="M 6.453125 0.15625 C 5.671875 0.15625 4.945312 0.0234375 4.28125 -0.234375 C 3.625 -0.492188 3.046875 -0.867188 2.546875 -1.359375 C 2.046875 -1.847656 1.65625 -2.441406 1.375 -3.140625 C 1.101562 -3.847656 0.96875 -4.644531 0.96875 -5.53125 C 0.96875 -6.40625 1.101562 -7.191406 1.375 -7.890625 C 1.65625 -8.585938 2.046875 -9.179688 2.546875 -9.671875 C 3.046875 -10.160156 3.625 -10.535156 4.28125 -10.796875 C 4.945312 -11.054688 5.671875 -11.1875 6.453125 -11.1875 C 7.179688 -11.1875 7.859375 -11.066406 8.484375 -10.828125 C 9.117188 -10.597656 9.679688 -10.265625 10.171875 -9.828125 C 10.660156 -9.390625 11.046875 -8.863281 11.328125 -8.25 L 10.03125 -7.71875 C 9.8125 -8.175781 9.519531 -8.5625 9.15625 -8.875 C 8.800781 -9.1875 8.394531 -9.425781 7.9375 -9.59375 C 7.476562 -9.757812 6.984375 -9.84375 6.453125 -9.84375 C 5.890625 -9.84375 5.359375 -9.742188 4.859375 -9.546875 C 4.359375 -9.359375 3.921875 -9.078125 3.546875 -8.703125 C 3.171875 -8.335938 2.878906 -7.890625 2.671875 -7.359375 C 2.460938 -6.828125 2.359375 -6.21875 2.359375 -5.53125 C 2.359375 -4.832031 2.460938 -4.210938 2.671875 -3.671875 C 2.878906 -3.140625 3.171875 -2.6875 3.546875 -2.3125 C 3.921875 -1.945312 4.359375 -1.664062 4.859375 -1.46875 C 5.359375 -1.28125 5.890625 -1.1875 6.453125 -1.1875 C 6.984375 -1.1875 7.476562 -1.265625 7.9375 -1.421875 C 8.394531 -1.585938 8.800781 -1.828125 9.15625 -2.140625 C 9.519531 -2.460938 9.8125 -2.851562 10.03125 -3.3125 L 11.328125 -2.78125 C 11.046875 -2.164062 10.660156 -1.640625 10.171875 -1.203125 C 9.679688 -0.765625 9.117188 -0.425781 8.484375 -0.1875 C 7.859375 0.0390625 7.179688 0.15625 6.453125 0.15625 Z M 6.453125 0.15625 "/></g></g></g><g fill="#7b3911" fill-opacity="1"><g transform="translate(137.547679, 41.540159)"><g><path d="M 7.5 -11.03125 L 7.5 -9.75 L 4.671875 -9.75 L 4.671875 0 L 3.28125 0 L 3.28125 -9.75 L 0.4375 -9.75 L 0.4375 -11.03125 Z M 7.5 -11.03125 "/></g></g></g><g fill="#7b3911" fill-opacity="1"><g transform="translate(157.143993, 41.540159)"><g><path d="M 5.140625 0.15625 C 4.378906 0.15625 3.695312 0.0390625 3.09375 -0.1875 C 2.488281 -0.425781 1.988281 -0.765625 1.59375 -1.203125 C 1.207031 -1.640625 0.953125 -2.164062 0.828125 -2.78125 L 2.203125 -3.109375 C 2.316406 -2.671875 2.507812 -2.296875 2.78125 -1.984375 C 3.0625 -1.679688 3.40625 -1.453125 3.8125 -1.296875 C 4.21875 -1.140625 4.671875 -1.0625 5.171875 -1.0625 C 5.484375 -1.0625 5.785156 -1.09375 6.078125 -1.15625 C 6.367188 -1.226562 6.628906 -1.335938 6.859375 -1.484375 C 7.097656 -1.628906 7.28125 -1.820312 7.40625 -2.0625 C 7.539062 -2.300781 7.609375 -2.597656 7.609375 -2.953125 C 7.597656 -3.296875 7.507812 -3.582031 7.34375 -3.8125 C 7.175781 -4.039062 6.945312 -4.234375 6.65625 -4.390625 C 6.375 -4.546875 6.050781 -4.675781 5.6875 -4.78125 C 5.332031 -4.894531 4.960938 -5.003906 4.578125 -5.109375 C 4.234375 -5.203125 3.894531 -5.300781 3.5625 -5.40625 C 3.238281 -5.519531 2.925781 -5.648438 2.625 -5.796875 C 2.332031 -5.941406 2.078125 -6.117188 1.859375 -6.328125 C 1.640625 -6.535156 1.46875 -6.785156 1.34375 -7.078125 C 1.21875 -7.367188 1.15625 -7.722656 1.15625 -8.140625 C 1.15625 -8.648438 1.25 -9.09375 1.4375 -9.46875 C 1.632812 -9.84375 1.90625 -10.160156 2.25 -10.421875 C 2.59375 -10.679688 2.984375 -10.875 3.421875 -11 C 3.859375 -11.125 4.320312 -11.1875 4.8125 -11.1875 C 5.300781 -11.1875 5.765625 -11.128906 6.203125 -11.015625 C 6.648438 -10.910156 7.050781 -10.75 7.40625 -10.53125 C 7.769531 -10.3125 8.078125 -10.035156 8.328125 -9.703125 C 8.585938 -9.367188 8.769531 -8.96875 8.875 -8.5 L 7.5625 -8.171875 C 7.445312 -8.578125 7.257812 -8.910156 7 -9.171875 C 6.738281 -9.441406 6.425781 -9.640625 6.0625 -9.765625 C 5.695312 -9.898438 5.296875 -9.96875 4.859375 -9.96875 C 4.578125 -9.96875 4.296875 -9.929688 4.015625 -9.859375 C 3.742188 -9.796875 3.5 -9.691406 3.28125 -9.546875 C 3.0625 -9.398438 2.882812 -9.210938 2.75 -8.984375 C 2.625 -8.753906 2.5625 -8.476562 2.5625 -8.15625 C 2.5625 -7.84375 2.632812 -7.582031 2.78125 -7.375 C 2.925781 -7.175781 3.125 -7.003906 3.375 -6.859375 C 3.625 -6.722656 3.90625 -6.601562 4.21875 -6.5 C 4.539062 -6.40625 4.882812 -6.3125 5.25 -6.21875 C 5.601562 -6.125 5.957031 -6.019531 6.3125 -5.90625 C 6.675781 -5.800781 7.019531 -5.671875 7.34375 -5.515625 C 7.675781 -5.359375 7.96875 -5.171875 8.21875 -4.953125 C 8.476562 -4.734375 8.679688 -4.460938 8.828125 -4.140625 C 8.972656 -3.816406 9.046875 -3.429688 9.046875 -2.984375 C 9.046875 -2.453125 8.941406 -1.988281 8.734375 -1.59375 C 8.535156 -1.207031 8.253906 -0.882812 7.890625 -0.625 C 7.535156 -0.363281 7.125 -0.164062 6.65625 -0.03125 C 6.1875 0.09375 5.679688 0.15625 5.140625 0.15625 Z M 5.140625 0.15625 "/></g></g></g></g></g></g></g></g></svg>