<svg xmlns="http://www.w3.org/2000/svg" xmlns:xlink="http://www.w3.org/1999/xlink" width="500" zoomAndPan="magnify" viewBox="0 0 375 374.999991" height="500" preserveAspectRatio="xMidYMid meet" version="1.0"><defs><g/><clipPath id="bd9084269f"><path d="M 82.171875 149 L 240.011719 149 L 240.011719 223.730469 L 82.171875 223.730469 Z M 82.171875 149 " clip-rule="nonzero"/></clipPath><clipPath id="00159ab79b"><path d="M 97 52.328125 L 226 52.328125 L 226 187 L 97 187 Z M 97 52.328125 " clip-rule="nonzero"/></clipPath><clipPath id="5e86131027"><path d="M 79 304 L 248 304 L 248 332.558594 L 79 332.558594 Z M 79 304 " clip-rule="nonzero"/></clipPath><clipPath id="35e6b23077"><path d="M 0.121094 6 L 15 6 L 15 21 L 0.121094 21 Z M 0.121094 6 " clip-rule="nonzero"/></clipPath><clipPath id="70d57b94f8"><rect x="0" width="169" y="0" height="29"/></clipPath><clipPath id="0b9cf813fd"><path d="M 0.160156 229 L 326.320312 229 L 326.320312 298 L 0.160156 298 Z M 0.160156 229 " clip-rule="nonzero"/></clipPath><clipPath id="19e565fc54"><rect x="0" width="327" y="0" height="69"/></clipPath><clipPath id="e34b13d34d"><path d="M 32 0.878906 L 289 0.878906 L 289 100 L 32 100 Z M 32 0.878906 " clip-rule="nonzero"/></clipPath><clipPath id="c2e6226a25"><rect x="0" width="257" y="0" height="100"/></clipPath><clipPath id="0b816b1fa9"><rect x="0" width="327" y="0" height="333"/></clipPath></defs><path stroke-linecap="round" transform="matrix(0.75, 0, 0, 0.75, 116.270447, 274.177364)" fill="none" stroke-linejoin="miter" d="M 0.498779 0.497889 L 11.628988 0.497889 " stroke="#fea937" stroke-width="1" stroke-opacity="1" stroke-miterlimit="4"/><path stroke-linecap="round" transform="matrix(0.75, 0, 0, 0.75, 249.632038, 274.177364)" fill="none" stroke-linejoin="miter" d="M 0.501033 0.497889 L 11.631242 0.497889 " stroke="#fea937" stroke-width="1" stroke-opacity="1" stroke-miterlimit="4"/><g transform="matrix(1, 0, 0, 1, 14, 20)"><g clip-path="url(#0b816b1fa9)"><g clip-path="url(#bd9084269f)"><path fill="#944421" d="M 219.109375 190.210938 C 213.273438 189.609375 197.007812 188.082031 187.1875 180.996094 C 185.699219 179.921875 184.617188 178.382812 184.0625 176.640625 C 181.421875 168.324219 180.347656 158.871094 180.347656 149.421875 L 161.09375 150.101562 L 141.839844 149.421875 C 141.839844 158.871094 140.761719 168.324219 138.121094 176.640625 C 137.566406 178.382812 136.488281 179.921875 135 180.996094 C 125.175781 188.082031 108.914062 189.609375 103.074219 190.210938 C 91.75 189.34375 85 194.550781 82.167969 203.445312 C 86.742188 212.125 103.636719 214.761719 115.925781 212.992188 C 137.046875 209.957031 140.96875 223.625 161.09375 223.625 C 181.21875 223.625 185.136719 209.957031 206.261719 212.992188 C 218.550781 214.761719 235.441406 212.125 240.015625 203.445312 C 237.183594 194.550781 230.433594 189.34375 219.109375 190.210938 Z M 219.109375 190.210938 " fill-opacity="1" fill-rule="nonzero"/></g><g clip-path="url(#00159ab79b)"><path fill="#2f2428" d="M 222.195312 139.222656 C 223.328125 133.117188 217.1875 134.667969 215.335938 131.304688 C 219.148438 125.335938 221.214844 114.597656 222.738281 109.0625 C 223.878906 104.925781 220.996094 101.144531 219.910156 98.324219 C 218.820312 95.503906 220.824219 93.320312 219.691406 89.753906 C 218.277344 85.304688 213.703125 80.316406 210.542969 78.6875 C 207.386719 77.058594 205.753906 76.625 204.339844 74.023438 C 202.921875 71.417969 204.992188 70.769531 201.835938 68.054688 C 199.324219 65.902344 194.210938 65.886719 192.46875 64.476562 C 190.726562 63.066406 191.164062 59.484375 188.113281 58.507812 C 185.066406 57.53125 183.324219 57.859375 181.90625 57.316406 C 180.492188 56.773438 180.382812 54.929688 177.769531 53.953125 C 173.558594 53.085938 172.542969 55.035156 170.367188 55.035156 C 168.1875 55.035156 164.378906 52.542969 157.300781 52.433594 C 152.152344 52.355469 149.023438 56.121094 141.949219 58.074219 C 135.4375 59.871094 130.839844 56.664062 125.832031 65.667969 C 121.660156 73.167969 117.449219 68.921875 113.3125 74.128906 C 109.847656 78.488281 113.746094 83.136719 111.023438 86.714844 C 107.753906 91.015625 106.125 88.777344 102.203125 92.574219 C 98.285156 96.371094 97.414062 108.304688 102.3125 112.207031 C 107.980469 116.726562 101.117188 123.707031 106.558594 131.300781 C 103.730469 134.015625 98.175781 139.003906 100.355469 146.925781 C 101.941406 152.703125 95.019531 150.722656 99.15625 159.726562 C 100.289062 162.191406 98.019531 166.488281 99.699219 172.742188 C 101.332031 178.820312 104.925781 183.160156 107.320312 186.085938 C 122.347656 183.808594 118.304688 181.035156 121.257812 180.445312 C 123.4375 180.011719 123.21875 181.855469 131.601562 179.253906 C 134.71875 178.285156 137.542969 172.070312 138.039062 169.585938 C 138.640625 166.597656 139.117188 163.714844 139.472656 161.132812 C 139.757812 159.082031 139.039062 157.300781 139.179688 155.714844 C 139.347656 153.824219 140.34375 152.242188 140.320312 151.300781 C 140.007812 138.542969 133.78125 143.453125 134.542969 139.871094 C 135.304688 136.292969 131.929688 130.757812 131.929688 130.757812 C 131.929688 130.757812 128.226562 131.300781 126.484375 130.433594 C 124.742188 129.566406 121.804688 127.9375 121.148438 123.925781 C 120.496094 119.910156 121.585938 115.570312 123.871094 114.703125 C 126.15625 113.835938 126.484375 115.246094 127.683594 114.703125 C 128.878906 114.160156 128.710938 107.785156 130.066406 104.894531 C 131.394531 102.054688 133.753906 100.050781 134.625 98.964844 C 135.492188 97.882812 132.039062 93.441406 133.453125 91.703125 C 134.867188 89.96875 138.789062 90.621094 139.550781 89.535156 C 140.3125 88.449219 140.3125 84.761719 141.183594 83.894531 C 142.054688 83.027344 143.363281 83.351562 144.339844 82.699219 C 145.320312 82.050781 146.191406 79.878906 147.171875 79.660156 C 148.152344 79.445312 153.597656 82.265625 155.558594 81.832031 C 157.515625 81.398438 161 77.382812 164.375 77.382812 C 167.347656 77.382812 169.277344 79.769531 170.691406 80.3125 C 172.105469 80.855469 176.136719 80.636719 177.769531 81.941406 C 179.402344 83.242188 178.3125 85.519531 179.402344 86.714844 C 180.492188 87.90625 183.429688 88.230469 184.519531 89.425781 C 185.609375 90.617188 184.519531 91.378906 185.5 92.355469 C 186.480469 93.332031 187.242188 94.847656 187.242188 96.476562 C 187.242188 98.105469 189.242188 100.59375 190.441406 101.898438 C 191.636719 103.199219 193.882812 106.023438 193.664062 108.519531 C 193.449219 111.015625 193.339844 113.941406 194.210938 114.484375 C 195.082031 115.027344 199.4375 114.484375 200.417969 116.65625 C 201.394531 118.824219 200.199219 125.117188 196.167969 128.589844 C 192.140625 132.058594 182.992188 130.199219 182.339844 131.5 C 181.6875 132.800781 189.171875 140.832031 183.648438 154.625 C 183.210938 159.289062 184.082031 166.773438 184.953125 169.8125 C 185.824219 172.851562 187.132812 175.996094 188.65625 177.625 C 190.179688 179.25 195.191406 181.636719 197.914062 182.503906 C 200.636719 183.375 210.542969 186.738281 214.570312 186.304688 C 218.054688 182.613281 221.683594 176.332031 221.429688 170.355469 C 221.105469 162.652344 220.027344 158.40625 223.171875 156.46875 C 229.160156 152.78125 220.886719 146.269531 222.195312 139.21875 Z M 222.195312 139.222656 " fill-opacity="1" fill-rule="nonzero"/></g><path fill="#672b2a" d="M 144.5625 150.832031 C 144.664062 154.152344 144.125 160.8125 143.253906 164.824219 C 142.605469 167.816406 153.675781 174.835938 158.933594 176.757812 C 164.269531 178.710938 165.660156 176.800781 170.476562 172.636719 C 175.644531 168.167969 179.523438 168.542969 178.859375 164.933594 C 178.160156 161.125 177.488281 152.835938 177.488281 151.035156 C 177.488281 149.238281 161.007812 154.082031 161.007812 154.082031 Z M 144.5625 150.832031 " fill-opacity="1" fill-rule="nonzero"/><path fill="#944421" d="M 197.867188 118.898438 C 197.023438 117.453125 194.0625 116.078125 191.808594 120.707031 C 191.667969 118.972656 191.386719 111.304688 191.527344 109.28125 C 191.667969 107.253906 189.835938 104.21875 189.414062 103.351562 C 188.992188 102.480469 187.160156 101.035156 185.890625 99.878906 C 184.625 98.722656 184.8125 95.441406 183.917969 94.597656 C 182.15625 92.933594 182.441406 91.632812 181.453125 90.621094 C 179.621094 88.738281 179.339844 90.402344 177.226562 88.449219 C 176.78125 88.039062 176.230469 85.402344 174.550781 84.183594 C 172.152344 82.449219 171.308594 84.039062 168.914062 82.808594 C 167.191406 81.925781 166.730469 79.628906 162.429688 80.421875 C 160.742188 80.734375 156.585938 84.113281 156.585938 84.113281 C 153.34375 84.835938 148.550781 82.085938 147.566406 82.519531 C 146.578125 82.953125 147.847656 84.835938 146.863281 85.414062 C 145.875 85.992188 143.621094 85.414062 143.199219 85.847656 C 142.773438 86.28125 143.339844 89.753906 141.507812 91.632812 C 139.675781 93.511719 137.84375 93.078125 137.140625 94.09375 C 136.433594 95.105469 137.5625 98.722656 136.292969 99.878906 C 135.027344 101.035156 133.195312 102.480469 132.769531 103.351562 C 132.347656 104.21875 130.515625 107.253906 130.65625 109.28125 C 130.796875 111.304688 130.515625 118.972656 130.375 120.707031 C 128.121094 116.078125 125.164062 117.453125 124.316406 118.898438 C 123.472656 120.347656 122.839844 124.613281 124.246094 127.652344 C 125.65625 130.6875 127.910156 133.363281 128.828125 135.027344 C 129.53125 136.3125 131.082031 136.621094 132.488281 136.039062 C 132.984375 138.125 133.6875 140.597656 135.378906 144.140625 C 137.964844 149.558594 143.882812 156.636719 151.097656 161.195312 C 157.179688 165.039062 165.007812 165.039062 171.089844 161.195312 C 178.300781 156.636719 184.222656 149.558594 186.808594 144.140625 C 188.5 140.597656 189.203125 138.125 189.699219 136.039062 C 191.105469 136.621094 192.652344 136.3125 193.363281 135.027344 C 194.277344 133.363281 196.53125 130.6875 197.941406 127.652344 C 199.347656 124.613281 198.714844 120.347656 197.871094 118.898438 Z M 197.867188 118.898438 " fill-opacity="1" fill-rule="nonzero"/><path fill="#672b2a" d="M 165.144531 138.035156 C 163.03125 138.035156 162.714844 138.628906 161.09375 138.628906 C 159.472656 138.628906 159.15625 138.035156 157.042969 138.035156 C 153.734375 138.035156 151.410156 142.382812 148.664062 143.578125 C 150.632812 146.035156 154.402344 150.101562 161.09375 150.101562 C 167.785156 150.101562 171.550781 146.035156 173.523438 143.578125 C 170.777344 142.382812 168.453125 138.035156 165.144531 138.035156 Z M 165.144531 138.035156 " fill-opacity="1" fill-rule="nonzero"/><path fill="#672b2a" d="M 159.894531 131.574219 C 159.894531 130.414062 158.097656 130.328125 157.066406 130.597656 C 156.03125 130.871094 155.648438 131.414062 154.398438 131.414062 C 155.539062 132.824219 159.894531 133.148438 159.894531 131.574219 Z M 159.894531 131.574219 " fill-opacity="1" fill-rule="nonzero"/><path fill="#672b2a" d="M 162.289062 131.574219 C 162.289062 130.414062 164.085938 130.328125 165.121094 130.597656 C 166.15625 130.871094 166.535156 131.414062 167.789062 131.414062 C 166.644531 132.824219 162.289062 133.148438 162.289062 131.574219 Z M 162.289062 131.574219 " fill-opacity="1" fill-rule="nonzero"/><path fill="#2f2428" d="M 153.605469 117.382812 C 152.464844 117.328125 151.210938 116.675781 151.210938 116.675781 C 149.359375 118.085938 143.808594 118.410156 141.519531 116.730469 C 139.671875 116.730469 137.328125 115.480469 136.402344 113.421875 C 136.894531 116.078125 138.253906 118.140625 141.628906 118.628906 C 140.433594 119.386719 138.691406 119.496094 137.765625 119.496094 C 140.433594 121.773438 148.652344 122.640625 153.605469 117.378906 Z M 153.605469 117.382812 " fill-opacity="1" fill-rule="nonzero"/><path fill="#2f2428" d="M 168.578125 117.382812 C 169.722656 117.328125 170.972656 116.675781 170.972656 116.675781 C 172.824219 118.085938 178.378906 118.410156 180.664062 116.730469 C 182.515625 116.730469 184.855469 115.480469 185.78125 113.421875 C 185.292969 116.078125 183.929688 118.140625 180.554688 118.628906 C 181.753906 119.386719 183.496094 119.496094 184.421875 119.496094 C 181.753906 121.773438 173.53125 122.640625 168.578125 117.378906 Z M 168.578125 117.382812 " fill-opacity="1" fill-rule="nonzero"/><path fill="#2f2428" d="M 153.578125 108.121094 C 154.074219 108.140625 154.507812 107.800781 154.609375 107.320312 C 154.882812 106.03125 154.949219 103.746094 154.160156 103.207031 C 153.125 102.5 141.789062 101.523438 140.167969 101.957031 C 138.753906 102.339844 134.722656 105.753906 133.363281 109.0625 C 135.269531 107.546875 139.515625 105.210938 140.820312 105.160156 C 142.128906 105.105469 148.117188 107.109375 149.152344 107.597656 C 149.910156 107.957031 152.335938 108.082031 153.578125 108.121094 Z M 153.578125 108.121094 " fill-opacity="1" fill-rule="nonzero"/><path fill="#2f2428" d="M 168.628906 108.121094 C 168.109375 108.140625 167.667969 107.761719 167.585938 107.25 C 167.398438 106.035156 167.476562 104.054688 168.242188 103.53125 C 169.277344 102.824219 179.730469 101.144531 181.582031 101.523438 C 183.019531 101.816406 187.242188 105.320312 188.605469 108.628906 C 186.699219 107.109375 182.726562 104.777344 181.417969 104.722656 C 180.113281 104.667969 174.070312 107.109375 173.035156 107.597656 C 172.28125 107.953125 169.875 108.082031 168.628906 108.121094 Z M 168.628906 108.121094 " fill-opacity="1" fill-rule="nonzero"/><path fill="#ffffff" d="M 161.074219 142.566406 C 159.40625 141.664062 156.972656 143.292969 155.777344 143.582031 C 157.082031 144.414062 158.96875 144.519531 161.074219 144.519531 C 163.179688 144.519531 165.066406 144.414062 166.375 143.582031 C 165.175781 143.292969 162.746094 141.664062 161.074219 142.566406 Z M 161.074219 142.566406 " fill-opacity="1" fill-rule="nonzero"/><path fill="#fea937" d="M 129.226562 133.582031 C 131.183594 133.46875 131.695312 135.171875 131.695312 136.910156 C 131.695312 138.644531 129.878906 139.730469 128.28125 139.292969 C 126.683594 138.859375 125.960938 136.472656 126.683594 135.460938 C 127.410156 134.449219 127.992188 133.652344 129.226562 133.582031 Z M 129.226562 133.582031 " fill-opacity="1" fill-rule="nonzero"/><path fill="#fea937" d="M 130.023438 140.8125 C 130.023438 150.359375 132.492188 152.167969 132.492188 159.472656 C 132.492188 164.679688 130.53125 168.152344 129.152344 169.886719 C 127.773438 168.152344 125.8125 164.679688 125.8125 159.472656 C 125.8125 152.167969 128.28125 150.359375 128.28125 140.8125 C 127.628906 145.007812 122.039062 152.675781 122.039062 159.980469 C 122.039062 165.257812 123.128906 172.78125 129.152344 177.84375 C 135.179688 172.78125 136.265625 165.257812 136.265625 159.980469 C 136.265625 152.675781 130.675781 145.007812 130.023438 140.8125 Z M 130.023438 140.8125 " fill-opacity="1" fill-rule="nonzero"/><path fill="#fea937" d="M 192.960938 133.582031 C 191.003906 133.46875 190.492188 135.171875 190.492188 136.910156 C 190.492188 138.644531 192.308594 139.730469 193.902344 139.292969 C 195.5 138.859375 196.226562 136.472656 195.5 135.460938 C 194.773438 134.449219 194.195312 133.652344 192.960938 133.582031 Z M 192.960938 133.582031 " fill-opacity="1" fill-rule="nonzero"/><path fill="#fea937" d="M 192.160156 140.8125 C 192.160156 150.359375 189.695312 152.167969 189.695312 159.472656 C 189.695312 164.679688 191.652344 168.152344 193.03125 169.886719 C 194.414062 168.152344 196.371094 164.679688 196.371094 159.472656 C 196.371094 152.167969 193.90625 150.359375 193.90625 140.8125 C 194.558594 145.007812 200.148438 152.675781 200.148438 159.980469 C 200.148438 165.257812 199.058594 172.78125 193.035156 177.84375 C 187.007812 172.78125 185.921875 165.257812 185.921875 159.980469 C 185.921875 152.675781 191.507812 145.007812 192.164062 140.8125 Z M 192.160156 140.8125 " fill-opacity="1" fill-rule="nonzero"/><path fill="#672b2a" d="M 157.191406 213.210938 C 154.652344 211.945312 154.074219 211.09375 147.828125 209.085938 C 143.519531 207.703125 138.402344 205.0625 133.238281 204.097656 C 124.527344 202.46875 117.769531 199.5 115.925781 197.660156 C 118.683594 204.167969 139.007812 208.652344 142.054688 210.535156 C 145.105469 212.414062 154.796875 214.1875 157.191406 213.210938 Z M 157.191406 213.210938 " fill-opacity="1" fill-rule="nonzero"/><path fill="#672b2a" d="M 163.507812 213.210938 C 166.046875 211.945312 166.625 211.09375 172.871094 209.085938 C 177.175781 207.703125 181.96875 205.820312 187.132812 204.855469 C 195.84375 203.230469 202.925781 199.5 204.773438 197.660156 C 202.015625 204.167969 184.195312 208.183594 181.144531 210.0625 C 178.097656 211.945312 165.902344 214.1875 163.507812 213.210938 Z M 163.507812 213.210938 " fill-opacity="1" fill-rule="nonzero"/><path fill="#672b2a" d="M 126.144531 120.65625 C 127.355469 119.933594 129.433594 122.800781 128.929688 124.820312 C 128.421875 126.835938 125.257812 124.0625 125.257812 123.054688 C 125.257812 122.046875 125.511719 121.035156 126.144531 120.65625 Z M 126.144531 120.65625 " fill-opacity="1" fill-rule="nonzero"/><path fill="#672b2a" d="M 196.214844 120.65625 C 195.003906 119.933594 192.925781 122.800781 193.429688 124.820312 C 193.9375 126.835938 197.101562 124.0625 197.101562 123.054688 C 197.101562 122.046875 196.847656 121.035156 196.214844 120.65625 Z M 196.214844 120.65625 " fill-opacity="1" fill-rule="nonzero"/><path fill="#fea937" d="M 161.332031 151.175781 C 158.925781 151.175781 158.402344 154.339844 161.257812 154.082031 C 164.113281 153.824219 163.101562 151.175781 161.332031 151.175781 Z M 161.332031 151.175781 " fill-opacity="1" fill-rule="nonzero"/><path fill="#fea937" d="M 160.988281 207.640625 C 159.4375 203.875 158.328125 201.113281 158.140625 198.5625 C 157.933594 195.820312 159.46875 192.5 160.988281 191.089844 C 163.835938 194.683594 164.214844 196.765625 164.023438 198.84375 C 163.835938 200.925781 160.988281 207.640625 160.988281 207.640625 Z M 160.988281 207.640625 " fill-opacity="1" fill-rule="nonzero"/><path fill="#fea937" d="M 163.972656 207.03125 C 164.871094 203.679688 165.550781 201.234375 166.746094 199.40625 C 168.027344 197.441406 170.789062 195.976562 172.546875 195.800781 C 171.71875 199.128906 171.796875 201.3125 170.589844 202.625 C 169.382812 203.941406 163.972656 207.03125 163.972656 207.03125 Z M 163.972656 207.03125 " fill-opacity="1" fill-rule="nonzero"/><path fill="#fea937" d="M 158.21875 207.222656 C 157.320312 203.867188 156.640625 201.425781 155.445312 199.59375 C 154.164062 197.628906 151.402344 196.164062 149.640625 195.988281 C 149.570312 199.894531 150.289062 201.601562 151.601562 202.816406 C 154.160156 205.183594 156.152344 204.613281 158.21875 207.222656 Z M 158.21875 207.222656 " fill-opacity="1" fill-rule="nonzero"/><path fill="#fea937" d="M 121.035156 193.925781 C 124.957031 194.304688 128.375 195.1875 130.78125 198.339844 C 124.703125 198.972656 121.035156 193.925781 121.035156 193.925781 Z M 121.035156 193.925781 " fill-opacity="1" fill-rule="nonzero"/><path fill="#fea937" d="M 191.535156 199.222656 C 195.457031 198.71875 199.886719 195.945312 201.152344 193.546875 C 196.089844 193.296875 191.535156 199.222656 191.535156 199.222656 Z M 191.535156 199.222656 " fill-opacity="1" fill-rule="nonzero"/><path fill="#fea937" d="M 123.359375 91.527344 C 127.535156 83.707031 130.449219 85.472656 132.347656 80.554688 C 133.445312 77.710938 135.636719 75.511719 139.179688 74.375 C 142.726562 73.242188 145.390625 73.738281 148.925781 70.972656 C 152.472656 68.195312 158.292969 68.195312 161.964844 68.574219 C 152.34375 64.792969 139.285156 69.085938 132.726562 74.125 C 126.648438 78.789062 123.105469 86.863281 123.359375 91.527344 Z M 123.359375 91.527344 " fill-opacity="1" fill-rule="nonzero"/><path fill="#fea937" d="M 201.359375 92.347656 C 201.359375 92.347656 203.558594 90.355469 205.492188 88.898438 C 205.925781 85.972656 206.605469 83.125 206.410156 79.773438 C 206.140625 75.125 204.84375 71.894531 204.761719 69.148438 C 204.671875 66.042969 202.800781 65.203125 202.546875 59.492188 C 201.550781 64.511719 198.269531 68.4375 198.089844 70.871094 C 197.867188 73.839844 196.765625 75.875 195.648438 78.519531 C 197.378906 80.699219 199.175781 84.496094 199.175781 84.496094 C 197.425781 82.699219 195.835938 81.5 194.800781 80.804688 C 193.835938 84.550781 195.496094 89.761719 196.339844 92.898438 C 197.261719 96.335938 197.890625 98.730469 196.308594 106.886719 C 196.035156 108.332031 197.25 109.273438 197.25 109.273438 C 197.449219 106.085938 197.667969 104.492188 198.054688 103.023438 C 200.1875 94.949219 205.046875 97.222656 205.15625 92.421875 C 205.164062 92.003906 205.191406 91.589844 205.222656 91.179688 C 204.195312 91.460938 202.859375 91.847656 201.359375 92.347656 Z M 201.359375 92.347656 " fill-opacity="1" fill-rule="nonzero"/><path fill="#fea937" d="M 214.574219 92.054688 C 214.113281 92.542969 213.609375 92.9375 213.070312 93.289062 C 212.691406 94.710938 211.929688 96.699219 210.472656 97.925781 C 210.472656 97.925781 211.003906 96.042969 211.238281 94.28125 C 210.230469 94.757812 209.132812 95.210938 207.964844 95.820312 C 205.128906 97.296875 204.363281 101.136719 203.757812 103.320312 C 203.140625 105.5625 202.691406 107.121094 197.855469 110.914062 C 197.003906 111.585938 197.691406 112.59375 197.691406 112.59375 C 199.210938 110.941406 200.070312 110.164062 201.035156 109.519531 C 205.964844 106.242188 209.230469 108.800781 211.363281 107.097656 C 210.621094 106.320312 209.484375 105.285156 208.191406 104.640625 C 209.40625 104.5 211.792969 105.15625 212.910156 105.496094 C 214.683594 103.8125 216.839844 102.457031 218.25 100.285156 C 219.960938 97.644531 220.164062 95.359375 221.246094 93.835938 C 222.46875 92.109375 221.152344 90.890625 223.328125 87.679688 C 220.332031 90.003906 215.757812 90.804688 214.574219 92.054688 Z M 214.574219 92.054688 " fill-opacity="1" fill-rule="nonzero"/><path fill="#fea937" d="M 123.117188 133.773438 C 121.402344 135.132812 120.457031 135.753906 119.429688 136.222656 C 113.804688 138.8125 111.046875 135.207031 108.621094 137.355469 C 107.792969 138.089844 106.847656 138.683594 105.886719 139.261719 C 107.75 140.128906 110.417969 140.488281 110.417969 140.488281 C 108.316406 141.402344 105.355469 140.960938 103.726562 140.601562 C 102.917969 141.148438 102.144531 141.753906 101.464844 142.507812 C 99.417969 144.785156 98.875 146.953125 97.605469 148.257812 C 96.164062 149.734375 97.242188 151.105469 94.664062 153.863281 C 96.933594 152.613281 99.835938 152.199219 101.824219 151.710938 C 102.589844 149.824219 104.246094 147.769531 104.246094 147.769531 C 104.089844 148.914062 104.128906 149.890625 104.230469 150.644531 C 106.050781 149.457031 108.171875 149.203125 110.679688 148.359375 C 113.632812 147.363281 114.953125 143.785156 115.867188 141.777344 C 116.804688 139.714844 117.472656 138.28125 122.703125 135.367188 C 123.625 134.847656 123.117188 133.773438 123.117188 133.773438 Z M 123.117188 133.773438 " fill-opacity="1" fill-rule="nonzero"/><path fill="#fea937" d="M 122.523438 137.761719 C 122.148438 137.992188 121.804688 138.214844 121.488281 138.425781 C 121.066406 139.332031 120.71875 139.921875 120.316406 140.472656 C 119.359375 141.765625 118.363281 142.519531 117.414062 143.015625 C 117.382812 143.085938 117.351562 143.152344 117.320312 143.226562 C 116.40625 145.230469 115.085938 148.8125 112.132812 149.804688 C 111.488281 150.023438 110.871094 150.199219 110.273438 150.363281 C 109.929688 151.054688 109.632812 151.777344 109.449219 152.5625 C 109.332031 153.066406 109.257812 153.542969 109.210938 154 C 110.828125 153.398438 112.886719 152.40625 112.886719 152.40625 C 111.714844 153.847656 110.191406 154.863281 109.128906 155.460938 C 109.109375 156.621094 109.171875 157.597656 108.933594 158.457031 C 108.464844 160.15625 109.84375 160.738281 109.050781 163.867188 C 110.738281 161.203125 114.09375 159.285156 114.667969 157.972656 C 115.441406 156.199219 116.898438 155.117188 118.445312 153.507812 C 118.019531 152.421875 117.585938 150.730469 117.917969 148.8125 C 117.917969 148.8125 118.710938 150.816406 119.511719 152.050781 C 120.417969 150.132812 120.0625 147.65625 119.941406 146.101562 C 119.792969 144.167969 119.699219 142.820312 122.414062 138.484375 C 122.578125 138.21875 122.585938 137.972656 122.523438 137.765625 Z M 122.523438 137.761719 " fill-opacity="1" fill-rule="nonzero"/><g clip-path="url(#5e86131027)"><g transform="matrix(1, 0, 0, 1, 79, 304)"><g clip-path="url(#70d57b94f8)"><g clip-path="url(#35e6b23077)"><g fill="#0097b2" fill-opacity="1"><g transform="translate(0.987609, 20.538122)"><g><path d="M 4.265625 0.0625 L 0 0 L 0.015625 -0.5625 C 0.472656 -0.75 0.929688 -0.894531 1.390625 -1 L 6.4375 -13.578125 L 7 -13.578125 L 11.671875 -0.84375 C 11.929688 -0.789062 12.1875 -0.726562 12.4375 -0.65625 C 12.6875 -0.59375 12.914062 -0.5 13.125 -0.375 L 13.109375 0.1875 L 8.203125 0.125 L 8.21875 -0.4375 C 8.46875 -0.53125 8.726562 -0.613281 9 -0.6875 C 9.269531 -0.757812 9.535156 -0.820312 9.796875 -0.875 L 8.53125 -4.40625 L 3.9375 -4.46875 L 2.625 -0.984375 C 3.164062 -0.898438 3.71875 -0.738281 4.28125 -0.5 Z M 4.34375 -5.46875 L 8.21875 -5.40625 L 6.765625 -9.515625 L 6.421875 -11.15625 L 6.375 -11.15625 L 5.875 -9.484375 Z M 4.34375 -5.46875 "/></g></g></g></g><g fill="#0097b2" fill-opacity="1"><g transform="translate(19.491413, 20.806837)"><g><path d="M 9.84375 -13.296875 C 9.832031 -12.785156 9.804688 -12.269531 9.765625 -11.75 C 9.722656 -11.238281 9.671875 -10.71875 9.609375 -10.1875 L 9.109375 -10.203125 L 8.34375 -12.3125 L 4.15625 -12.375 L 4.078125 -7.296875 L 7.21875 -7.25 L 7.984375 -8.671875 L 8.453125 -8.65625 C 8.515625 -7.382812 8.5 -6.085938 8.40625 -4.765625 L 7.9375 -4.78125 L 7.203125 -6.25 L 4.0625 -6.296875 L 3.984375 -0.9375 L 8.40625 -0.875 L 9.375 -3.15625 L 9.859375 -3.15625 C 9.941406 -2.625 10 -2.082031 10.03125 -1.53125 C 10.0625 -0.976562 10.0625 -0.421875 10.03125 0.140625 L 0.5625 0.015625 L 0.578125 -0.546875 C 1.023438 -0.742188 1.546875 -0.890625 2.140625 -0.984375 L 2.3125 -12.375 C 2.0625 -12.425781 1.800781 -12.492188 1.53125 -12.578125 C 1.257812 -12.671875 1 -12.769531 0.75 -12.875 L 0.75 -13.421875 Z M 9.84375 -13.296875 "/></g></g></g><g fill="#0097b2" fill-opacity="1"><g transform="translate(36.056709, 21.047401)"><g><path d="M 2.890625 -1.28125 C 3.046875 -1.125 3.242188 -0.988281 3.484375 -0.875 C 3.734375 -0.757812 4.101562 -0.703125 4.59375 -0.703125 C 5 -0.691406 5.378906 -0.738281 5.734375 -0.84375 C 6.097656 -0.945312 6.410156 -1.101562 6.671875 -1.3125 C 6.941406 -1.519531 7.15625 -1.769531 7.3125 -2.0625 C 7.46875 -2.363281 7.550781 -2.707031 7.5625 -3.09375 C 7.570312 -3.601562 7.421875 -4.035156 7.109375 -4.390625 C 6.796875 -4.742188 6.40625 -5.054688 5.9375 -5.328125 C 5.476562 -5.597656 4.972656 -5.867188 4.421875 -6.140625 C 3.878906 -6.410156 3.375 -6.722656 2.90625 -7.078125 C 2.445312 -7.429688 2.0625 -7.859375 1.75 -8.359375 C 1.445312 -8.859375 1.304688 -9.476562 1.328125 -10.21875 C 1.328125 -10.757812 1.425781 -11.238281 1.625 -11.65625 C 1.820312 -12.070312 2.097656 -12.421875 2.453125 -12.703125 C 2.804688 -12.992188 3.226562 -13.21875 3.71875 -13.375 C 4.21875 -13.53125 4.769531 -13.601562 5.375 -13.59375 C 6.15625 -13.582031 6.863281 -13.507812 7.5 -13.375 C 8.144531 -13.25 8.648438 -13.09375 9.015625 -12.90625 C 9.015625 -12.695312 8.992188 -12.445312 8.953125 -12.15625 C 8.921875 -11.863281 8.878906 -11.5625 8.828125 -11.25 C 8.785156 -10.945312 8.734375 -10.648438 8.671875 -10.359375 C 8.617188 -10.078125 8.566406 -9.828125 8.515625 -9.609375 L 8.015625 -9.625 L 7.28125 -12.25 C 7.0625 -12.363281 6.773438 -12.445312 6.421875 -12.5 C 6.066406 -12.5625 5.691406 -12.59375 5.296875 -12.59375 C 4.640625 -12.601562 4.109375 -12.425781 3.703125 -12.0625 C 3.304688 -11.707031 3.101562 -11.203125 3.09375 -10.546875 C 3.082031 -10.023438 3.226562 -9.582031 3.53125 -9.21875 C 3.84375 -8.851562 4.234375 -8.523438 4.703125 -8.234375 C 5.171875 -7.953125 5.675781 -7.675781 6.21875 -7.40625 C 6.769531 -7.144531 7.28125 -6.832031 7.75 -6.46875 C 8.21875 -6.113281 8.601562 -5.695312 8.90625 -5.21875 C 9.207031 -4.738281 9.351562 -4.148438 9.34375 -3.453125 C 9.34375 -2.878906 9.226562 -2.359375 9 -1.890625 C 8.78125 -1.421875 8.46875 -1.019531 8.0625 -0.6875 C 7.664062 -0.363281 7.175781 -0.117188 6.59375 0.046875 C 6.019531 0.222656 5.367188 0.304688 4.640625 0.296875 C 3.835938 0.285156 3.113281 0.179688 2.46875 -0.015625 C 1.832031 -0.222656 1.382812 -0.4375 1.125 -0.65625 C 1.144531 -0.875 1.171875 -1.132812 1.203125 -1.4375 C 1.242188 -1.75 1.285156 -2.066406 1.328125 -2.390625 C 1.378906 -2.722656 1.429688 -3.039062 1.484375 -3.34375 C 1.546875 -3.65625 1.601562 -3.914062 1.65625 -4.125 L 2.15625 -4.109375 Z M 2.890625 -1.28125 "/></g></g></g><g fill="#0097b2" fill-opacity="1"><g transform="translate(51.739117, 21.275143)"><g><path d="M 8.640625 0.125 L 3.25 0.046875 L 3.265625 -0.515625 C 3.546875 -0.609375 3.828125 -0.691406 4.109375 -0.765625 C 4.398438 -0.835938 4.710938 -0.894531 5.046875 -0.9375 L 5.21875 -12.359375 L 2.28125 -12.40625 L 1.21875 -9.6875 L 0.734375 -9.6875 C 0.691406 -9.945312 0.660156 -10.238281 0.640625 -10.5625 C 0.617188 -10.894531 0.601562 -11.226562 0.59375 -11.5625 C 0.582031 -11.90625 0.570312 -12.238281 0.5625 -12.5625 C 0.550781 -12.894531 0.546875 -13.1875 0.546875 -13.4375 L 11.703125 -13.265625 C 11.703125 -13.015625 11.691406 -12.726562 11.671875 -12.40625 C 11.660156 -12.082031 11.640625 -11.75 11.609375 -11.40625 C 11.585938 -11.070312 11.566406 -10.738281 11.546875 -10.40625 C 11.523438 -10.082031 11.492188 -9.789062 11.453125 -9.53125 L 10.953125 -9.546875 L 10 -12.296875 L 7.0625 -12.34375 L 6.890625 -0.921875 C 7.222656 -0.847656 7.53125 -0.773438 7.8125 -0.703125 C 8.101562 -0.640625 8.382812 -0.550781 8.65625 -0.4375 Z M 8.640625 0.125 "/></g></g></g><g fill="#0097b2" fill-opacity="1"><g transform="translate(69.014557, 21.52602)"><g><path d="M 5.421875 0.078125 L 0.5625 0.015625 L 0.578125 -0.546875 C 1.085938 -0.742188 1.609375 -0.890625 2.140625 -0.984375 L 2.3125 -12.375 C 1.71875 -12.476562 1.195312 -12.644531 0.75 -12.875 L 0.75 -13.421875 L 5.609375 -13.359375 L 5.609375 -12.8125 C 5.390625 -12.695312 5.15625 -12.601562 4.90625 -12.53125 C 4.664062 -12.457031 4.414062 -12.394531 4.15625 -12.34375 L 4.078125 -7.328125 L 10.109375 -7.25 L 10.1875 -12.265625 C 9.925781 -12.328125 9.675781 -12.398438 9.4375 -12.484375 C 9.195312 -12.566406 8.96875 -12.660156 8.75 -12.765625 L 8.75 -13.3125 L 13.609375 -13.25 L 13.609375 -12.703125 C 13.378906 -12.566406 13.125 -12.46875 12.84375 -12.40625 C 12.570312 -12.34375 12.300781 -12.285156 12.03125 -12.234375 L 11.859375 -0.84375 C 12.160156 -0.789062 12.441406 -0.722656 12.703125 -0.640625 C 12.972656 -0.554688 13.21875 -0.46875 13.4375 -0.375 L 13.421875 0.1875 L 8.5625 0.125 L 8.578125 -0.4375 C 9.035156 -0.625 9.515625 -0.769531 10.015625 -0.875 L 10.09375 -6.25 L 4.0625 -6.328125 L 3.984375 -0.953125 C 4.242188 -0.898438 4.492188 -0.832031 4.734375 -0.75 C 4.984375 -0.664062 5.21875 -0.578125 5.4375 -0.484375 Z M 5.421875 0.078125 "/></g></g></g><g fill="#0097b2" fill-opacity="1"><g transform="translate(88.382056, 21.807278)"><g><path d="M 9.84375 -13.296875 C 9.832031 -12.785156 9.804688 -12.269531 9.765625 -11.75 C 9.722656 -11.238281 9.671875 -10.71875 9.609375 -10.1875 L 9.109375 -10.203125 L 8.34375 -12.3125 L 4.15625 -12.375 L 4.078125 -7.296875 L 7.21875 -7.25 L 7.984375 -8.671875 L 8.453125 -8.65625 C 8.515625 -7.382812 8.5 -6.085938 8.40625 -4.765625 L 7.9375 -4.78125 L 7.203125 -6.25 L 4.0625 -6.296875 L 3.984375 -0.9375 L 8.40625 -0.875 L 9.375 -3.15625 L 9.859375 -3.15625 C 9.941406 -2.625 10 -2.082031 10.03125 -1.53125 C 10.0625 -0.976562 10.0625 -0.421875 10.03125 0.140625 L 0.5625 0.015625 L 0.578125 -0.546875 C 1.023438 -0.742188 1.546875 -0.890625 2.140625 -0.984375 L 2.3125 -12.375 C 2.0625 -12.425781 1.800781 -12.492188 1.53125 -12.578125 C 1.257812 -12.671875 1 -12.769531 0.75 -12.875 L 0.75 -13.421875 Z M 9.84375 -13.296875 "/></g></g></g><g fill="#0097b2" fill-opacity="1"><g transform="translate(104.947352, 22.047842)"><g><path d="M 8.640625 0.125 L 3.25 0.046875 L 3.265625 -0.515625 C 3.546875 -0.609375 3.828125 -0.691406 4.109375 -0.765625 C 4.398438 -0.835938 4.710938 -0.894531 5.046875 -0.9375 L 5.21875 -12.359375 L 2.28125 -12.40625 L 1.21875 -9.6875 L 0.734375 -9.6875 C 0.691406 -9.945312 0.660156 -10.238281 0.640625 -10.5625 C 0.617188 -10.894531 0.601562 -11.226562 0.59375 -11.5625 C 0.582031 -11.90625 0.570312 -12.238281 0.5625 -12.5625 C 0.550781 -12.894531 0.546875 -13.1875 0.546875 -13.4375 L 11.703125 -13.265625 C 11.703125 -13.015625 11.691406 -12.726562 11.671875 -12.40625 C 11.660156 -12.082031 11.640625 -11.75 11.609375 -11.40625 C 11.585938 -11.070312 11.566406 -10.738281 11.546875 -10.40625 C 11.523438 -10.082031 11.492188 -9.789062 11.453125 -9.53125 L 10.953125 -9.546875 L 10 -12.296875 L 7.0625 -12.34375 L 6.890625 -0.921875 C 7.222656 -0.847656 7.53125 -0.773438 7.8125 -0.703125 C 8.101562 -0.640625 8.382812 -0.550781 8.65625 -0.4375 Z M 8.640625 0.125 "/></g></g></g><g fill="#0097b2" fill-opacity="1"><g transform="translate(122.222793, 22.298718)"><g><path d="M 5.84375 0.078125 L 0.921875 0.015625 L 0.9375 -0.546875 C 1.4375 -0.765625 1.945312 -0.910156 2.46875 -0.984375 L 2.640625 -12.375 C 2.390625 -12.425781 2.132812 -12.492188 1.875 -12.578125 C 1.625 -12.671875 1.367188 -12.769531 1.109375 -12.875 L 1.109375 -13.421875 L 6.03125 -13.359375 L 6.03125 -12.8125 C 5.789062 -12.707031 5.535156 -12.613281 5.265625 -12.53125 C 5.003906 -12.457031 4.742188 -12.394531 4.484375 -12.34375 L 4.3125 -0.953125 C 4.582031 -0.898438 4.851562 -0.832031 5.125 -0.75 C 5.394531 -0.664062 5.640625 -0.578125 5.859375 -0.484375 Z M 5.84375 0.078125 "/></g></g></g><g fill="#0097b2" fill-opacity="1"><g transform="translate(134.373658, 22.475175)"><g><path d="M 10.546875 -3.34375 L 11.046875 -3.34375 C 11.109375 -2.976562 11.160156 -2.523438 11.203125 -1.984375 C 11.242188 -1.441406 11.253906 -0.914062 11.234375 -0.40625 C 11.023438 -0.25 10.785156 -0.125 10.515625 -0.03125 C 10.253906 0.0625 9.972656 0.140625 9.671875 0.203125 C 9.367188 0.265625 9.0625 0.304688 8.75 0.328125 C 8.4375 0.347656 8.140625 0.351562 7.859375 0.34375 C 6.773438 0.332031 5.8125 0.179688 4.96875 -0.109375 C 4.132812 -0.398438 3.425781 -0.828125 2.84375 -1.390625 C 2.269531 -1.960938 1.832031 -2.691406 1.53125 -3.578125 C 1.238281 -4.460938 1.097656 -5.503906 1.109375 -6.703125 C 1.128906 -7.960938 1.316406 -9.023438 1.671875 -9.890625 C 2.035156 -10.765625 2.515625 -11.472656 3.109375 -12.015625 C 3.710938 -12.566406 4.40625 -12.960938 5.1875 -13.203125 C 5.976562 -13.453125 6.800781 -13.570312 7.65625 -13.5625 C 8.5 -13.550781 9.207031 -13.484375 9.78125 -13.359375 C 10.351562 -13.242188 10.851562 -13.078125 11.28125 -12.859375 C 11.28125 -12.660156 11.269531 -12.421875 11.25 -12.140625 C 11.238281 -11.867188 11.21875 -11.578125 11.1875 -11.265625 C 11.15625 -10.960938 11.117188 -10.660156 11.078125 -10.359375 C 11.035156 -10.066406 10.992188 -9.800781 10.953125 -9.5625 L 10.453125 -9.5625 L 9.5 -12.34375 C 9.363281 -12.425781 9.128906 -12.476562 8.796875 -12.5 C 8.472656 -12.53125 8.148438 -12.550781 7.828125 -12.5625 C 7.191406 -12.570312 6.582031 -12.460938 6 -12.234375 C 5.425781 -12.003906 4.921875 -11.644531 4.484375 -11.15625 C 4.054688 -10.675781 3.707031 -10.0625 3.4375 -9.3125 C 3.175781 -8.5625 3.035156 -7.679688 3.015625 -6.671875 C 3.003906 -5.765625 3.109375 -4.941406 3.328125 -4.203125 C 3.546875 -3.472656 3.867188 -2.84375 4.296875 -2.3125 C 4.722656 -1.78125 5.25 -1.375 5.875 -1.09375 C 6.5 -0.8125 7.207031 -0.664062 8 -0.65625 C 8.425781 -0.644531 8.78125 -0.664062 9.0625 -0.71875 C 9.34375 -0.78125 9.53125 -0.863281 9.625 -0.96875 Z M 10.546875 -3.34375 "/></g></g></g><g fill="#0097b2" fill-opacity="1"><g transform="translate(152.128928, 22.73302)"><g><path d="M 2.890625 -1.28125 C 3.046875 -1.125 3.242188 -0.988281 3.484375 -0.875 C 3.734375 -0.757812 4.101562 -0.703125 4.59375 -0.703125 C 5 -0.691406 5.378906 -0.738281 5.734375 -0.84375 C 6.097656 -0.945312 6.410156 -1.101562 6.671875 -1.3125 C 6.941406 -1.519531 7.15625 -1.769531 7.3125 -2.0625 C 7.46875 -2.363281 7.550781 -2.707031 7.5625 -3.09375 C 7.570312 -3.601562 7.421875 -4.035156 7.109375 -4.390625 C 6.796875 -4.742188 6.40625 -5.054688 5.9375 -5.328125 C 5.476562 -5.597656 4.972656 -5.867188 4.421875 -6.140625 C 3.878906 -6.410156 3.375 -6.722656 2.90625 -7.078125 C 2.445312 -7.429688 2.0625 -7.859375 1.75 -8.359375 C 1.445312 -8.859375 1.304688 -9.476562 1.328125 -10.21875 C 1.328125 -10.757812 1.425781 -11.238281 1.625 -11.65625 C 1.820312 -12.070312 2.097656 -12.421875 2.453125 -12.703125 C 2.804688 -12.992188 3.226562 -13.21875 3.71875 -13.375 C 4.21875 -13.53125 4.769531 -13.601562 5.375 -13.59375 C 6.15625 -13.582031 6.863281 -13.507812 7.5 -13.375 C 8.144531 -13.25 8.648438 -13.09375 9.015625 -12.90625 C 9.015625 -12.695312 8.992188 -12.445312 8.953125 -12.15625 C 8.921875 -11.863281 8.878906 -11.5625 8.828125 -11.25 C 8.785156 -10.945312 8.734375 -10.648438 8.671875 -10.359375 C 8.617188 -10.078125 8.566406 -9.828125 8.515625 -9.609375 L 8.015625 -9.625 L 7.28125 -12.25 C 7.0625 -12.363281 6.773438 -12.445312 6.421875 -12.5 C 6.066406 -12.5625 5.691406 -12.59375 5.296875 -12.59375 C 4.640625 -12.601562 4.109375 -12.425781 3.703125 -12.0625 C 3.304688 -11.707031 3.101562 -11.203125 3.09375 -10.546875 C 3.082031 -10.023438 3.226562 -9.582031 3.53125 -9.21875 C 3.84375 -8.851562 4.234375 -8.523438 4.703125 -8.234375 C 5.171875 -7.953125 5.675781 -7.675781 6.21875 -7.40625 C 6.769531 -7.144531 7.28125 -6.832031 7.75 -6.46875 C 8.21875 -6.113281 8.601562 -5.695312 8.90625 -5.21875 C 9.207031 -4.738281 9.351562 -4.148438 9.34375 -3.453125 C 9.34375 -2.878906 9.226562 -2.359375 9 -1.890625 C 8.78125 -1.421875 8.46875 -1.019531 8.0625 -0.6875 C 7.664062 -0.363281 7.175781 -0.117188 6.59375 0.046875 C 6.019531 0.222656 5.367188 0.304688 4.640625 0.296875 C 3.835938 0.285156 3.113281 0.179688 2.46875 -0.015625 C 1.832031 -0.222656 1.382812 -0.4375 1.125 -0.65625 C 1.144531 -0.875 1.171875 -1.132812 1.203125 -1.4375 C 1.242188 -1.75 1.285156 -2.066406 1.328125 -2.390625 C 1.378906 -2.722656 1.429688 -3.039062 1.484375 -3.34375 C 1.546875 -3.65625 1.601562 -3.914062 1.65625 -4.125 L 2.15625 -4.109375 Z M 2.890625 -1.28125 "/></g></g></g></g></g></g><g clip-path="url(#0b9cf813fd)"><g transform="matrix(1, 0, 0, 1, 0, 229)"><g clip-path="url(#19e565fc54)"><g fill="#0097b2" fill-opacity="1"><g transform="translate(1.083655, 53.926646)"><g><path d="M 7.6875 -3.53125 C 8.101562 -3.125 8.632812 -2.773438 9.28125 -2.484375 C 9.925781 -2.191406 10.898438 -2.046875 12.203125 -2.046875 C 13.296875 -2.046875 14.320312 -2.191406 15.28125 -2.484375 C 16.238281 -2.773438 17.066406 -3.203125 17.765625 -3.765625 C 18.460938 -4.328125 19.015625 -5.007812 19.421875 -5.8125 C 19.835938 -6.613281 20.046875 -7.53125 20.046875 -8.5625 C 20.046875 -9.925781 19.625 -11.066406 18.78125 -11.984375 C 17.945312 -12.910156 16.90625 -13.734375 15.65625 -14.453125 C 14.414062 -15.171875 13.054688 -15.867188 11.578125 -16.546875 C 10.109375 -17.234375 8.75 -18.046875 7.5 -18.984375 C 6.257812 -19.929688 5.21875 -21.0625 4.375 -22.375 C 3.539062 -23.6875 3.125 -25.335938 3.125 -27.328125 C 3.125 -28.765625 3.378906 -30.046875 3.890625 -31.171875 C 4.410156 -32.296875 5.140625 -33.25 6.078125 -34.03125 C 7.015625 -34.820312 8.128906 -35.429688 9.421875 -35.859375 C 10.722656 -36.285156 12.179688 -36.5 13.796875 -36.5 C 15.878906 -36.5 17.78125 -36.335938 19.5 -36.015625 C 21.226562 -35.691406 22.585938 -35.289062 23.578125 -34.8125 C 23.578125 -34.226562 23.535156 -33.550781 23.453125 -32.78125 C 23.367188 -32.007812 23.265625 -31.210938 23.140625 -30.390625 C 23.023438 -29.578125 22.898438 -28.785156 22.765625 -28.015625 C 22.628906 -27.242188 22.492188 -26.566406 22.359375 -25.984375 L 21.015625 -25.984375 L 18.96875 -33.015625 C 18.351562 -33.285156 17.570312 -33.488281 16.625 -33.625 C 15.6875 -33.757812 14.691406 -33.828125 13.640625 -33.828125 C 11.890625 -33.828125 10.484375 -33.335938 9.421875 -32.359375 C 8.367188 -31.390625 7.84375 -30.035156 7.84375 -28.296875 C 7.84375 -26.898438 8.257812 -25.722656 9.09375 -24.765625 C 9.9375 -23.804688 10.988281 -22.945312 12.25 -22.1875 C 13.519531 -21.4375 14.878906 -20.710938 16.328125 -20.015625 C 17.773438 -19.316406 19.128906 -18.503906 20.390625 -17.578125 C 21.660156 -16.660156 22.710938 -15.566406 23.546875 -14.296875 C 24.390625 -13.035156 24.8125 -11.46875 24.8125 -9.59375 C 24.8125 -8.050781 24.53125 -6.644531 23.96875 -5.375 C 23.40625 -4.113281 22.59375 -3.035156 21.53125 -2.140625 C 20.46875 -1.253906 19.164062 -0.570312 17.625 -0.09375 C 16.09375 0.375 14.351562 0.609375 12.40625 0.609375 C 10.25 0.609375 8.316406 0.351562 6.609375 -0.15625 C 4.898438 -0.664062 3.6875 -1.210938 2.96875 -1.796875 C 3.007812 -2.378906 3.070312 -3.078125 3.15625 -3.890625 C 3.238281 -4.710938 3.335938 -5.554688 3.453125 -6.421875 C 3.578125 -7.296875 3.707031 -8.144531 3.84375 -8.96875 C 3.976562 -9.789062 4.113281 -10.492188 4.25 -11.078125 L 5.59375 -11.078125 Z M 7.6875 -3.53125 "/></g></g></g><g fill="#0097b2" fill-opacity="1"><g transform="translate(33.68845, 53.926646)"><g><path d="M 11.375 0 L 0 0 L 0 -1.484375 C 1.226562 -2.035156 2.457031 -2.445312 3.6875 -2.71875 L 16.65625 -36.5 L 18.140625 -36.5 L 31.125 -2.71875 C 31.800781 -2.582031 32.472656 -2.425781 33.140625 -2.25 C 33.804688 -2.082031 34.429688 -1.828125 35.015625 -1.484375 L 35.015625 0 L 21.890625 0 L 21.890625 -1.484375 C 22.578125 -1.753906 23.273438 -1.992188 23.984375 -2.203125 C 24.703125 -2.410156 25.40625 -2.582031 26.09375 -2.71875 L 22.609375 -12.09375 L 10.359375 -12.09375 L 6.96875 -2.71875 C 8.40625 -2.507812 9.875 -2.097656 11.375 -1.484375 Z M 11.375 -14.765625 L 21.734375 -14.765625 L 17.6875 -25.640625 L 16.71875 -30.046875 L 16.609375 -30.046875 L 15.328125 -25.53125 Z M 11.375 -14.765625 "/></g></g></g><g fill="#0097b2" fill-opacity="1"><g transform="translate(73.82914, 53.926646)"><g><path d="M 42.90625 0 L 30.203125 0 L 30.203125 -1.484375 C 30.878906 -1.753906 31.554688 -1.984375 32.234375 -2.171875 C 32.921875 -2.359375 33.625 -2.539062 34.34375 -2.71875 L 34.34375 -25.78125 L 34.546875 -31.78125 L 34.140625 -31.78125 L 32.453125 -26.296875 L 21.9375 0 L 20.609375 0 L 10.609375 -26.296875 L 8.765625 -32.296875 L 8.3125 -32.296875 L 8.359375 -25.78125 L 8.359375 -2.71875 C 9.003906 -2.582031 9.648438 -2.410156 10.296875 -2.203125 C 10.953125 -1.992188 11.601562 -1.753906 12.25 -1.484375 L 12.25 0 L 1.53125 0 L 1.53125 -1.484375 C 2.1875 -1.753906 2.863281 -2 3.5625 -2.21875 C 4.257812 -2.445312 4.96875 -2.628906 5.6875 -2.765625 L 5.6875 -33.125 C 4.96875 -33.257812 4.257812 -33.4375 3.5625 -33.65625 C 2.863281 -33.875 2.171875 -34.125 1.484375 -34.40625 L 1.484375 -35.890625 L 12 -35.890625 L 20.921875 -12.453125 L 22.65625 -7.171875 L 22.703125 -7.171875 L 24.453125 -12.5625 L 33.6875 -35.890625 L 42.953125 -35.890625 L 42.953125 -34.40625 C 42.335938 -34.125 41.707031 -33.875 41.0625 -33.65625 C 40.414062 -33.4375 39.75 -33.257812 39.0625 -33.125 L 39.0625 -2.671875 C 39.78125 -2.523438 40.453125 -2.359375 41.078125 -2.171875 C 41.710938 -1.984375 42.320312 -1.753906 42.90625 -1.484375 Z M 42.90625 0 "/></g></g></g><g fill="#0097b2" fill-opacity="1"><g transform="translate(123.402513, 53.926646)"><g><path d="M 11.375 0 L 0 0 L 0 -1.484375 C 1.226562 -2.035156 2.457031 -2.445312 3.6875 -2.71875 L 16.65625 -36.5 L 18.140625 -36.5 L 31.125 -2.71875 C 31.800781 -2.582031 32.472656 -2.425781 33.140625 -2.25 C 33.804688 -2.082031 34.429688 -1.828125 35.015625 -1.484375 L 35.015625 0 L 21.890625 0 L 21.890625 -1.484375 C 22.578125 -1.753906 23.273438 -1.992188 23.984375 -2.203125 C 24.703125 -2.410156 25.40625 -2.582031 26.09375 -2.71875 L 22.609375 -12.09375 L 10.359375 -12.09375 L 6.96875 -2.71875 C 8.40625 -2.507812 9.875 -2.097656 11.375 -1.484375 Z M 11.375 -14.765625 L 21.734375 -14.765625 L 17.6875 -25.640625 L 16.71875 -30.046875 L 16.609375 -30.046875 L 15.328125 -25.53125 Z M 11.375 -14.765625 "/></g></g></g><g fill="#0097b2" fill-opacity="1"><g transform="translate(163.543203, 53.926646)"><g><path d="M 24.96875 -35.890625 L 36.046875 -35.890625 L 36.046875 -34.40625 C 34.609375 -33.445312 33.207031 -32.757812 31.84375 -32.34375 L 31.84375 0.609375 L 28.90625 0.609375 L 10.296875 -27.625 L 8.3125 -31.625 L 8.15625 -31.625 L 8.609375 -27.625 L 8.609375 -3.28125 C 10.015625 -2.90625 11.332031 -2.304688 12.5625 -1.484375 L 12.5625 0 L 1.484375 0 L 1.484375 -1.484375 C 2.097656 -1.859375 2.753906 -2.191406 3.453125 -2.484375 C 4.160156 -2.773438 4.90625 -3.039062 5.6875 -3.28125 L 5.6875 -32.65625 C 5.007812 -32.925781 4.335938 -33.210938 3.671875 -33.515625 C 3.003906 -33.828125 2.378906 -34.140625 1.796875 -34.453125 L 1.796875 -35.890625 L 10.453125 -35.890625 L 26.609375 -11.53125 L 28.96875 -7.125 L 29.171875 -7.125 L 28.90625 -11.53125 L 28.90625 -32.34375 C 28.195312 -32.65625 27.507812 -32.976562 26.84375 -33.3125 C 26.175781 -33.65625 25.550781 -34.019531 24.96875 -34.40625 Z M 24.96875 -35.890625 "/></g></g></g><g fill="#0097b2" fill-opacity="1"><g transform="translate(206.195859, 53.926646)"><g><path d="M 23.0625 0 L 8.65625 0 L 8.65625 -1.484375 C 9.414062 -1.753906 10.175781 -1.992188 10.9375 -2.203125 C 11.707031 -2.410156 12.539062 -2.582031 13.4375 -2.71875 L 13.4375 -33.21875 L 5.59375 -33.21875 L 2.875 -25.890625 L 1.59375 -25.890625 C 1.488281 -26.578125 1.398438 -27.351562 1.328125 -28.21875 C 1.265625 -29.09375 1.207031 -29.984375 1.15625 -30.890625 C 1.101562 -31.796875 1.054688 -32.679688 1.015625 -33.546875 C 0.984375 -34.421875 0.96875 -35.203125 0.96875 -35.890625 L 30.765625 -35.890625 C 30.765625 -35.203125 30.742188 -34.429688 30.703125 -33.578125 C 30.671875 -32.722656 30.628906 -31.84375 30.578125 -30.9375 C 30.523438 -30.03125 30.472656 -29.140625 30.421875 -28.265625 C 30.367188 -27.398438 30.296875 -26.609375 30.203125 -25.890625 L 28.859375 -25.890625 L 26.203125 -33.21875 L 18.359375 -33.21875 L 18.359375 -2.71875 C 19.242188 -2.539062 20.070312 -2.367188 20.84375 -2.203125 C 21.613281 -2.035156 22.351562 -1.796875 23.0625 -1.484375 Z M 23.0625 0 "/></g></g></g><g fill="#0097b2" fill-opacity="1"><g transform="translate(243.0556, 53.926646)"><g><path d="M 14.453125 0 L 1.484375 0 L 1.484375 -1.484375 C 2.847656 -2.035156 4.25 -2.445312 5.6875 -2.71875 L 5.6875 -33.125 C 4.082031 -33.351562 2.679688 -33.78125 1.484375 -34.40625 L 1.484375 -35.890625 L 14.453125 -35.890625 L 14.453125 -34.40625 C 13.867188 -34.09375 13.253906 -33.832031 12.609375 -33.625 C 11.960938 -33.425781 11.296875 -33.257812 10.609375 -33.125 L 10.609375 -19.734375 L 26.703125 -19.734375 L 26.703125 -33.125 C 25.992188 -33.289062 25.320312 -33.472656 24.6875 -33.671875 C 24.050781 -33.878906 23.441406 -34.125 22.859375 -34.40625 L 22.859375 -35.890625 L 35.828125 -35.890625 L 35.828125 -34.40625 C 35.210938 -34.0625 34.535156 -33.796875 33.796875 -33.609375 C 33.066406 -33.421875 32.34375 -33.257812 31.625 -33.125 L 31.625 -2.71875 C 32.414062 -2.582031 33.171875 -2.410156 33.890625 -2.203125 C 34.609375 -1.992188 35.253906 -1.753906 35.828125 -1.484375 L 35.828125 0 L 22.859375 0 L 22.859375 -1.484375 C 24.085938 -2.035156 25.367188 -2.445312 26.703125 -2.71875 L 26.703125 -17.078125 L 10.609375 -17.078125 L 10.609375 -2.71875 C 11.296875 -2.582031 11.960938 -2.410156 12.609375 -2.203125 C 13.253906 -1.992188 13.867188 -1.753906 14.453125 -1.484375 Z M 14.453125 0 "/></g></g></g><g fill="#0097b2" fill-opacity="1"><g transform="translate(285.503214, 53.926646)"><g><path d="M 11.375 0 L 0 0 L 0 -1.484375 C 1.226562 -2.035156 2.457031 -2.445312 3.6875 -2.71875 L 16.65625 -36.5 L 18.140625 -36.5 L 31.125 -2.71875 C 31.800781 -2.582031 32.472656 -2.425781 33.140625 -2.25 C 33.804688 -2.082031 34.429688 -1.828125 35.015625 -1.484375 L 35.015625 0 L 21.890625 0 L 21.890625 -1.484375 C 22.578125 -1.753906 23.273438 -1.992188 23.984375 -2.203125 C 24.703125 -2.410156 25.40625 -2.582031 26.09375 -2.71875 L 22.609375 -12.09375 L 10.359375 -12.09375 L 6.96875 -2.71875 C 8.40625 -2.507812 9.875 -2.097656 11.375 -1.484375 Z M 11.375 -14.765625 L 21.734375 -14.765625 L 17.6875 -25.640625 L 16.71875 -30.046875 L 16.609375 -30.046875 L 15.328125 -25.53125 Z M 11.375 -14.765625 "/></g></g></g></g></g></g><g clip-path="url(#e34b13d34d)"><g transform="matrix(1, 0, 0, 1, 32, 0)"><g clip-path="url(#c2e6226a25)"><g fill="#0097b2" fill-opacity="1"><g transform="translate(18.985637, 97.026733)"><g><path d="M 6.71875 -14.640625 L 4.71875 -10.3125 L 4.203125 -10.546875 C 4.210938 -10.816406 4.238281 -11.082031 4.28125 -11.34375 C 4.332031 -11.613281 4.390625 -11.878906 4.453125 -12.140625 L -3.4375 -15.75 L -5.453125 -16.765625 L -5.515625 -16.625 L -3.90625 -15.1875 L 3.4375 -7.484375 L 3.21875 -7.03125 L -7.328125 -7.734375 L -9.640625 -8.046875 L -9.71875 -7.890625 L -7.5 -6.890625 L 0.390625 -3.28125 C 0.523438 -3.476562 0.675781 -3.671875 0.84375 -3.859375 C 1.019531 -4.046875 1.203125 -4.226562 1.390625 -4.40625 L 1.90625 -4.171875 L 0.234375 -0.53125 L -0.28125 -0.765625 C -0.269531 -1.023438 -0.242188 -1.289062 -0.203125 -1.5625 C -0.171875 -1.84375 -0.125 -2.117188 -0.0625 -2.390625 L -10.421875 -7.140625 C -10.578125 -6.910156 -10.75 -6.691406 -10.9375 -6.484375 C -11.125 -6.273438 -11.316406 -6.082031 -11.515625 -5.90625 L -12.015625 -6.125 L -10.375 -9.703125 L -0.96875 -9.09375 L 1.109375 -8.859375 L 1.109375 -8.875 L -0.46875 -10.328125 L -6.984375 -17.09375 L -5.53125 -20.265625 L -5.03125 -20.046875 C -5.03125 -19.785156 -5.039062 -19.523438 -5.0625 -19.265625 C -5.09375 -19.015625 -5.140625 -18.769531 -5.203125 -18.53125 L 5.203125 -13.765625 C 5.359375 -13.984375 5.515625 -14.179688 5.671875 -14.359375 C 5.835938 -14.546875 6.015625 -14.71875 6.203125 -14.875 Z M 6.71875 -14.640625 "/></g></g></g><g fill="#0097b2" fill-opacity="1"><g transform="translate(28.49233, 77.655519)"><g><path d="M 2.421875 -3.53125 L 0 0 L -0.46875 -0.3125 C -0.363281 -0.800781 -0.226562 -1.269531 -0.0625 -1.71875 L -7.78125 -12.890625 L -7.46875 -13.359375 L 5.75 -10.234375 C 5.9375 -10.398438 6.125 -10.570312 6.3125 -10.75 C 6.507812 -10.925781 6.722656 -11.0625 6.953125 -11.15625 L 7.421875 -10.84375 L 4.640625 -6.78125 L 4.171875 -7.09375 C 4.234375 -7.375 4.304688 -7.644531 4.390625 -7.90625 C 4.484375 -8.164062 4.582031 -8.421875 4.6875 -8.671875 L 1.03125 -9.5625 L -1.546875 -5.78125 L 0.640625 -2.75 C 1.003906 -3.144531 1.441406 -3.507812 1.953125 -3.84375 Z M -2.15625 -6.65625 L 0.03125 -9.859375 L -4.203125 -10.921875 L -5.765625 -11.546875 L -5.796875 -11.5 L -4.671875 -10.15625 Z M -2.15625 -6.65625 "/></g></g></g><g fill="#0097b2" fill-opacity="1"><g transform="translate(39.0741, 62.894085)"><g><path d="M -4.796875 -14.578125 L -1.890625 -17.671875 L -1.5 -17.296875 C -1.59375 -17.035156 -1.695312 -16.785156 -1.8125 -16.546875 C -1.925781 -16.316406 -2.039062 -16.101562 -2.15625 -15.90625 L -1.046875 -9.59375 C -0.523438 -9.519531 0.0703125 -9.457031 0.75 -9.40625 C 1.425781 -9.363281 2.117188 -9.316406 2.828125 -9.265625 C 3.546875 -9.210938 4.273438 -9.164062 5.015625 -9.125 C 5.765625 -9.082031 6.488281 -9.054688 7.1875 -9.046875 L 8.140625 -9.40625 L 8.5 -9.078125 L 6.859375 -7.328125 L 6.0625 -7.15625 C 4.894531 -7.21875 3.679688 -7.320312 2.421875 -7.46875 C 1.160156 -7.625 -0.0976562 -7.800781 -1.359375 -8 L -2 -7.3125 L 1.984375 -3.59375 C 2.460938 -3.96875 2.898438 -4.21875 3.296875 -4.34375 L 3.703125 -3.953125 L 0.390625 -0.40625 L -0.015625 -0.796875 C 0.179688 -1.304688 0.429688 -1.789062 0.734375 -2.25 L -7.609375 -10.0625 C -8.066406 -9.6875 -8.546875 -9.410156 -9.046875 -9.234375 L -9.4375 -9.609375 L -6.125 -13.15625 L -5.734375 -12.78125 C -5.796875 -12.570312 -5.878906 -12.347656 -5.984375 -12.109375 C -6.097656 -11.878906 -6.222656 -11.644531 -6.359375 -11.40625 L -2.46875 -7.765625 L -1.875 -8.796875 L -3.109375 -14.875 C -3.328125 -14.738281 -3.546875 -14.609375 -3.765625 -14.484375 C -3.984375 -14.367188 -4.195312 -14.273438 -4.40625 -14.203125 Z M -4.796875 -14.578125 "/></g></g></g><g fill="#0097b2" fill-opacity="1"><g transform="translate(51.328659, 50.40263)"><g><path d="M -0.828125 -16.578125 C -0.523438 -16.160156 -0.226562 -15.738281 0.0625 -15.3125 C 0.363281 -14.882812 0.65625 -14.445312 0.9375 -14 L 0.546875 -13.6875 L -1.375 -14.859375 L -4.671875 -12.234375 L -1.484375 -8.25 L 0.96875 -10.203125 L 0.671875 -11.78125 L 1.046875 -12.09375 C 1.898438 -11.144531 2.707031 -10.128906 3.46875 -9.046875 L 3.09375 -8.734375 L 1.578125 -9.421875 L -0.875 -7.46875 L 2.484375 -3.265625 L 5.9375 -6.03125 L 5.25 -8.4375 L 5.625 -8.734375 C 6.03125 -8.359375 6.421875 -7.96875 6.796875 -7.5625 C 7.171875 -7.15625 7.523438 -6.722656 7.859375 -6.265625 L 0.4375 -0.34375 L 0.09375 -0.78125 C 0.320312 -1.21875 0.632812 -1.664062 1.03125 -2.125 L -6.09375 -11.046875 C -6.320312 -10.929688 -6.566406 -10.816406 -6.828125 -10.703125 C -7.097656 -10.597656 -7.363281 -10.507812 -7.625 -10.4375 L -7.96875 -10.875 Z M -0.828125 -16.578125 "/></g></g></g><g fill="#0097b2" fill-opacity="1"><g transform="translate(64.225127, 40.50097)"><g><path d="M -6.609375 -11.734375 L -2.375 -14.1875 L -2.109375 -13.71875 C -2.265625 -13.507812 -2.425781 -13.304688 -2.59375 -13.109375 C -2.769531 -12.921875 -2.941406 -12.742188 -3.109375 -12.578125 L 0.84375 -5.765625 C 1.1875 -5.179688 1.535156 -4.726562 1.890625 -4.40625 C 2.242188 -4.082031 2.609375 -3.867188 2.984375 -3.765625 C 3.367188 -3.671875 3.769531 -3.675781 4.1875 -3.78125 C 4.613281 -3.882812 5.054688 -4.070312 5.515625 -4.34375 C 6.378906 -4.851562 6.914062 -5.488281 7.125 -6.25 C 7.34375 -7.019531 7.128906 -7.957031 6.484375 -9.0625 L 2.609375 -15.71875 C 2.304688 -15.65625 2.015625 -15.601562 1.734375 -15.5625 C 1.460938 -15.53125 1.207031 -15.515625 0.96875 -15.515625 L 0.703125 -15.984375 L 4.25 -18.046875 L 4.515625 -17.578125 C 4.378906 -17.328125 4.226562 -17.085938 4.0625 -16.859375 C 3.90625 -16.640625 3.726562 -16.441406 3.53125 -16.265625 L 7.421875 -9.59375 C 7.828125 -8.875 8.085938 -8.207031 8.203125 -7.59375 C 8.316406 -6.976562 8.296875 -6.40625 8.140625 -5.875 C 7.992188 -5.34375 7.726562 -4.851562 7.34375 -4.40625 C 6.96875 -3.957031 6.488281 -3.5625 5.90625 -3.21875 C 4.519531 -2.414062 3.273438 -2.113281 2.171875 -2.3125 C 1.078125 -2.519531 0.148438 -3.269531 -0.609375 -4.5625 L -4.71875 -11.640625 C -5.21875 -11.441406 -5.757812 -11.316406 -6.34375 -11.265625 Z M -6.609375 -11.734375 "/></g></g></g><g fill="#0097b2" fill-opacity="1"><g transform="translate(79.975242, 31.831695)"><g><path d="M 3.328125 -2.40625 C 3.660156 -2.519531 3.984375 -2.59375 4.296875 -2.625 C 4.609375 -2.65625 4.914062 -2.671875 5.21875 -2.671875 L 5.421875 -2.15625 L 0.515625 -0.203125 L 0.3125 -0.71875 C 0.5 -0.9375 0.707031 -1.125 0.9375 -1.28125 C 1.164062 -1.4375 1.390625 -1.585938 1.609375 -1.734375 L -2.625 -12.34375 C -2.914062 -12.28125 -3.191406 -12.238281 -3.453125 -12.21875 C -3.722656 -12.207031 -3.992188 -12.203125 -4.265625 -12.203125 L -4.46875 -12.71875 L -2.84375 -13.359375 C -2.375 -13.554688 -1.867188 -13.785156 -1.328125 -14.046875 C -0.785156 -14.316406 -0.257812 -14.554688 0.25 -14.765625 C 0.832031 -14.992188 1.429688 -15.15625 2.046875 -15.25 C 2.660156 -15.351562 3.242188 -15.34375 3.796875 -15.21875 C 4.347656 -15.09375 4.851562 -14.835938 5.3125 -14.453125 C 5.769531 -14.078125 6.148438 -13.515625 6.453125 -12.765625 C 6.734375 -12.054688 6.835938 -11.394531 6.765625 -10.78125 C 6.691406 -10.175781 6.488281 -9.617188 6.15625 -9.109375 C 5.832031 -8.609375 5.40625 -8.164062 4.875 -7.78125 C 4.351562 -7.40625 3.78125 -7.097656 3.15625 -6.859375 C 3.101562 -6.828125 3.007812 -6.785156 2.875 -6.734375 C 2.75 -6.691406 2.613281 -6.644531 2.46875 -6.59375 C 2.320312 -6.539062 2.179688 -6.492188 2.046875 -6.453125 C 1.910156 -6.410156 1.8125 -6.382812 1.75 -6.375 Z M 0.25 -13.6875 C -0.0390625 -13.570312 -0.269531 -13.472656 -0.4375 -13.390625 C -0.613281 -13.316406 -0.78125 -13.222656 -0.9375 -13.109375 L 1.375 -7.3125 C 1.4375 -7.320312 1.523438 -7.34375 1.640625 -7.375 C 1.765625 -7.414062 1.890625 -7.457031 2.015625 -7.5 C 2.140625 -7.539062 2.257812 -7.582031 2.375 -7.625 C 2.5 -7.675781 2.597656 -7.71875 2.671875 -7.75 C 3.097656 -7.914062 3.472656 -8.125 3.796875 -8.375 C 4.117188 -8.632812 4.367188 -8.941406 4.546875 -9.296875 C 4.722656 -9.660156 4.816406 -10.066406 4.828125 -10.515625 C 4.847656 -10.972656 4.753906 -11.46875 4.546875 -12 C 4.148438 -12.976562 3.578125 -13.601562 2.828125 -13.875 C 2.085938 -14.144531 1.226562 -14.082031 0.25 -13.6875 Z M 0.25 -13.6875 "/></g></g></g><g fill="#0097b2" fill-opacity="1"><g transform="translate(95.700463, 26.101309)"><g/></g></g><g fill="#0097b2" fill-opacity="1"><g transform="translate(105.284643, 23.567626)"><g><path d="M 4.234375 -0.609375 L 0 0 L -0.078125 -0.5625 C 0.347656 -0.8125 0.785156 -1.023438 1.234375 -1.203125 L 4.234375 -14.453125 L 4.796875 -14.53125 L 11.421875 -2.671875 C 11.671875 -2.648438 11.925781 -2.628906 12.1875 -2.609375 C 12.457031 -2.585938 12.703125 -2.53125 12.921875 -2.4375 L 13 -1.875 L 8.140625 -1.171875 L 8.0625 -1.734375 C 8.289062 -1.878906 8.53125 -2.003906 8.78125 -2.109375 C 9.039062 -2.210938 9.300781 -2.3125 9.5625 -2.40625 L 7.734375 -5.71875 L 3.1875 -5.0625 L 2.453125 -1.375 C 2.992188 -1.375 3.5625 -1.304688 4.15625 -1.171875 Z M 3.4375 -6.09375 L 7.28125 -6.65625 L 5.203125 -10.484375 L 4.609375 -12.0625 L 4.5625 -12.0625 L 4.3125 -10.328125 Z M 3.4375 -6.09375 "/></g></g></g><g fill="#0097b2" fill-opacity="1"><g transform="translate(123.266454, 21.334558)"><g><path d="M 9.59375 -13.3125 L 13.75 -13.25 L 13.734375 -12.703125 C 13.191406 -12.347656 12.660156 -12.097656 12.140625 -11.953125 L 11.953125 0.421875 L 10.859375 0.40625 L 4.046875 -10.3125 L 3.3125 -11.828125 L 3.25 -11.828125 L 3.40625 -10.328125 L 3.25 -1.1875 C 3.769531 -1.03125 4.265625 -0.796875 4.734375 -0.484375 L 4.71875 0.078125 L 0.5625 0.015625 L 0.578125 -0.546875 C 0.804688 -0.679688 1.050781 -0.800781 1.3125 -0.90625 C 1.570312 -1.007812 1.851562 -1.109375 2.15625 -1.203125 L 2.34375 -12.234375 C 2.082031 -12.335938 1.828125 -12.445312 1.578125 -12.5625 C 1.328125 -12.6875 1.09375 -12.804688 0.875 -12.921875 L 0.890625 -13.453125 L 4.140625 -13.40625 L 10.046875 -4.171875 L 10.921875 -2.5 L 11 -2.5 L 10.921875 -4.15625 L 11.046875 -11.96875 C 10.785156 -12.082031 10.53125 -12.207031 10.28125 -12.34375 C 10.03125 -12.476562 9.796875 -12.617188 9.578125 -12.765625 Z M 9.59375 -13.3125 "/></g></g></g><g fill="#0097b2" fill-opacity="1"><g transform="translate(142.299802, 22.058096)"><g><path d="M 0.546875 0.09375 L 0.640625 -0.453125 C 1.128906 -0.566406 1.675781 -0.625 2.28125 -0.625 L 4.296875 -11.875 C 4.003906 -11.976562 3.734375 -12.09375 3.484375 -12.21875 C 3.242188 -12.351562 3.023438 -12.488281 2.828125 -12.625 L 2.921875 -13.15625 L 4.84375 -12.8125 C 5.0625 -12.769531 5.316406 -12.726562 5.609375 -12.6875 C 5.910156 -12.65625 6.210938 -12.617188 6.515625 -12.578125 C 6.828125 -12.546875 7.128906 -12.507812 7.421875 -12.46875 C 7.710938 -12.4375 7.953125 -12.40625 8.140625 -12.375 C 10.296875 -11.988281 11.84375 -11.117188 12.78125 -9.765625 C 13.726562 -8.410156 14.015625 -6.675781 13.640625 -4.5625 C 13.460938 -3.570312 13.15625 -2.675781 12.71875 -1.875 C 12.289062 -1.070312 11.726562 -0.414062 11.03125 0.09375 C 10.332031 0.613281 9.507812 0.96875 8.5625 1.15625 C 7.613281 1.351562 6.53125 1.34375 5.3125 1.125 C 5.125 1.09375 4.910156 1.046875 4.671875 0.984375 C 4.441406 0.921875 4.191406 0.859375 3.921875 0.796875 C 3.648438 0.734375 3.378906 0.664062 3.109375 0.59375 C 2.847656 0.519531 2.601562 0.460938 2.375 0.421875 Z M 7.703125 -11.4375 C 7.378906 -11.5 7.0625 -11.550781 6.75 -11.59375 C 6.445312 -11.644531 6.207031 -11.664062 6.03125 -11.65625 L 3.96875 -0.1875 C 4.03125 -0.15625 4.144531 -0.125 4.3125 -0.09375 C 4.476562 -0.0625 4.648438 -0.0234375 4.828125 0.015625 C 5.015625 0.0546875 5.191406 0.09375 5.359375 0.125 C 5.523438 0.15625 5.644531 0.175781 5.71875 0.1875 C 6.59375 0.34375 7.363281 0.3125 8.03125 0.09375 C 8.707031 -0.125 9.285156 -0.472656 9.765625 -0.953125 C 10.253906 -1.429688 10.644531 -2.015625 10.9375 -2.703125 C 11.238281 -3.398438 11.460938 -4.144531 11.609375 -4.9375 C 11.722656 -5.5625 11.753906 -6.21875 11.703125 -6.90625 C 11.648438 -7.601562 11.476562 -8.257812 11.1875 -8.875 C 10.90625 -9.488281 10.484375 -10.023438 9.921875 -10.484375 C 9.359375 -10.953125 8.617188 -11.269531 7.703125 -11.4375 Z M 7.703125 -11.4375 "/></g></g></g><g fill="#0097b2" fill-opacity="1"><g transform="translate(160.719663, 25.964845)"><g/></g></g><g fill="#0097b2" fill-opacity="1"><g transform="translate(170.190945, 29.002772)"><g><path d="M 0.515625 0.234375 L 0.75 -0.28125 C 1.3125 -0.300781 1.847656 -0.226562 2.359375 -0.0625 L 6.984375 -10.515625 C 6.765625 -10.671875 6.550781 -10.835938 6.34375 -11.015625 C 6.132812 -11.203125 5.9375 -11.390625 5.75 -11.578125 L 5.96875 -12.078125 L 7.828125 -11.265625 C 8.054688 -11.160156 8.273438 -11.070312 8.484375 -11 C 8.691406 -10.925781 8.910156 -10.84375 9.140625 -10.75 C 9.367188 -10.664062 9.613281 -10.570312 9.875 -10.46875 C 10.132812 -10.375 10.429688 -10.253906 10.765625 -10.109375 C 11.234375 -9.898438 11.691406 -9.648438 12.140625 -9.359375 C 12.597656 -9.066406 12.972656 -8.722656 13.265625 -8.328125 C 13.566406 -7.941406 13.753906 -7.503906 13.828125 -7.015625 C 13.910156 -6.523438 13.816406 -5.972656 13.546875 -5.359375 C 13.410156 -5.054688 13.226562 -4.773438 13 -4.515625 C 12.769531 -4.253906 12.5 -4.035156 12.1875 -3.859375 C 11.882812 -3.679688 11.539062 -3.554688 11.15625 -3.484375 C 10.78125 -3.421875 10.367188 -3.429688 9.921875 -3.515625 L 9.890625 -3.4375 C 10.210938 -3.21875 10.515625 -2.957031 10.796875 -2.65625 C 11.085938 -2.363281 11.316406 -2.035156 11.484375 -1.671875 C 11.648438 -1.316406 11.738281 -0.925781 11.75 -0.5 C 11.757812 -0.0820312 11.65625 0.375 11.4375 0.875 C 11.15625 1.5 10.773438 1.976562 10.296875 2.3125 C 9.816406 2.644531 9.28125 2.859375 8.6875 2.953125 C 8.101562 3.054688 7.492188 3.046875 6.859375 2.921875 C 6.234375 2.796875 5.628906 2.601562 5.046875 2.34375 C 4.628906 2.164062 4.171875 1.945312 3.671875 1.6875 C 3.171875 1.425781 2.679688 1.1875 2.203125 0.96875 Z M 5.578125 1.5 C 5.992188 1.675781 6.414062 1.78125 6.84375 1.8125 C 7.269531 1.851562 7.664062 1.816406 8.03125 1.703125 C 8.394531 1.585938 8.722656 1.398438 9.015625 1.140625 C 9.316406 0.890625 9.550781 0.578125 9.71875 0.203125 C 9.925781 -0.253906 10.003906 -0.679688 9.953125 -1.078125 C 9.910156 -1.472656 9.773438 -1.828125 9.546875 -2.140625 C 9.328125 -2.453125 9.03125 -2.734375 8.65625 -2.984375 C 8.28125 -3.242188 7.875 -3.46875 7.4375 -3.65625 L 6.125 -4.25 L 3.96875 0.609375 C 4.101562 0.722656 4.28125 0.84375 4.5 0.96875 C 4.71875 1.101562 5.078125 1.28125 5.578125 1.5 Z M 7.40625 -4.78125 C 7.601562 -4.6875 7.84375 -4.582031 8.125 -4.46875 C 8.40625 -4.363281 8.640625 -4.285156 8.828125 -4.234375 C 9.441406 -4.191406 10.015625 -4.300781 10.546875 -4.5625 C 11.078125 -4.820312 11.46875 -5.234375 11.71875 -5.796875 C 12.0625 -6.566406 12.085938 -7.25 11.796875 -7.84375 C 11.503906 -8.4375 10.96875 -8.910156 10.1875 -9.265625 C 9.832031 -9.421875 9.519531 -9.546875 9.25 -9.640625 C 8.988281 -9.742188 8.773438 -9.828125 8.609375 -9.890625 L 6.53125 -5.171875 Z M 7.40625 -4.78125 "/></g></g></g><g fill="#0097b2" fill-opacity="1"><g transform="translate(185.504739, 36.197689)"><g><path d="M 15.359375 -6.28125 C 15.066406 -5.851562 14.769531 -5.429688 14.46875 -5.015625 C 14.164062 -4.597656 13.851562 -4.179688 13.53125 -3.765625 L 13.109375 -4.03125 L 13.546875 -6.234375 L 9.984375 -8.46875 L 7.28125 -4.140625 L 9.953125 -2.46875 L 11.34375 -3.28125 L 11.765625 -3.015625 C 11.148438 -1.910156 10.457031 -0.8125 9.6875 0.28125 L 9.265625 0.015625 L 9.421875 -1.625 L 6.75 -3.296875 L 3.90625 1.265625 L 7.65625 3.609375 L 9.6875 2.15625 L 10.09375 2.40625 C 9.882812 2.90625 9.648438 3.398438 9.390625 3.890625 C 9.140625 4.390625 8.847656 4.867188 8.515625 5.328125 L 0.484375 0.296875 L 0.78125 -0.1875 C 1.257812 -0.113281 1.78125 0.0390625 2.34375 0.28125 L 8.40625 -9.40625 C 8.21875 -9.59375 8.03125 -9.789062 7.84375 -10 C 7.65625 -10.21875 7.484375 -10.4375 7.328125 -10.65625 L 7.625 -11.125 Z M 15.359375 -6.28125 "/></g></g></g><g fill="#0097b2" fill-opacity="1"><g transform="translate(199.125052, 45.067227)"><g><path d="M 3.25 2.78125 L 0 0 L 0.359375 -0.421875 C 0.835938 -0.273438 1.289062 -0.0859375 1.71875 0.140625 L 13.640625 -6.359375 L 14.078125 -6 L 9.546875 6.828125 C 9.703125 7.015625 9.851562 7.210938 10 7.421875 C 10.15625 7.640625 10.273438 7.867188 10.359375 8.109375 L 10 8.53125 L 6.25 5.328125 L 6.609375 4.90625 C 6.878906 5 7.140625 5.101562 7.390625 5.21875 C 7.640625 5.332031 7.878906 5.457031 8.109375 5.59375 L 9.40625 2.0625 L 5.90625 -0.921875 L 2.65625 0.9375 C 3.019531 1.332031 3.335938 1.804688 3.609375 2.359375 Z M 6.84375 -1.4375 L 9.796875 1.078125 L 11.296875 -3.015625 L 12.109375 -4.5 L 12.0625 -4.53125 L 10.609375 -3.5625 Z M 6.84375 -1.4375 "/></g></g></g><g fill="#0097b2" fill-opacity="1"><g transform="translate(212.668564, 57.147923)"><g><path d="M 10.34375 -8.640625 L 13.53125 -4.921875 L 13.109375 -4.5625 C 12.878906 -4.675781 12.648438 -4.800781 12.421875 -4.9375 C 12.203125 -5.082031 11.992188 -5.222656 11.796875 -5.359375 L 5.828125 -0.21875 C 5.304688 0.21875 4.914062 0.640625 4.65625 1.046875 C 4.40625 1.453125 4.269531 1.851562 4.25 2.25 C 4.226562 2.644531 4.304688 3.039062 4.484375 3.4375 C 4.671875 3.832031 4.9375 4.234375 5.28125 4.640625 C 5.9375 5.398438 6.65625 5.8125 7.4375 5.875 C 8.226562 5.9375 9.109375 5.550781 10.078125 4.71875 L 15.921875 -0.28125 C 15.804688 -0.570312 15.707031 -0.847656 15.625 -1.109375 C 15.539062 -1.378906 15.472656 -1.628906 15.421875 -1.859375 L 15.84375 -2.21875 L 18.53125 0.890625 L 18.109375 1.25 C 17.835938 1.15625 17.578125 1.050781 17.328125 0.9375 C 17.078125 0.820312 16.84375 0.6875 16.625 0.53125 L 10.765625 5.546875 C 10.140625 6.085938 9.535156 6.46875 8.953125 6.6875 C 8.367188 6.914062 7.800781 7.003906 7.25 6.953125 C 6.695312 6.910156 6.164062 6.738281 5.65625 6.4375 C 5.15625 6.132812 4.6875 5.722656 4.25 5.203125 C 3.207031 3.984375 2.679688 2.816406 2.671875 1.703125 C 2.671875 0.597656 3.238281 -0.441406 4.375 -1.421875 L 10.59375 -6.765625 C 10.300781 -7.203125 10.078125 -7.707031 9.921875 -8.28125 Z M 10.34375 -8.640625 "/></g></g></g><g fill="#0097b2" fill-opacity="1"><g transform="translate(224.055574, 71.047849)"><g><path d="M 4.59375 7.328125 L 1.71875 2.75 L 2.203125 2.453125 C 2.441406 2.640625 2.671875 2.835938 2.890625 3.046875 C 3.109375 3.253906 3.328125 3.484375 3.546875 3.734375 L 13.25 -2.34375 L 11.671875 -4.84375 L 8.8125 -4.25 L 8.546875 -4.65625 C 8.742188 -4.832031 8.976562 -5.015625 9.25 -5.203125 C 9.519531 -5.398438 9.789062 -5.597656 10.0625 -5.796875 C 10.34375 -5.992188 10.613281 -6.1875 10.875 -6.375 C 11.144531 -6.5625 11.382812 -6.722656 11.59375 -6.859375 L 17.53125 2.625 C 17.320312 2.757812 17.078125 2.90625 16.796875 3.0625 C 16.523438 3.226562 16.238281 3.390625 15.9375 3.546875 C 15.632812 3.710938 15.335938 3.875 15.046875 4.03125 C 14.765625 4.195312 14.503906 4.335938 14.265625 4.453125 L 14 4.03125 L 15.796875 1.71875 L 14.21875 -0.78125 L 4.515625 5.296875 C 4.640625 5.617188 4.753906 5.914062 4.859375 6.1875 C 4.960938 6.46875 5.035156 6.75 5.078125 7.03125 Z M 4.59375 7.328125 "/></g></g></g><g fill="#0097b2" fill-opacity="1"><g transform="translate(232.765938, 85.602673)"><g><path d="M 15.609375 2.078125 L 17.3125 5.96875 L 16.8125 6.1875 C 16.382812 5.832031 16.039062 5.445312 15.78125 5.03125 L 8.171875 4.390625 L 3.859375 6.28125 C 3.992188 6.757812 4.050781 7.269531 4.03125 7.8125 L 3.515625 8.03125 L 1.546875 3.546875 L 2.0625 3.328125 C 2.457031 3.660156 2.8125 4.082031 3.125 4.59375 L 7.421875 2.703125 L 12.015625 -3.546875 C 11.941406 -3.847656 11.894531 -4.128906 11.875 -4.390625 C 11.851562 -4.648438 11.84375 -4.910156 11.84375 -5.171875 L 12.34375 -5.390625 L 14.390625 -0.71875 L 13.890625 -0.5 C 13.722656 -0.644531 13.554688 -0.8125 13.390625 -1 C 13.222656 -1.195312 13.039062 -1.414062 12.84375 -1.65625 L 8.9375 3.5 L 15.296875 3.9375 C 15.234375 3.644531 15.1875 3.359375 15.15625 3.078125 C 15.125 2.804688 15.109375 2.546875 15.109375 2.296875 Z M 15.609375 2.078125 "/></g></g></g></g></g></g></g></g></svg>